<mxfile host="app.diagrams.net" modified="2024-05-28T12:25:57.194Z" agent="Mozilla/5.0 (Windows NT 10.0; Win64; x64) AppleWebKit/537.36 (KHTML, like Gecko) Chrome/125.0.0.0 Safari/537.36" etag="lxr0h-6FjI7C_Pif9DST" version="24.4.9" type="github">
  <diagram name="페이지-1" id="nOLPPfqX_oQnOj7sm-fq">
    <mxGraphModel dx="2874" dy="1532" grid="1" gridSize="10" guides="1" tooltips="1" connect="1" arrows="1" fold="1" page="0" pageScale="1" pageWidth="827" pageHeight="1169" math="0" shadow="0">
      <root>
        <mxCell id="0" />
        <mxCell id="1" parent="0" />
        <mxCell id="_-kJSPt_qq9w9nPcTiiO-46" value="" style="rounded=0;whiteSpace=wrap;html=1;fillColor=#f5f5f5;strokeColor=#666666;fontColor=#333333;" parent="1" vertex="1">
          <mxGeometry x="620" y="40" width="140" height="100" as="geometry" />
        </mxCell>
        <mxCell id="_-kJSPt_qq9w9nPcTiiO-47" value="" style="rounded=0;whiteSpace=wrap;html=1;fillColor=#f5f5f5;strokeColor=#666666;fontColor=#333333;" parent="1" vertex="1">
          <mxGeometry x="420" y="40" width="140" height="100" as="geometry" />
        </mxCell>
        <mxCell id="_-kJSPt_qq9w9nPcTiiO-48" value="" style="rounded=0;whiteSpace=wrap;html=1;fillColor=#f5f5f5;strokeColor=#666666;fontColor=#333333;" parent="1" vertex="1">
          <mxGeometry x="420" y="-120" width="140" height="100" as="geometry" />
        </mxCell>
        <mxCell id="_-kJSPt_qq9w9nPcTiiO-49" value="" style="rounded=0;whiteSpace=wrap;html=1;fillColor=#f5f5f5;strokeColor=#666666;fontColor=#333333;" parent="1" vertex="1">
          <mxGeometry x="220" y="-120" width="140" height="100" as="geometry" />
        </mxCell>
        <mxCell id="_-kJSPt_qq9w9nPcTiiO-50" value="" style="rounded=0;whiteSpace=wrap;html=1;fillColor=#f5f5f5;strokeColor=#666666;fontColor=#333333;" parent="1" vertex="1">
          <mxGeometry x="220" y="40" width="140" height="100" as="geometry" />
        </mxCell>
        <mxCell id="_-kJSPt_qq9w9nPcTiiO-51" value="" style="rounded=0;whiteSpace=wrap;html=1;fillColor=#f5f5f5;strokeColor=#666666;fontColor=#333333;" parent="1" vertex="1">
          <mxGeometry x="20" y="40" width="140" height="100" as="geometry" />
        </mxCell>
        <mxCell id="_-kJSPt_qq9w9nPcTiiO-52" value="" style="rounded=0;whiteSpace=wrap;html=1;fillColor=#f5f5f5;strokeColor=#666666;fontColor=#333333;" parent="1" vertex="1">
          <mxGeometry x="-180" y="40" width="140" height="100" as="geometry" />
        </mxCell>
        <mxCell id="_-kJSPt_qq9w9nPcTiiO-53" value="" style="rounded=0;whiteSpace=wrap;html=1;fillColor=#f5f5f5;strokeColor=#666666;fontColor=#333333;" parent="1" vertex="1">
          <mxGeometry x="-380" y="40" width="140" height="100" as="geometry" />
        </mxCell>
        <mxCell id="_-kJSPt_qq9w9nPcTiiO-54" value="" style="edgeStyle=orthogonalEdgeStyle;rounded=0;orthogonalLoop=1;jettySize=auto;html=1;" parent="1" source="_-kJSPt_qq9w9nPcTiiO-55" target="_-kJSPt_qq9w9nPcTiiO-59" edge="1">
          <mxGeometry relative="1" as="geometry" />
        </mxCell>
        <mxCell id="_-kJSPt_qq9w9nPcTiiO-55" value="NginX" style="rounded=0;whiteSpace=wrap;html=1;" parent="1" vertex="1">
          <mxGeometry x="-370" y="50" width="120" height="80" as="geometry" />
        </mxCell>
        <mxCell id="_-kJSPt_qq9w9nPcTiiO-56" value="Instance" style="text;html=1;align=left;verticalAlign=bottom;whiteSpace=wrap;rounded=0;" parent="1" vertex="1">
          <mxGeometry x="-380" y="20" width="120" height="20" as="geometry" />
        </mxCell>
        <mxCell id="_-kJSPt_qq9w9nPcTiiO-57" value="133.186.155.23:443" style="text;html=1;align=center;verticalAlign=middle;whiteSpace=wrap;rounded=0;" parent="1" vertex="1">
          <mxGeometry x="-371" y="140" width="120" height="20" as="geometry" />
        </mxCell>
        <mxCell id="_-kJSPt_qq9w9nPcTiiO-58" value="" style="edgeStyle=orthogonalEdgeStyle;rounded=0;orthogonalLoop=1;jettySize=auto;html=1;" parent="1" source="_-kJSPt_qq9w9nPcTiiO-59" target="_-kJSPt_qq9w9nPcTiiO-63" edge="1">
          <mxGeometry relative="1" as="geometry" />
        </mxCell>
        <mxCell id="_-kJSPt_qq9w9nPcTiiO-59" value="L4&lt;div&gt;Switch&lt;/div&gt;" style="rounded=0;whiteSpace=wrap;html=1;" parent="1" vertex="1">
          <mxGeometry x="-170" y="50" width="120" height="80" as="geometry" />
        </mxCell>
        <mxCell id="_-kJSPt_qq9w9nPcTiiO-60" value="Load Balancer&lt;div&gt;&lt;/div&gt;" style="text;html=1;align=left;verticalAlign=bottom;whiteSpace=wrap;rounded=0;" parent="1" vertex="1">
          <mxGeometry x="-180" y="20" width="120" height="20" as="geometry" />
        </mxCell>
        <mxCell id="_-kJSPt_qq9w9nPcTiiO-61" value="133.186.247.111:80" style="text;html=1;align=center;verticalAlign=middle;whiteSpace=wrap;rounded=0;" parent="1" vertex="1">
          <mxGeometry x="-171" y="140" width="120" height="20" as="geometry" />
        </mxCell>
        <mxCell id="_-kJSPt_qq9w9nPcTiiO-62" value="" style="edgeStyle=orthogonalEdgeStyle;rounded=0;orthogonalLoop=1;jettySize=auto;html=1;" parent="1" source="_-kJSPt_qq9w9nPcTiiO-63" target="_-kJSPt_qq9w9nPcTiiO-72" edge="1">
          <mxGeometry relative="1" as="geometry" />
        </mxCell>
        <mxCell id="_-kJSPt_qq9w9nPcTiiO-63" value="Front&lt;div&gt;Service&lt;/div&gt;" style="rounded=0;whiteSpace=wrap;html=1;strokeColor=#6cb340;" parent="1" vertex="1">
          <mxGeometry x="31" y="50" width="120" height="80" as="geometry" />
        </mxCell>
        <mxCell id="_-kJSPt_qq9w9nPcTiiO-64" value="Instance&lt;div&gt;&lt;/div&gt;" style="text;html=1;align=left;verticalAlign=bottom;whiteSpace=wrap;rounded=0;" parent="1" vertex="1">
          <mxGeometry x="20" y="20" width="120" height="20" as="geometry" />
        </mxCell>
        <mxCell id="_-kJSPt_qq9w9nPcTiiO-65" value="133.186.246.222:8080" style="text;html=1;align=center;verticalAlign=middle;whiteSpace=wrap;rounded=0;" parent="1" vertex="1">
          <mxGeometry x="29" y="140" width="120" height="20" as="geometry" />
        </mxCell>
        <mxCell id="_-kJSPt_qq9w9nPcTiiO-66" value="&lt;div&gt;Discovery&lt;/div&gt;&lt;div&gt;Service&lt;/div&gt;" style="rounded=0;whiteSpace=wrap;html=1;strokeColor=#6cb340;" parent="1" vertex="1">
          <mxGeometry x="230" y="-110" width="120" height="80" as="geometry" />
        </mxCell>
        <mxCell id="_-kJSPt_qq9w9nPcTiiO-67" value="Instance&lt;div&gt;&lt;/div&gt;" style="text;html=1;align=left;verticalAlign=bottom;whiteSpace=wrap;rounded=0;" parent="1" vertex="1">
          <mxGeometry x="220" y="-140" width="120" height="20" as="geometry" />
        </mxCell>
        <mxCell id="_-kJSPt_qq9w9nPcTiiO-68" value="133.186.134.189:8761" style="text;html=1;align=center;verticalAlign=middle;whiteSpace=wrap;rounded=0;" parent="1" vertex="1">
          <mxGeometry x="231" y="-20" width="120" height="20" as="geometry" />
        </mxCell>
        <mxCell id="_-kJSPt_qq9w9nPcTiiO-69" value="" style="edgeStyle=orthogonalEdgeStyle;rounded=0;orthogonalLoop=1;jettySize=auto;html=1;" parent="1" source="_-kJSPt_qq9w9nPcTiiO-72" target="_-kJSPt_qq9w9nPcTiiO-68" edge="1">
          <mxGeometry relative="1" as="geometry" />
        </mxCell>
        <mxCell id="_-kJSPt_qq9w9nPcTiiO-70" style="edgeStyle=orthogonalEdgeStyle;rounded=0;orthogonalLoop=1;jettySize=auto;html=1;exitX=1;exitY=0.5;exitDx=0;exitDy=0;entryX=0;entryY=0.5;entryDx=0;entryDy=0;" parent="1" source="_-kJSPt_qq9w9nPcTiiO-72" target="_-kJSPt_qq9w9nPcTiiO-79" edge="1">
          <mxGeometry relative="1" as="geometry" />
        </mxCell>
        <mxCell id="_-kJSPt_qq9w9nPcTiiO-71" style="edgeStyle=orthogonalEdgeStyle;rounded=0;orthogonalLoop=1;jettySize=auto;html=1;exitX=1;exitY=0.5;exitDx=0;exitDy=0;entryX=0;entryY=0.5;entryDx=0;entryDy=0;" parent="1" source="_-kJSPt_qq9w9nPcTiiO-72" target="_-kJSPt_qq9w9nPcTiiO-75" edge="1">
          <mxGeometry relative="1" as="geometry" />
        </mxCell>
        <mxCell id="_-kJSPt_qq9w9nPcTiiO-72" value="Gateway&lt;div&gt;Service&lt;/div&gt;" style="rounded=0;whiteSpace=wrap;html=1;strokeColor=#6cb340;" parent="1" vertex="1">
          <mxGeometry x="231" y="50" width="120" height="80" as="geometry" />
        </mxCell>
        <mxCell id="_-kJSPt_qq9w9nPcTiiO-73" value="Instance&lt;div&gt;&lt;/div&gt;" style="text;html=1;align=left;verticalAlign=bottom;whiteSpace=wrap;rounded=0;" parent="1" vertex="1">
          <mxGeometry x="220" y="20" width="120" height="20" as="geometry" />
        </mxCell>
        <mxCell id="_-kJSPt_qq9w9nPcTiiO-74" value="133.186.150.177:8080" style="text;html=1;align=center;verticalAlign=middle;whiteSpace=wrap;rounded=0;" parent="1" vertex="1">
          <mxGeometry x="230" y="140" width="120" height="20" as="geometry" />
        </mxCell>
        <mxCell id="_-kJSPt_qq9w9nPcTiiO-75" value="Auth&lt;div&gt;Service&lt;/div&gt;" style="rounded=0;whiteSpace=wrap;html=1;strokeColor=#6cb340;" parent="1" vertex="1">
          <mxGeometry x="430.5" y="-110" width="120" height="80" as="geometry" />
        </mxCell>
        <mxCell id="_-kJSPt_qq9w9nPcTiiO-76" value="Instance&lt;div&gt;&lt;/div&gt;" style="text;html=1;align=left;verticalAlign=bottom;whiteSpace=wrap;rounded=0;" parent="1" vertex="1">
          <mxGeometry x="420" y="-140" width="120" height="20" as="geometry" />
        </mxCell>
        <mxCell id="_-kJSPt_qq9w9nPcTiiO-77" value="133.186.215.150:8080" style="text;html=1;align=center;verticalAlign=middle;whiteSpace=wrap;rounded=0;" parent="1" vertex="1">
          <mxGeometry x="429.5" y="-20" width="120" height="20" as="geometry" />
        </mxCell>
        <mxCell id="_-kJSPt_qq9w9nPcTiiO-78" value="" style="edgeStyle=orthogonalEdgeStyle;rounded=0;orthogonalLoop=1;jettySize=auto;html=1;" parent="1" source="_-kJSPt_qq9w9nPcTiiO-79" target="_-kJSPt_qq9w9nPcTiiO-82" edge="1">
          <mxGeometry relative="1" as="geometry" />
        </mxCell>
        <mxCell id="_-kJSPt_qq9w9nPcTiiO-79" value="API&lt;div&gt;Service&lt;/div&gt;" style="rounded=0;whiteSpace=wrap;html=1;strokeColor=#6cb340;" parent="1" vertex="1">
          <mxGeometry x="430.5" y="50" width="120" height="80" as="geometry" />
        </mxCell>
        <mxCell id="_-kJSPt_qq9w9nPcTiiO-80" value="Instance&lt;div&gt;&lt;/div&gt;" style="text;html=1;align=left;verticalAlign=bottom;whiteSpace=wrap;rounded=0;" parent="1" vertex="1">
          <mxGeometry x="420" y="20" width="120" height="20" as="geometry" />
        </mxCell>
        <mxCell id="_-kJSPt_qq9w9nPcTiiO-81" value="133.186.246.95:8080" style="text;html=1;align=center;verticalAlign=middle;whiteSpace=wrap;rounded=0;" parent="1" vertex="1">
          <mxGeometry x="429.5" y="140" width="120" height="20" as="geometry" />
        </mxCell>
        <mxCell id="_-kJSPt_qq9w9nPcTiiO-82" value="" style="shape=cylinder3;whiteSpace=wrap;html=1;boundedLbl=1;backgroundOutline=1;size=15;" parent="1" vertex="1">
          <mxGeometry x="630" y="50" width="120" height="80" as="geometry" />
        </mxCell>
        <mxCell id="_-kJSPt_qq9w9nPcTiiO-83" value="133.186.244.96:3306" style="text;html=1;align=center;verticalAlign=middle;whiteSpace=wrap;rounded=0;" parent="1" vertex="1">
          <mxGeometry x="630" y="140" width="120" height="20" as="geometry" />
        </mxCell>
        <mxCell id="_-kJSPt_qq9w9nPcTiiO-84" value="Database&lt;div&gt;&lt;/div&gt;" style="text;html=1;align=left;verticalAlign=bottom;whiteSpace=wrap;rounded=0;" parent="1" vertex="1">
          <mxGeometry x="620" y="20" width="120" height="20" as="geometry" />
        </mxCell>
        <mxCell id="_-kJSPt_qq9w9nPcTiiO-85" value="&lt;h1 style=&quot;margin-top: 0px;&quot;&gt;IOTEATIME 서비스 아키텍쳐&lt;/h1&gt;&lt;p&gt;&lt;span style=&quot;background-color: initial;&quot;&gt;Copyright©️2024. All rights reserved by IOTEATIME.&lt;/span&gt;&lt;br&gt;&lt;/p&gt;" style="text;html=1;whiteSpace=wrap;overflow=hidden;rounded=0;" parent="1" vertex="1">
          <mxGeometry x="-371" y="-108" width="320" height="70" as="geometry" />
        </mxCell>
        <mxCell id="_-kJSPt_qq9w9nPcTiiO-86" value="" style="edgeStyle=orthogonalEdgeStyle;rounded=0;orthogonalLoop=1;jettySize=auto;html=1;" parent="1" source="_-kJSPt_qq9w9nPcTiiO-87" target="_-kJSPt_qq9w9nPcTiiO-55" edge="1">
          <mxGeometry relative="1" as="geometry" />
        </mxCell>
        <mxCell id="_-kJSPt_qq9w9nPcTiiO-87" value="Client" style="shape=umlActor;verticalLabelPosition=bottom;verticalAlign=top;html=1;outlineConnect=0;" parent="1" vertex="1">
          <mxGeometry x="-490" y="50" width="40" height="80" as="geometry" />
        </mxCell>
        <mxCell id="_-kJSPt_qq9w9nPcTiiO-88" value="" style="shape=image;verticalLabelPosition=bottom;labelBackgroundColor=default;verticalAlign=top;aspect=fixed;imageAspect=0;image=https://taetaetae.github.io/images/spring-boot-eclipse/spring-boot-logo.jpg;" parent="1" vertex="1">
          <mxGeometry x="119" y="52" width="30" height="30" as="geometry" />
        </mxCell>
        <mxCell id="_-kJSPt_qq9w9nPcTiiO-89" value="" style="shape=image;verticalLabelPosition=bottom;labelBackgroundColor=default;verticalAlign=top;aspect=fixed;imageAspect=0;image=https://taetaetae.github.io/images/spring-boot-eclipse/spring-boot-logo.jpg;" parent="1" vertex="1">
          <mxGeometry x="319" y="52" width="30" height="30" as="geometry" />
        </mxCell>
        <mxCell id="_-kJSPt_qq9w9nPcTiiO-90" value="" style="shape=image;verticalLabelPosition=bottom;labelBackgroundColor=default;verticalAlign=top;aspect=fixed;imageAspect=0;image=https://taetaetae.github.io/images/spring-boot-eclipse/spring-boot-logo.jpg;" parent="1" vertex="1">
          <mxGeometry x="318" y="-108" width="30" height="30" as="geometry" />
        </mxCell>
        <mxCell id="_-kJSPt_qq9w9nPcTiiO-91" value="" style="shape=image;verticalLabelPosition=bottom;labelBackgroundColor=default;verticalAlign=top;aspect=fixed;imageAspect=0;image=https://taetaetae.github.io/images/spring-boot-eclipse/spring-boot-logo.jpg;" parent="1" vertex="1">
          <mxGeometry x="518.5" y="-108" width="30" height="30" as="geometry" />
        </mxCell>
        <mxCell id="_-kJSPt_qq9w9nPcTiiO-92" value="" style="shape=image;verticalLabelPosition=bottom;labelBackgroundColor=default;verticalAlign=top;aspect=fixed;imageAspect=0;image=https://taetaetae.github.io/images/spring-boot-eclipse/spring-boot-logo.jpg;" parent="1" vertex="1">
          <mxGeometry x="518.5" y="52" width="30" height="30" as="geometry" />
        </mxCell>
        <mxCell id="_-kJSPt_qq9w9nPcTiiO-93" value="" style="shape=image;verticalLabelPosition=bottom;labelBackgroundColor=default;verticalAlign=top;aspect=fixed;imageAspect=0;image=data:image/jpeg,/9j/4AAQSkZJRgABAQAAAQABAAD/2wCEAAcHBwcIBwgJCQgMDAsMDBEQDg4QERoSFBIUEhonGB0YGB0YJyMqIiAiKiM+MSsrMT5IPDk8SFdOTldtaG2Pj8ABBwcHBwgHCAkJCAwMCwwMERAODhARGhIUEhQSGicYHRgYHRgnIyoiICIqIz4xKysxPkg8OTxIV05OV21obY+PwP/CABEIA+gGQAMBIgACEQEDEQH/xAAcAAEBAAIDAQEAAAAAAAAAAAAAAQcIAwUGAgT/2gAIAQEAAAAA2RAAAAAAAAAAAAAAAAAAAAAAAAAAAAAAAAAAAAAAAAAAAAAAAAADpfjvKAAAAAAAAAAAAAAAAAAAAAAAAAAAAAAAAdDhnxj1OafSgAAAAAAAAAAAAAAAAAAAAAAAAAAAAAAA/FiXGfEPrIuYOxAAAAAAAAAAAAAAAAAAAAAAAAAAAAAAAfON8QfgUH6ctZR+wAAAAAAAAAAAAAAAAAAAAAAAAAAAAAA8fhvzhFQO7zH7oAAAAAAAAAAAAAAAAAAAAAAAAAAAAAB02G/CiFCU9hmjvwAAAAAAAAAAAAAAAAAAAAAAAAAAAAB+bFOLeAALAfeS8u/tAAAAAAAAAAAAAAAAAAAAAAAAAAAABMe4e6sACkB+7LuSvsAAAAAAAAAAAAAAAAAAAAAAAAAAAA8xhnygCwVAFl9Bmj14AAAAAAAAAAAAAAAAAAAAAAAAAAAOrxBjz5FgCgQqU9zmTugAAAAAAAAAAAAAAAAAAAAAAAAAAHBjDE35wQBZRLFELy5Ryx+kAAAAAAAAAAAAAAAAAAAAAAAAAATwuG+mAABQQAHZZiyF9AAAAAAAAAAAAAAAAAAAAAAAAAAeewx5CAAChAVAFelzT6kAAAAAAAAAAAAAAAAAAAAAAAAAfgxJjXjAUELAUgUSofWQcw9oAAAAAAAAAAAAAAAAAAAAAAAADjxpiP8AEKASgEApBQg/RlfKfMAAAAAAAAAAAAAAAAAAAAAAAAeNwz0AELBSAoIKSiBU7jMnu6AAAAAAAAAAAAAAAAAAAAAAAHSYa8RAAAAAAAALK9bmj0QAAAAAAAAAAAAAAAAAAAAAAD8uJ8X8IAAAAoIoQAUT7yTl79wAAAAAAAAAAAAAAAAAAAAAA+cd4f60CwACwAAqBYBSB+zLmTOQAAAAAAAAAAAAAAAAAAAAADymFvN2BSCkpFgAAACkFQO8zP7UAAAAAAAAAAAAAAAAAAAAAdVhzwPyCkACwAALAKgAAV7bM3dgAAAAAAAAAAAAAAAAAAAA4MV4r/MsssKSiAsVBSAAWFQCoDlyblz9QAAAAAAAAAAAAAAAAAAACeDw509BFQApCggCoWFQpKJZYA7HMGRfoAAAAAAAAAAAAAAAAAAAPN4X8mAAoACVKgsBZQlAhSBYqPRZo9cAAAAAAAAAAAAAAAAAAA67EOOflAAABUAAAFgAAAAU97mXtQAAAAAAAAAAAAAAAAABx4wxN+MAAAUEspCwKIKRQBAAUR+jKeVucAAAAAAAAAAAAAAAAADxOGuiAAABYAAAAAAAWAAB2uZPfUAAAAAAAAAAAAAAAAA6HDPjAAAIFAlAgUllAAAAAAEerzT6QAAAAAAAAAAAAAAAAH5MQ40+BAAqBYBYAAKCAKlAIAFQKXIeYuxAAAAAAAAAAAAAAAAfGOMRdcAWAAAKShBUAAUQAABUAUj9eWcncwAAAAAAAAAAAAAAAdNgPzqCwFQFESlllQFIFEFQBRJVgBUsADu89ejAAAAAAAAAAAAAAAGunkgVAAC/syB7bvP2cHUeb8Z47iKQFQAAAL6/I3p+w/J53HfhfkCiAFHdbN/QAAAAAAAAAAAAAAD51Q4BQgAKyVmP9QDrsYYu4YAAAVAB+nOPvgPKYE60AAKQbTdkAAAAAAAAAAAAAAAmp3CUgCyoXMWVQAdHgfzkAAAAA+9g/ZAHSa2/kAApANpezAAAAAAAAAAAAAAAfOp/CpAAUe8z2AA/Pr95EEUQAKIMp5lADG2ELAABQ2l7IAAAAAAAAAAAAAABNTuIAgKDZrvQAD82t3QgAFEAH3tF2YAcerX4AAABtR2AAAAAAAAAAAAAAAD51P4QCwCndbOgAB0+t34AAAAC9/swABgXwIVCggraPtAAAAAAAAAAAAAAAHzqfwgAAPabCAAA8jrzxrAAsAB7jYAADDuKQACwptH2gAAAAAAAAAAAAAACancIpAAX22wIAAGNcJRSAAAp7nPwAGIMTFRYKihNpezAAAAAAAAAAAAAAAfOp/CAABfbbAgAAMM4tAAAAe6z8ABh/E4AABdpOzAAAAAAAAAAAAAAAfOp/EEAAr22wIAAD51+8UACglCe6z8ABiDE4CAFI2k7QAAAAAAAAAAAAAAB86n8IAAD2+wIAAB+XXLzywUgAD3WfgAMQYnEAABtJ2gAAAAAAAAAAAAAAD51P4QsUgB7fYEAAAdPrd+AAUgA9zn8ADEGJgCwAptJ2YAAAAAAAAAAAAAAD51P4QKgAe32BAAADymu/EqAABfc5+AAxBiYoCAsVtJ2YAAAAAAAAAAAAAAD51P4ggAC+22BAAABjrBsUioBSPdZ+AAw7ikLACywu0nZgAAAAAAAAAAAAAAJqdwgAUQ9vsCAAABhvFggAAe6z8ABh/FBAAAraTswAAAAAAAAAAAAAADU3iQAAHt9gQAAAPjAPiABUCx7rPwAGH8TiwAANo+1AAAAAAAAAAAAAAATU7hFQFEHt9gQAAAH5tcfPglgqFnus/AAYgxNQikLBTaTswAAAAAAAAAAAAAAHzqfwgVFIF9tsCAAAAdRrd14AAPdZ+AAw/icAAAbS9mAAAAAAAAAAAAAAAmp3CAqAD2+wIAAAA8prvxAAB7rPwAGIMTAAAqXaXsgAAAAAAAAAAAAAADU3hAAUi+22BAA+PsAAx5guUShLD3OfwAMQ4lFCCiBtL2YAAAAAAAAAAAAAACancIAAD2+wIAGL/fdkAAYbxWAAPdZ+AAw/icAUJYLtJ2YAAAAAAAAAAAAAACancUAAsD2+wIAGIfFbF/oAAfOAvDVAAe6z8ABiHEoAAA2k7QAAAAAAAAAAAAAAB86n8QgUAT2+wIAGIsSe6z59AAPza5eeQKB7nPwAGIcTAgoANpuxAAAAAAAAAAAAAAAfOp/CogCwPb7AgAYhxMyvmAAA6nW7rgKivc5+AAw9igUgFCVtH2gAAAAAAAAAAAAAAD51P4QACke32BAAxBias55EAAPM658KoA91n4ADEOJQoEAG1HYAAAAAAAAAAAAAAAPnU/hAAKh7fYEADEOJTl2K9SAAY8wXCoD3WfgAMP4nAAALtL2QAAAAAAAAAAAAAACancQgAA9vsCABiDEw7HZLtQADEGJhUK9zn4ADEWJAAAFbS9kAAAAAAAAAAAAAAA+dT+GoBUWB7fYEADEeIw9HsX+oAB84C8MAPdZ+AAxDiUFJQgG1P7wAAAAAAAAAAAAAAHzqfwlIVAF9tsCABiLEpK9xn36AAfm1y86Fh7rPwAGIMTAKQANrP2AAAAAAAAAAAAAAAJqdwgAAs9vsCABiLEiwuV8wAAHUa4ddCxfc5+AAxBiYqAFQG03ZAAAAAAAAAAAAAAAGpvElRUAqPb7AgAYhxKBc55EAAPLa7cIL7nPwAGIcSgAAsNrf1gAAAAAAAAAAAAAAJqdwgAAPb7AgAYixIA5di/UAAGPsEwse6z8ABiDE1gUCANpuyAAAAAAAAAAAAAAANTeKAAAe32BAAxBiYA7HY/uAADEWJAvuc/AAYhxKAAKE2o7AAAAAAAAAAAAAAAB86n8IUgpA9vsCABiLEgA7/Y/9QACYF8EHus/AAYgxMACwA2n7EAAAAAAAAAAAAAABNTuEsAAHt9gQAMQ4lAD3OffoAB+fXLzg91n4ADEOJbAAAG1v6wAAAAAAAAAAAAAAE1O4QsAFi+22BAAxFiQAGVMyAAHV629ae6z8ABh/E4qAADabsgAAAAAAAAAAAAAAHzqfwgqACvbbAgAYhxKAC5zyIAAeY104Xus/AAYhxKAAANqf3gAAAAAAAAAAAAAAJqdwhZUAD2+wIAGIcTBFCcuxHqwADH+CZ7nPwAGIcSgoCANp+xAAAAAAAAAAAAAAATU7hAAAe32BAAxHiMAB+/ZLtwADEWJPdZ+AAw/icFgCwG1HYAAAAAAAAAAAAAAAPnU/iQAFIe32BAAxFiQFEU7/ZD9AAD5wPx5+AAxBidBYCoBtJ2gAAAAAAAAAAAAAACancUoRUAPb7AgAYixKCKCPb5/+gAHBi3LIAGIMToAUANqP3gAAAAAAAAAAAAAAJqdw0hQhQ9tsCABiPEiKgsBlLMwAB8/QAGIMTggoANpuxAAAAAAAAAAAAAAATU7hsKgVFh7fYEADEWJLCwALnLIoAAAAxDiVUCkFCbUdgAAAAAAAAAAAAAAAmp3CBSAD2+wIAGIcTIoADk2H9YAAAAYhxKKCUATan94AAAAAAAAAAAAAACancIACwPb7AgAYixLFQAC/t2S7gAAABh7FAAAA2m7IAAAAAAAAAAAAAABNTuEAAB7fYEADEOJQAAL32x36wAAAMOYqAAAG0vZgAAAAAAAAAAAAAAJqdwgVFQU9tsCABiLEoQoQKez2B+wAAAYcxWECwFRdpeyAAAAAAAAAAAAAAATU7hBUAC+22BAAxDiUACiLLk/NAAAAMOYqsUgABtP2IAAAAAAAAAAAAAAD51P4aEoAHttgQAMQ4loBAUJc4ZHAAADDOLgAABtJ2YAAAAAAAAAAAAAACancIUgLBfbbAgAYhxKFgAAcuw3rQAABhvFkBYFIDafsQAAAAAAAAAAAAAAHzqfxARUWA9vsCABiHEpQBBYo/bsj3IAABhvFYFEAo2i7UAAAAAAAAAAAAAABNTuEBQgHt9gQAMQ4mAiiUEDv9jv1gAAMOYqApChBtR2AAAAAAAAAAAAAAACancQEKgF9tsCABiLEsAoAAPZbBfYAAGHcUlCAKDaLtQAAAAAAAAAAAAAAE1O4VCAUHttgQAMQ4mCUCUAisn5oAAAw5islIoBBtR2AAAAAAAAAAAAAAABqbwgAAPa7BgAYdxSAAFQBc1ZNAABhnFqkBQgNpO0AAAAAAAAAAAAAAAfOp/FCoWADvtmgAMD+AQCkCgB97C+vAADAPhRQhUFG0nZgAAAAAAAAAAAAAAJqdwhYFQD62g7YAOLVzrwAACwD92yPcgAH5dW/wAoqAAF2l7IAAAAAAAAAAAAAAB86n8NECkAZQzQAGNMJBQgAAsL3WxPaAAMQYmAFCAXaPtAAAAAAAAAAAAAAAE1O4QKEAPvYH2gB0GuP5AsAAUQC9nnf1oAPB4G+AAAFNpeyAAAAAAAAAAAAAAAfGqHCsABYDnzj7+g8lgbrQAABRAH1kHLHegOHFeJeMAAChtH2gAAAAAAAAAAAAAACau9UUgsFCD1mR/Ufv8Ax+bx/wCH+QAFIAAWUen9v6ftf2/l6byGPOtgUQAVF5tqucAAAAAAAAAAAAAAAx9gv5IoIAAFABKlQWAsoSgQpAsVFELCsv5YAAAAAAAAAAAAAAADzeFvKACiAABSBUAAAAAWAAsAA9Bmb2QAAAAAAAAAAAAAAAHz4DDfWAAoIAAAAKBACpSAAAAsP25dyX9gAAAAAAAAAAAAAAAD82K8V8ABUCoKgFgAFIFgFEAAAAr7yTlz94AAAAAAAAAAAAAAAADqMN+DQoABFEWFEUlBFECgAAAAevzP6EAAAAAAAAAAAAAAAAAHk8K+dAsLAAAAAAAAUAhSCkHdZk90AAAAAAAAAAAAAAAAAAfOOsPfgQAACiBSAAqAogAAAH6ssZQ5gAAAAAAAAAAAAAAAAAAfkxHjPiqAolIssqApAogqAKEpACp9ZCzB2gAAAAAAAAAAAAAAAAAAA6PDPioAAAABUAAAFIAAHq8y+oAAAAAAAAAAAAAAAAAAAAeLwv0kLBUBQhUAKAgAsVAVA7TMWQaAAAAAAAAAAAAAAAAAAAAOPGWJPyQUIFRYoAEAAohRAK5spZX/AEAAAAAAAAAAAAAAAAAAAAAPwYex18WACwCiKQKQAALLAL7vMncAAAAAAAAAAAAAAAAAAAAAA83hjycAAoQLAAFgAChD0eZPYgAAAAAAAAAAAAAAAAAAAAAE8JhrqAAABUAAWACiB2GXsj/YAAAAAAAAAAAAAAAAAAAAAAOHFmKOCABQEoAgCgShHLkzLf7AAAAAAAAAAAAAAAAAAAAAAAB12HMe/IAAAAAAAKe1zN3gAAAAAAAAAAAAAAAAAAAAAAADyuF/MgAAAAAAA7zMnuAAAAAAAAAAAAAAAAAAAAAAAAA+ceYe64RSAUEWFAEB+zLOTuUAAAAAAAAAAAAAAAAAAAAAAAAB+bEuL+OFgWAAVAAL9ZFzD+8AAAAAAAAAAAAAAAAAAAAAAAAAHTYa8NCoAKEAAU9Zmf0gAAAAAAAAAAAAAAAAAAAAAAAAAA8dhfoAAAAAB2+YvfUAAAAAAAAAAAAAAAAAAAAAAAAAAHxjPEn4QAVFIAp+jKeVP0AAAAAAAAAAAAAAAAAAAAAAAAAAAD8WI8acYAAAD69/mPtAAAAAAAAAAAAAAAAAAAAAAAAAAAAHQYX8cAAWVA9Nmj1QAAAAAAAAAAAAAAAAAAAAAAAAAAAATxGGelBUWFgdlmDIn0AAAAAAAAAAAAAAAAAAAAAAAAAAAAA48V4o/MAWKOXJuW/1AAAAAAAAAAAAAAAAAAAAAAAAAAAAAA6zD+PfioCj2+Ze7AAAAAAAAAAAAAAAAAAAAAAAAAAAAAAHmcLeWVAvfZn9kAAAAAAAAAAAAAAAAAAAAAAAAAAAAAAB8+Cw31Sj9uXMlcgAAAAAAAAAAAAAAAAAAAAAAAAAAAAAAA/NizFXA5Mk5d/cAAAAAAAAAAAAAAAAAAAAAAAAAAAAAAAA6nG3xkH0IAAAAAAAAAAAAAAAAAAAAAAAAAAAAAAAAAAAAAAAAAAAAAAAAA//xAAZAQEBAQEBAQAAAAAAAAAAAAAABAMFAgH/2gAIAQIQAAAAAAAAAAAAfH0AAAAAAAAAAAAAAACWP5ZV9AAAAAAAAAAAAAAAMIsx7u3AAAAAAAAAAAAAAB4hwAbXaAAAAAAAAAAAAAAPkcvwAKrPQAAAAAAAAAAAAATReQAHqyoAAAAAAAAAAAABjFkAADS7YAAAAAAAAAAAAeIpwAABvd7AAAAAAAAAAAB8kk+AAAA+1WfQAAAAAAAAAACeLwAAAAPVtIAAAAAAAAAAMosQAAAAGt2oAAAAAAAAADzFMAAAAACmz2AAAAAAAAAPksfwAAAAAB9rr+gAAAAAAAAYQ+AAAAAAAe7aAAAAAAAABnFgAAAAAAANrtAAAAAAAAfIpQAAAAAAAFVv0AAAAAAASRAB6s39eMJfAAAaW7eZowAWWAAAAAAACOMAeun7D5BOAAeup6E0AAV2gAAAAAACOMAWWAObiAAssByfIArtAAAAAAAEcYAvpAeeZ4AAvpBzMgBXaAAAAAAAI4wBfSAZ8z4AC+kHMyAFdoAAAAAAAjjAF9IAx5oAL6QczIAV2gAAAAAACOMAX0gBLCAF9IOZkAK7QAAAAAABHGAL6QAQygC+kHMyAFdoAAAAAAAjjAF9IAHNxAL6QczIAV2gAAAAAACOMAX0gAeebmAvpBzMgBXaAAAAAAAI4wBfSCOwDxzPIF9IOZkAK7QAAAAAABHGAL6QczW4DHmgX0g5mQArtAAAAAAAEcYAvpBzMrqgJYQX0g5mQArtAAAAAAAEcYAvpBzMnS2AhlC+kHMyAFdoAAAAAAAjjAF9IOZk9dP2BzsBfSDmZACu0AAAAAAARxgC+kHMyNOn9B85mZfSDmZACu0AAAAAAARxgC+kHMyG3SA8czyvpBzMgBXaAAAAAAAI4wBfSDmZBVcBjzV9IOZkAK7QAAAAAABHGAL6QczIF1QEsN9IOZkAK7QAAAAAABHGAL6QczIDpbARaUg5mQArtAAAAAAAEcYAvpBzMgPXS0A8ewczIAV2gAAAAAACOMAX0g5mQD30/QAHMyAFdoAAAAAAAjjAF9IOZkAbdIADmZACu0AAAAAAARxgC+kHMyAFVwAOZkAK7QAAAAAABHGAL6QczIALqgA5mQArtAAAAAAAEcYAvpBzMgAdHcAczIAV2gAAAAAACOMAX0g5mQAPvT0AOZkAK7QAAAAAABHGAL6QcvMAD30/QDl5gCu0AAAAAAARxgDfoh45QABt0foM+WAFdoAAAAAAAjjAC6o887IAAa3ajxzswArtAAAAAAAE/PABrr8w8gAAaa/fGAAF9IAAAAAAAYw5gAAAAAAA0t3AAAAAAAASx+QAAAAAAH2ysAAAAAAAAPMcoAAAAAAKrPQAAAAAAAADOLAAAAAABtbqAAAAAAAAADCHwAAAAAPdtAAAAAAAAAAB8lj+AAAAA+11/QAAAAAAAAAAeYpgAAABTZ7AAAAAAAAAAAGUWIAAANbtQAAAAAAAAAAAE8XgAAB6tpAAAAAAAAAAAAD5JJ8AAH2qz6AAAAAAAAAAAAA8RTgAN7vYAAAAAAAAAAAAAMYsgBpdsAAAAAAAAAAAAAAJovIPVlQAAAAAAAAAAAAAAHyOX4VWegAAAAAAAAAAAAAAB4iWaAAAAAAAAAAAAAAAAAAAAAAAAD//xAAbAQEBAQADAQEAAAAAAAAAAAAABgUBAwQCB//aAAgBAxAAAAAAAAAAAAB8PsAAAAAAAAAAAAAAAHE/M8UtD9AAAAAAAAAAAAAAAGVKeIeur1wAAAAAAAAAAAAAAeSVxwGrV+0AAAAAAAAAAAAAB1zU78gD636ftAAAAAAAAAAAAAHGFMecAB3U+/yAAAAAAAAAAAABmymeAAD3VeoAAAAAAAAAAAAPNLYvAAADnYqvUAAAAAAAAAAAD4nJv4AAAB90VJ2AAAAAAAAAAAGLLeUAAAAeip2+QAAAAAAAAAA8EpmAAAAANGr0QAAAAAAAAAHRMYPAAAAAA526n0AAAAAAAAAD5n5nqAAAAAAdlJR/QAAAAAAAAGRK+MAAAAAAHqqtkAAAAAAAAeOUyQAAAAAABqVfuAAAAAAAB8S8/wDIAcuAAABy4ADnfqewAAAAAAATsoAHop9bs82VPeUAAPdVaPXhzHyAFPTAAAAAAACZmAB33vpD4kMQAA9N/wBowo8AKKrAAAAAAAEzMACnpgOIjKAAVFKD8684AoqsAAAAAAATMwALLbAdUJ4gALPaBCZoAoqsAAAAAAATMwALLbAPJB9IALPaBCZoAoqsAAAAAAATMwALLbAGXEfIAWe0CEzQBRVYAAAAAAAmZgAWW2AGBIgBZ7QITNAFFVgAAAAAACZmABZbYAJSdAFntAhM0AUVWAAAAAAAJmYAFltgA4ickAs9oEJmgCiqwAAAAAABMzAAstsADqhPEAs9oEJmgCiqwAAAAAABMzAAstsE3R8g8kH0gWe0CEzQBRVYAAAAAAAmZgAWW2CF99WBmQ/yCz2gQmaAKKrAAAAAAAEzMACy2wQubXbwGDI8BZ7QITNAFFVgAAAAAACZmABZbYIXM+rjTAlJ0LPaBCZoAoqsAAAAAAATMwALLbBC5jvvPUDiKyBZ7QITNAFFVgAAAAAACZmABZbYIXMPbd9oOuD8RZ7QITNAFFVgAAAAAACZmABZbYIXMGtbcg8sH0LPaBCZoAoqsAAAAAAATMwALLbBC5gUVWBmQ/zZ7QITNAFFVgAAAAAACZmABZbYIXMBX7wGFIWW0CEzQBRVYAAAAAAAmZgAWW2CFzAfVxpgSuhtAhM0AUVWAAAAAAAJmYAFltghcwDuvPWDjzeoEJmgCiqwAAAAAABMzAAstsELmAPbd9oAEJmgCiqwAAAAAABMzAAstsELmAGtbcgAg84AUVWAAAAAAAJmYAFltghcwAUNYACDzgBRVYAAAAAAAmZgAWW2CFzAArt8AIPOAFFVgAAAAAACZmABZbYIXMAD6t9QAQecAKKrAAAAAAAEzMACy2wQuYADuvPWAQecAKKrAAAAAAAEzMACv3gQWeAB7LztAQPgAFFVgAAAAAACZmABs2gef88+QAGrbfQPJ+fcACiqwAAAAAABMzAA5rd86ovLAAGjW+8eWK8IAUVWAAAAAAAMeL4ADR0evI6AAAc+739nky/gAFhugAAAAAABmSngAAAAAAAB7arWAAAAAAAA4wZjoAAAAAAAdtPv/QAAAAAAAA6pmf8AkAAAAAAc79P3AAAAAAAAAPHKZIAAAAADUq/cAAAAAAAAADIlfGAAAAAPVVbIAAAAAAAAAB8z011AAAAA7KSi+wAAAAAAAAAAdExg8AAAAOdup9AAAAAAAAAAAA8EpmAAAA0avRAAAAAAAAAAAAYst5QAAHoqdvkAAAAAAAAAAAAfE5N/AAA+6Kk7AAAAAAAAAAAAAHmlsXgADZqfWAAAAAAAAAAAAADNlM8Ae6r1AAAAAAAAAAAAAADjCl+gHdT7/IAAAAAAAAAAAAAAOuanfl9b9P2gAAAAAAAAAAAAAADyTHzT+0AAAAAAAAAAAAAAAAAAAAAAAAf/xABOEAABAwEDBggKBwcDBAEFAAABAgMFBAAGEQchMEBBchIxMzZRYHOxExQiMkJSYWJwcRUgIzRQU4EQJCU1Q3TBVGORRICCspJkg5Oiwv/aAAgBAQABPwD/ALKjaqvHBUiih6RZChxgKxNqa88BVLCW5JnE8QJwsFBQBBxB4iPhVjrUzeSKh0Y1L2LmxpOdRtPX2lJUrabUaenPoIOc7x/bA3vloZSUoc8KxtZXnFoS9sRMpQhpYafwztL4yfZ+A4/CCukaKPZU9VvoaQNpNp7KLUP8NiLSWm+IvHzzZ1115xTjqytajiVE4k/VSpSFBSVEEcRGYi0BlDkKAIYrgahj1vTFo2YjJRgO0dQF9Kdo+Hq3G20KWtYSkDEqJwAFp/KFSUhWxGAPu8Rd9AWkJOukXi9V1CnFHp4h8hoaSsqqN5L1M8tpwcSkm0BlISsIppZAT/vpHeLMv077KHWHUuoWMyknEfCDNrU7fSKiQptKvD1H5aD3m03eiWmVnw7xS1jmaRmTpYiflId0LpHyE452znSbQF/IyS4DNVhTPnp8xXyNgQoAg4jVM3183wbl5+Mh2uHVvgKI8lsZ1K+QtPX7kpLhM02NNT9CfPV8zY4kknUIG+ktEYNlfh6fa2s9xtBXoiJpADDpQ96bS8y/hnVVlLRsqeqXkNNjjUo4Wnso6zw2IhPB2F9Q/wDUWfqH6h1Tr7qnHFZypRxJ1NDi21pWhZSpJxCgcCLQGUSppuAxKJL7X5o5QWoJKPkacPUlQl1J48OMfC9SkpSSogAZyTxC0/lAoKHhs0AFS/63oJtJzEjKvF2sqFLOxPElPyGr0EjWx76X6R9bSxtSbQGUamf4DEqgNObHgPJNm3GnW0uNOJWhQxCknEHrvh+Kzl7ImHSUuOeFf2MoPfadvfLTGLa3S1T7GUZh+utwl5pWGcBpniW8c7Ss6DaAvrEy4S04oU1R6izmO6dNh8G5SZjopku1b4R0J41H5C09lAr63hs0ANMx63pqspSlqKlKJJ4yddBIOItA37k4vgNP/vNOPRUc4+RtC3hiJhrhU7/l+k0rMsdds/1M+kz/ALM/1s9s+q57VFQxTNKdfdS22njUo4C07lHS3w2YhOKvz1DuFqqrqax5T1Q8pxxXGpRx/AWXnmHEuNOKQtJzKScCLQGUd1stsS6S4jY8njFqOto65hL9LUIdQdqTo8+sZ7Z/259Dn64khIxJtP37jY3hs0pFTUezzEm0tPScu6V1T5I2IGZI/BY2WkIt8PUdQptW0DiPzFoHKJQ1vBZkgGHti/QUbIUhaQpCgpJ4iDiD8Hpu88VDIPjDwU9sZRnWbTt85aWKmwssU5/poPefwmDvXLQywGXi4ztZWc1oG+EVMpS2lYYqNrSz3fBuQk6GNYL1W+ltHtOc/IWnsotVUhTEYksN7XT55s4446tS3FlSlHEknEn8LSSkggkEcRFoDKBIx/BZrR40x7fPTaKm4yWY8LR1IWcM6DmUPmPgu660y2pxxaUISMSonAC09lFp2OGxFpDrm15XmC1dIVkg+X6t9bqztJ7vw+mqqikeS9TvKbcTxKScDaAykZkU8un2B9HeoWp6umq2UPU7yXG1DMpJxHwUnr7RcUFNNqFRUeok5hvG01eSVmXMal4hsea0nMgficTOycO+HaOoKOlHGlXzFoC/sbI+DYrSKV//APRVgQoAggg7R8EJi8MXDtFVU+OH6Lac6zaevzKSfCaYJpqc+ik+UfmbE4/i0DfKWh1JQHC8xtaWe60FeuJmG8GXfB1G1peZX6fA2srqOhYL1U+hpA2qNp7KM65w2IpBQn85XH+ln33qh1TrzilrUcSpRxJ/GULW2sLQopUk4gg4EWgMotbSBLEkDUM+v6YtHSkdJ04eo6gODaNo+Y1Idd1rbbQpa1BKQM5JwFp7KHQ0nCYjkh97av0BaSlpCTeL1XUKcJ4hsHyH47RV9ZQPpepX1NLG1JtAZSGXQGJZAQo/102ZfZfaS6y4lxChiFJOI+A07fCKh0qQXPDVGxpB7zabvTKzKyHneAzsZRmT1Bh7wykO6F0j5Ccc7as6DaAvzFSgSy+RTVJ9FR8k/I2HwClZuNiWS5V1AR6qBnUr5C09f6RkOGzR40rHsPlqsVFRJJJJ2nqJAX5logobcV4zTD0FnON02hryRE00nxZ0JdHnNqzLHX+pqqelZU9UPIbbTxqUcBaeyjeexEo9hfWO4Wqaqpq3lPVDy3HFcalHHqO086y4lxpxSFpOIUk4EWgco9SwAxKILreYeGT54tQ11FX04fpalDqD6vcevaiEgkkADjJtPX+jY8LZo8KmoGb3E2lp2Tl3fCVdQVD0UDMlPyHUuOla+MfD1HUKbWOjiPzFoHKNR1QQxJoDLvF4T0DZtxpxsLbWlaVDMRnHXibvVFQySHnfCPbGUZ1Wnb4SswVIK/A0+xpB7z1PhLzysKseLvcJra0vOk2gr5xUuEtlfi9T+Ws5junrrIytBGMF6rqEtp2A8Z+QtPZQq2r4bEcCwyfT9NVlrWtRUtRUo8ZJxPVEEggg4G0Bf2SjQliqxqaf2+en5G0TORcuz4SkqAVbWzmUOuLzzLDanHXEoQkYlSjgBadyjNNcNmKTw1/nK4v0tW19ZXvKeqn1OrO1R6q09TUUrqXWHVNrTxKScDaAykLQUMyyOGNjybUtXSVjCH6V9LqFDMUnrabTt+YqL4bTJ8ZqB6KD5IPtNpm8UpMuFVU+eBj5LScyB1Zi5mRiXg7R1Ckesn0VfMWgcoMfXpbp6/Cme2K9BVkqCkgpIIIxBHWqZvJFwzf7y+C4R5LSc6jaevtKSvCabUaemPoJOc7x6uwN8JeFUEtu+FY2srOa0De+ImEJQh0Mv7W15lfp9THT49VKyQoaBkv1lQlpsbT3C0/lEqX+GxFpLLe15XnmzrrjzinHVqWtRxKlHEnq+lSkqCkkgg4gjMRa7+UGvoChmuBqWPW/qJtGS8fKseGo6hLg2jiUn5jrGtxttClrWEpAxKicALT2USkpeExGJD7u10+YLSMrXyb5erKhbq/acw+Q6x0dbV0L6X6V9bTieJSThaAykpPAYlUBJ4g+n/IsxUMVDSXWHUuNqGIUk4g9YJ2co4WiNS/nJzIbHGtVpu9ErMrIedKGdjKMydbxFuEnpFsR0/huItwh0i2I6dbh7wSkO6F0j5CdrZzpNrtXlpJ6jKkpDb7fKtnvHV++cwuTm38FfYsEttj5cZ1mij66vdDVJTLdV7ozC0bk0r3gFV1UlgeojylWpMnt3Kfz21vq99VmbuQLAAbjWMd230XF/wCgY/8AgLPQEG6PLjmDj7gtU3Guw+nNRBs+4cLVuS+hUCaSucbPQvyrSNwbw0QK0NJqEDa3Z1l1lZQ62ptY40qGB/B4e5M3KBLngvAMH03LUGTeFp0pNUtyoX88BZi7cFTcnGsD/wAbGMitkex8+CLVEBB1CcHI1gndtX5O7v1IUplK6dWwoNpjJ/M0AU5T4VTQ9TzwLKCkqKVApI4wcxGs3flnYiVpqpCiEhWDg6UGyVpWlKk8SgCP16uuck5um1QSX3ifXV36xdq4D1YlFVJ4tMnOlr01WpKGioWUsUjCWmxsA49DXxEZJNFFXSIc6FEZxacyauthb0U94QfkrOe1RTv0zqmX2lNuJOdKhgR+B0tLUVlQ3T07RcdWcEpFrs3HooxCKitAfq/bnQjQXhujGTTZWEhmq2OpHfaViq2Jq101W2UrHEdih0jWYZRVDx5UcVFhOPV13kXNw91n+Xd31d+r3KuaGktScg3i4c7LJ9H3jpZy7sZNMqTUNAOAeQ4nzk2vDdmQgnyl5JWyT5DwGY/gLaFuLQhCSpaiAkDjJNro3XahaUOvAKrHR5avU90aK8UBSzlApl0BLqc7Lg9E2raOooap6lqEcF1pWChrEJh9DRv9ujq66MWndw2f5d3fV36tcS7wk681b6MaamPFsWvT1dJTVlM7T1LYcaWMCk2vXdV+DqeG3iujcUQ2vo90/gGTiBS++uVfTiho8Bne2nSZRYAVNEmUYR9qxmd9qNYg/wCSRuf+gjq66AGXNw91n+Xd31d+qgEnADEm124tMVC0dNgAso4bntUrUK+ipK+jdpH2+G24nBVrwQVTCV66d3O2c7TmxSdeShS1pQnzlKCR8zmtC0CI6Jo6NIw8G2OFvHj0jzTb7LjLicUOJKVD2G0pRLoJGrpF8bTqk6vB4fQkbj/p0dXXeSd3D3Wf5d3fOq3cpPHJyOYPEXkk/JOfUp2EpJugcpXwArjaXtQq0lHVUbWPUlSjguNn/kdI1261IKu8Ma0RiPChR+SdNlGpQzeEujifZSr9Rm1eD/ksbn/6dHV10YNObh7rP8u9vq79VuAkG89H7oWdTvfdpuco+G0gJq2hi2r1vdNnWnGXFtOoKFoJCknjBGuZPEg3opydjS9NlUbArow/7Chq8Jnh432U6Orro+xd3FWf5d3fPfquT3nPS7i9UvzdLx1tcnRN/boTi6gemNcydc52OyXpsqowq4vsVavCfyWNz/8ATp6uuj7JzcPdZ/l3t9XfquT3nPS7i9Vv5dLxVSpWiR9is4voHon1tbydc52OyXpsqpUauMxH9JWrwZ/g0b2CerrvIun3Fd1n+Xd3z36rk95z0u4vVXG23G1NrSFJWCCDxYG18rquQdYXGUk0bp8g+ofVOtZOuc7HZL02VXNVxfYq1eE/k0b/AG6Orro+yd3DZ/l3t9Wq5Pec9LuL1auoqWupHaWobC23E4KFryXfqYKvVTuYqaVnac2KTrOTrnOx2S9NlVAFXF9irV4P+TR3YI6uuci7uHus/wAu7vnVcnvOel3F6vOwtJNRzlK/mVxtr2oVaSjqqMrXqSpQUuNn9COkaxk65zs9ivTZVRhVxfYq1eEJ+hY4f/To6uu8k7uHus/y72+rv1XJ7znpdxesXtuu3O0QW0EisaBLSun3TZ5l1h1bTqChaFFKknjBGr5Ouc7HZL02VQYVUV2KtXhD/BY3sEdXXeSd3DZ/l3d9Wq5Pec9LuL1m/V1BXsmRom/3ltP2qQOUSNXydc52OyXpsqP3mL7Jffq8Gf4LHDD+gjq66MGXPahXdZ/l3d9XfquT3nPS7i9av7dHxZa5WhR9ks4vtj0T6w1bJ1znY7JemyqnGri+yXq8J/JY3+3R1de5JzcNn+Xd31d+q5Pec9LuL1paG3ELQtIUlQwIPEQbXyuq5C1Xh2EE0bx8n3D6uq5Ouc7HZL02VQAVUX2KtXg8PoeP7BHV13kXdw91n+Xd3z36rk95z0u4vW62jpq6kepahsLacTgoG15LvVUDIKp3AVNKzsubFJ1TJ1znY7JemyqjCrix/sq1eEIMNG5uKnR1de5JzdV3Wf5d7fV36rk95z0u4vXJyFo5qPcpXxgcCW17UqtJxtVF1r1JUowcQf0I6RqeTrnOx2S9NlUAFXF9irV4T+TRuf8A6dHV10fYu7hs/wAu7vq79Vye856XcXrt7bsszlDi2AmraBLa+n3TZ5l1h1xl1BQ4hRSpJ4wRqWTrnOx2S9NlUzVUV2KtXgjhDR2HH4ujq69yTm6e6z/Lvb6u/VcnvOel3F6bht8MN8McMjEJxz4ahfu6YkGVSVE3hUoBK0/mJ1LJ1znY7Femyr56yL7JWrwhP0LG9gjq67yLu4bP8u7vnVcnvOel3F6a/cpVxExDVdOohaErxGxQ6DaGmKSXj26qnUM4wUnalW0ahf26fi63JWhb+xUcX2x6Hvajk65zsdkvTZVMPGorsVavBn+CxwH+nR1de5FzcNn+Xe31d+q5Pec9LuL02VUYVMT2S7XYvFUQVel1OKmF5nm+kWpKumrKZmpp3OG04kEHTqShaVIWkKSoEEHPiDa+d1FQ1T4xTJJonT5P+2fVOoZOuc7HZL02VYAVkX2StXg88NHdgjq65yTu4bP8u7vnVcnvOel3F6bKt95ieyX+y5d6lQ9UKWpUTRPKGPuHpslSVpStKgQoYgjT1lJTVtK7TVDQW24nAi15Lv1MFIKYcBLS8SyvpGnydc52OyXpsq2HjkZ2S9XhFH6EjQP9Ojq66PsnNw91n+Xe31d+q5Pec9NuL02VX71Fdmv9tw72+DLcRXu/Z8VOs7D6p1CchqOZjnKV8eUc7a9qDaUjKqLrXaSpRgtBzHYobCNNk65zsdkvTZU8PGorsVavB4fQ0d2CerrnIu7hs/y7u+rVcnvOel3F6bKqMKmL7Nf7QSCCDa497PpFlMdWL/emk+Qs/wBRI1C9V2WZ2h8kBNW0CWlf4Nn2Hqd5xl5BQ4hRCknYRpcnXOdjsl6bKt98i+xVq8IvCDjUjbTox6uu8k7uHus/y72+rv1XJ7znpdxemyrHGpieyX9Rh96nebeZWUONqCkqHGCLXUvM1O0PlkCraADqP8jUL83TEiwZGjQPGkAlaB/USLEEEg5jpMnXOdjsl6bKpgauL7Ferwav4LGgH+gjq66R4F3cNn+Xd31ark95z0u4vTZVc1TE9kv6sXJ1cVXM1lMvBaD+ih0G0LM0cxHtVVOc5zOI2oV0ahf66BYU5K0TX2Z5dA2e8NJk65zsdkvTZV/vsZ2StXg1fwSOH+wjq65yLu4bP8u7vq79Vye856XcXpsrH3uL7Nf1rtXgqIOvS8nFTKiA630i1HWU9bTNVNOsLbcGKSNOpKVpUlSQUqGBBtfS6yoaqNTTpJonjm9xXq6PJ1znY7FemyrffIvsVavBrwg41P8AsJ6uvZ2nfYg91n+Xd31d+q5Pec9LuL02VbAVUV2S/r3MvSuHqRTVCiaN5Wf3D0iyFIWhK0KCkqGIIzgg6eso6etpXqWpbC2nU4KFryXfqYKvUyvFTK87LnSNFk65zsdkvTZVRhVxfYq1eBWEQUb0lhHV10JDLvTwD3Wf5d3fPfquT3nPS7i9NlXONXF9mvQXDvb4LgRNa55B5Bw+j7uoTUNSzNA5SvgdKF7UK2EWlYuriq52kqkFK0H9FDYRocnXOdjsl6bKqMKuL7FWrwnB+hI7Hj8XR1de5JzcPdZ/l3t9XfquT3nPS7i9NlVwFTFdkvQA4Zxa417BIsiOrXP3pseQs+mkaheq7bE5Q4JATVNAlpf+DZ9h6mecZeQUONqKVJOwjQZOuc7HZL02Vb75F9irV4BSUwcaT+Qnq66B4F3cPdZ/lnd89+q5Pec9LuL02VbHxqL7NehZedYebeaWUOIUFJUOMEWunedudocFrCapkAOo6feGoX4uomSZVXUSP3ppPlJ/MSLEEEgjAj6+TrnOx2S9NlVGFXF9irV4TPCxv9ujq69yTm6e6z/Lu76u/VcnvOel3F6bKoCKmK7Jeii5Oqi61mrpV8FaD+ih0G0FN0kzQoqmDn4lo2oVtB1C/l0SgLl6BryDy7Y2e8Pr5Ouc7HZL02VYAVkX2KtXhFD6CjRt8Ajq66MGndw91n+Xd3z36rk95z0u4vTZV89VFdkvR3enqmDr0vt4qaVgHm9ik2oq2mrqVmpplhTTiQQdOpKVJUlSQQRgQbX2uoqHqvGqZBNG8ejk1HZ9bJ1znY7JzTZVBhVxXYq1eEzwkYAf6COrr3JObh7rP8u7vq79Vye856XcXpsqowqYnsl6S5d6lwtWGH1E0bx8r3D02SpC0JWhQUlQxBHEQdPV0lPW0rtNUNhbTicFC15bvVMFXqaUCWF52XOkfVydc52OxXpsq33yM7FWr3fSlUJGYjiYR1dcB8C6fcNn+Xd31d+q5Pec9LuL02VfNVxXZr0tw72+AW3FVzn2Sjgy4fR93UJmHpJigdpahPtQvalWwi0tF1cTXO0dSnBaDmOxQ6R9TJ1znY7JemyqfeorsVavCH+CRoB/oIzdXXeSc3D3Wf5d3fV36rk95z0u4vTZVlBVVF9mvTXEvX9IMpjKxz95R5iieUSNQvXdpmeocEAJqms7S/8AFn2Hqd5xh5BQ42opUk7CP25Ouc7HYr02Vb73F9irV4PAwcZn4mE9XXeRd3DZ/l3d89+q5Puc9LuL02VY41UV2a9My87TvNvMrKHEKBSocYItdS87M5RYOKCatoYOo6feGoX2uj9JsKkKNvCqbHlJA5RNiCCQRgRmI/Zk65zsdkvTZV/vsZ2StXhFfwSMSP8ATox6uvck5uK7rP8ALvb6u/VcnvOel3F6bKx97i+zXp42SqoytZq6ZZS4g/oR0G0HN0s1Ht1LGZXE4jahWoX9ukUcOXomvJOeobH/ALj9mTrnOx2S9NlTGFVFdirV4M/wOMGP9BOPVTH6uP1HT9k7uGz/AC7u+e/VcnvOel3F6bKvnqorsl6hdyfqYKQRUNeU0ogOt7FC1DWUlfRs1VO5w0OjEHTqSlSSlQBBGBBtfa6hiKk1dKkmidV/+NXRbJ1znY7JemyrZ6yM7JWrwh/g0d7KdH18f249U3eRd3DZ/l3d9XfquT3nPS7i9NlX+9xfZr1G5t6lwtV4B9RNE8fLHqH1rIWhxCVoUFJUAQQcQQdPVUrFXTPU76AttxJSpJ2g2hLuPwV9Gm1AmncZcLS9NlVONXF9irV4NeEHGpH+nRj1de5J3cPdZ/l3d9XfquT3nPS7i9NlY+9xfZr1K4l7PFlJiq1f2SuQWfQPq6gUpUUkpGKeI7Rpsqv3uL7FWrwa/wCCRqdni6OrrvIu7h7rP8u7vq79Vye856XcXpsq33qK7Jep3Evb4+0mNrl41LScGVH0wNdyrACsi+xVq8GUiDjhxk06Orrudpz2IPdZ/l3t9XfquT3nPS7i9NlW+8xXZL1Nl51h1t1pZQtCgpKhxgi10rzMTlFwXCE1jQAcT0+8NcyrACsi+xVq8EtIg44cZ8Anq66E+Bd3DZ/l3d89+q5Pec9LuL02VY41UV2a9UjpGqjaxmrpllLjZ/QjoNoCcpJqNTUsnBXE63tSrW8qZ/fIzsVavB8D6EjunxdH7c3Vp3kndw91n+Xe31d+q5Puc9NuL02VbNUxPZL1W7s9UwcgiobxLZzOo2KFqGtpq+kaqqdwLbWMQdayq/zGM/tz36vB4fQscMM/gEdXXUnwLu4bP8u7vq79Vye856XcXpsqxxqYrsl6tc+9K4WrDT5KqN1Xlj1D6ws24262hxtQUhQBBHEQdZyqkGRjCP8ATq79Xg+D9CxuHH4ujq66MGXNw91n+Xd31d+q5Pec9LuL02VUYVMT2S9XuHevxVxEVWuHwC1fYrJ8w9Gs5VBhIRf9se/V4PAwsb7KdHU7P+zP+3PonQQ07uGz/Lu7579Vye856XcXpsquAqYnsl6xca9ormkRtcv94b5Je1xI1jKj9/jOwV/7avBqV9Cxo2eLo/bn/Zn+tntntntn6nup+xd3D3Wf5d3fV36rk95z0u4vTZVcPGYnsl6w064y6h1tZStBCkqGYgi10LztTdGEOkCsZADiekeuNXypjCQjP7dXfq8JnhIzPxU6errnJO7h7rP8u9vq79Vye856XcXpsq33mJ7Jesx0hVRtYzV0yylxs4/MdBtAzdJNR7dSwcF8Tre1KtWyqZpCL/tj36vBn+DR3YI0ufqg7yTu4e6z/Lu76u/VcnvOel3F6bKrmqYnsl61d2fqoKQRUs50HM63sWm1BIUsjSM1VMoKbWnEH/B1XKqSZGM/t1d+rwiv4JGJH+nRj1Yx+q4R4J3cPdZ/l3t9XfquT3nPS7i9NlXz1UV2S9budehcHWht7yqN0/aJ9U+sLNuNutocbUFIUkEEcRB1TKt/Moz+3V36vBn+Dx3YI6uu8k7uHus/y72+rv1XJ7znpdxemyqjCpieyXrlwr3GicTF1rp8XWcGVn0DqmVUYSMYOimPfq8GrCEjQD/QRj1ddOLTvQEGz/Lu76u/Vcn6gLz0mO1KxpsqSgamLTtDa9duLewVbaIytX9ugYNLPpjU8qZH0lGpGynPfq8Gr+DRw6GEd3V10DwTu4e6z/Lvb6u/VbsVYpJ+NePEHgk/+WbTZSKpLt4PApOZhkJ11txxpxDjaylaCClQ4wRa596W5qj8E8oIrGQAsesPWGpZQ6sP3jdaBxDDaUavB4fQ0b0+Lo0Wbqm6fsXdw2f5d3fV36qlSkqCknAg4g+0WgZBEnEUdWk51NgK3k5iNI86hhpx1ZwShJUT7BaVrlyEjV1aicXXCoY9GvR9fUx1Y1VUyylxs/8AI6DaBm6Waj0VLOZYwDqNqV6hW1TVFSP1LpwQ0gqP6Wrapysq6ipcOKnXCs/rq8IofQkaP9hHV10DwTu4e6z/AC7u+rv1bJvPikq1xr6sEP52idi9JlDnhTUYjGF/av8AKe6j8Agp2shK1NTTqzcTiNixaGmKKZo0VNK4OhaDxoPt0+US8aXCIimXmSQp89ydYhMPoWN6fF0dXXh9k5unus/y7u+rv1ZClIUlaVEKScQRsItc+9TUzSpp6hYTWtDP74G0aK8M/SwlCp50guqBDTe1RtW1tRXVb1VULKnHFYk/gMVL10TVJqaR0pUOMbFDoNru3wjZlCG1EMVW1onj3Tpb4XuaiWV0lKoLrVj9G/abLWtxalrUVKUSVE5ySdYgl4Q0dhxinQOrrvJObiu6z/Lu76u/V6eofpX232HC24g4pUOMWuxf2lrwimkVJZqQMErPmLsCCAR9e8N8I2GQpAUHqrY0nZvWlZWtlqtdVVucJZ4hsSOgfgaVKSoKSSCOIi0FlCkqAIZrQapkbfTFom8sLKoHi9WgL/LX5KtDUVLFM0p191LaE8alHAWvHlETgumiPkqoP/8ANnHFurU44sqWo4qUTiSdZg/5NG9gnq6oApUDtFpuhcoJatplpIKHVYfI5xrMNfObiQlCH/DMj+m5aPylxDyAisYdYVtI8oWp70XdfwKJJo/M4WE1C4YfSTA6fKs/eSBYxLkkyPkq1blFgqcEMFyoV7owFpi/0zXhTbBFK0diPOsoqUSpRJJ4yc5P4MCUkKSSDsIzG0dfG8EeAlusLiB6DnlWocqOysj/APybNqXKFdp7Mp5bR99JFmrz3fd8yTZ/5smZhdskx/8AIWdvJAs8pJMDD3rVV/7tU48l9bx9xNq/KfUKBTH0Qb99y0jMScm4V1lUtz3eJI/TWqancqahphsYrcWEp+ZtSMJp6WnZHE22lP8AwOr1+rpvSTQr6RvGpaTgtA9NNloUhSkqSUqBwIOYjWsLYDoFsB0fhuAtwR0C2A6NcAJIAtcO6jrLiZStbKVYfYNn/wBj1gnLoRMylSnEeBfA5VA77T1z5eFUpTjRdY2OozjrLC3alZlwCmZIb9J1WZAtA3Ki4ngurSKio9dYzDdHWJSQpJSpIKSMCCMQbT9wI+v4b9BhSv8AGU/01Wk4eQini1WU6mzsVxpV8j1hoY+tkHwxSMLdWdiR32gMndNT8B+UIec/JHmCzTTTSA202lCEjAJSMAOstXRUlawpmqYS6hXoqFp7Jq4gLfiXOGPyFcf6WqKd+mdU0+0ptaTgUqGB6uttuOrShtBUonAADEm0Fk6rKkIfk1Fho8TQ882j4ygjWAzR06Gk7cBnPzPVvHTTMHFzLZRVU4xA8lYzLFp+4UnG8N2lxqqcbU+ePmLEYHAjq1BXMlZYpcUjwFP+YsZzui0JdmKhkDxdrhO4Z3l51H6uOixtj1dvBcuIluG4hHgKj8xH+RaauxLQyz4wyVNbHU50nqvEwMnLu8CkYJG1ZzJFoG4kbG8B6pwqagbT5iT7BYAAAAdb1obcQpDjaVJIzgjEG09k6pKvhvxavAu7Wz5htIRldGvlmrYU2v2jMfkeqdJRVVa+limYW64riSkY2gcnTbfAflVcNXGGE8Q3jZinYpmktMNJbQniSkYDrnXx9DIsFmrp0uI9otP5Oamn4b8WsvN7Wj54s606ytTbqFIWk4FKhgR1PSlSlBKQSTmAFoHJ/X1wQ9XE0zJ9H0zaLh46KZDVHThHSr0lfM9d5y7cRNIPjDODmx1OZQtPXHlYkKebT4xTeugZxvCx6mQVz5eYwcQ14Kn2urzC0HdKJhgFIb8K/tdWO7r3P3GipULeYIpqnpSPJUfaLTF3pSHcKapghGPkupzoV1Ji4eRlXvBUdOpZ2q4kp+ZtAXAj6AIeryKmoHo/002SEpAAAAAzAdfXmmX2lNOtJWhQwIUMRafycMOcN+Jc4CuMsK4rVtBWUD6mKphbTidih1Fp6d+pdS0w0pxxRwCUjEm0Dk5UrgPyy8P9hB7zalpKWjZSzTMoabSMAlIw+AMlFR0owWaymS4NhPGn5G0/k8raLhvx6vGGdqPTTZaFoUUrSUqBwIIwI6ggEkADEm0DcSSkuA9VY01P7R5avkLRMDGRDXApGADtcOdavmfgLO3UiJlClON+Cf2Oo47TlzpaIKllHhmNjqPx+FuvKzCx4BrgNbXV5k2grlxUSEuLR4eo/MWO4fAgpCgQQCDsNp+4EbIhb9F+6v8AR6BtKwclEvFusp1I6FcaT8j+Nx8ZXST4ZpGFOKPRxD5m0Bk8pKXgPyRD7v5Y8wWQhDaEoQgJSBgABgB8C6ilpqppbNQwh1tQzpUMbT+TYgLqIknpLC/8WqaWppHlM1DKm3E8aVDA/i7TTrziW2kKWtRwCUjEm0Dk6qH+A/KKLSNjI882oo+ioGEsUjCWkDoHwPkoGNmGi3V04UcMyhmKbXgyfSMcVvUWNUwNgHlpsQQSCMCPxSBuPKSvAeeSaamPprGdW6LRF2omHQE0rIK/SdVnUfgnPXNiZhKneAGKj81A7xttOXUl4VZL7JWzseQMU/iMPd6UmHAmlYPA2uKzIFoC40ZGcB18CpqB6Sh5I+Q+CykJWhSVpCkkYEEYi07k7o63hvRmFO9tbPmKtJRMhFvlmsp1Nq2E8R+R/DaKgrK99LFKwt1w7Ei0Dk5aa4D8qsOK2MpOYbxsyyyw2lpltLbacyUpGAHwZrKKjrqdTFVTodbOxQtP5OH2guoiSpxHGWVcY3TZ5l5hxTTrakLScClQwI/CUIWtQShJUo5gAMSbQGT2trOC/Ik07PqDlDaNi6CMpwxR06W0bSONXzPwdmbvRMw0U1LHl+i4nMsWn7iSkUVusA1NOPSSPKTvD8HgbnSsuUr4Hgafa6v/AALQl1YqHSC00HHtrq86vhDPXHiZUOPNAU1R6yBmJ9otNXblYZwipYPg9jqc6T+BxUJJSzwbpGCrpWcyU/M2gbgx0fwXqzCpfGf3BYAJAAAAHEPhG60y80pt1tK0qzEKGIwtP5Oqd7hvxSg0vHkVebaujq2PeLNUwtpY6Rr9NSVNW8lmnZU44o5kpGNoHJz5j8qv2+AQe82pqSmpGUs07KW208SUjD4T18bQSLCmathLiTxYjOLT+Tmrpgt+LJfaz4t+mLONuNrUhxJSoHAgjAjWwCogAEk7BaAuBIV/AfrcaZjoPnqtFwsbEtBqjYCelZzqPzPwrm7sREy2TUMhD2x1GZVp65UtDkuBBfp9jiBxbw1mDupKzKklpotsbXl5k2g7nxMOErSjw9QON5Y7vhcQCCCMcbT9wYuRCnqQimf6QPIUbS8BJw73Aq2ClJPkuDOhXyOqxsTISj4Zo6dTitpAzJ9pNoHJ7Q0fAekVCpe9T0E2SlCEhKEhKQMAAMAPhi/T01Swtl9pLiFjApUARafybp8p+Ic/+wr/AAbVVHU0bymahlTbieMKGossPPuJbZbUtauJKRiTaBydPO8B+VUW0fkp84/M2oqGjoGEsUrCGmxsSPhrJw0bKsFqspwvoVxKT8jafyfSFAXHaEmpYGz002UlSFFKkkEcYOl47QNxpST4Dr48Wpz6Sh5SvkLQ93ouHb4NKwOHtcVnWfhzO3TiZoKW42GX9jrYwNp26MrDKKltl1jY6jONHC3alZlwCmYIb2uqzJFoK5MVE8FxaRU1A9NYzDdHw8WhK0lKkhSTmIOcG0/k8oK4uPxxFO76voKtKQ0jFPFqsp1I6Feir5H69DHVsg+GaRhTiz0DvtA5OqZjgPyiw6vYynzRZppplCW2m0oQOJKRgB8P6ujpa1lTNSwh1tWxQteDJs63w6iJUVJ4/AL47P079M6tp9pTbiTgUqGBH7W23HVpQhBUpRwAAxJtA5O6qp4D8mosNflDzzaPjKGNYDNIwltPs4z8z8Q5eBjJprg1dMCUjM4nMpNqvJc+FE01eODsDibMZLqvhfvMg2kbQlOJtC3YiodONOzi7tdXnV/2V//EADARAAIBAQUGBQUBAQEBAAAAAAECAwQAESEwMyAxMlBxgUFCUWBhEBIiQJETFFJw/9oACAECAQE/AOYkgbzYEHcQfcJIFpKkDBMfmzMzG8m+wYqbwbrR1I3P/bAgi8H29JOiYbzZ5Xfee2ykjocDaOoR8DgfbbyIgxNpKh3wGAyY53TDeLJKj7j29rswUXk3WkqScE/tiSTeTmR1JGD4/NlZWF4N/tSSpVcFxNmdnN7HPVmU3qbrR1IOD4e0ZJkT5PpaSZ33nD0/TSV03HD0tHOj4bj7Nd1QXsbSVDNguA/XjqHXA4iySI4wPskkAXk2kqfBP7Ykk3k3/sgkG8G0dT4P/bBgwvBv9jSVCrguJs7s5xP7qOyG9TaOpVsGwPsOSZE3nH0tJM7/AAPTkMczpuxHpaOZH+D6c/Z1QXsbrSVLHBcByWOoZcGxFkdXF6nnZIGJtJUgYJ/bMxY3k38nBIN4N1o6nwf+2BBF4POJKhEwGJs8jvvPK0kdDgbR1CtgcDzV5UQYntaSd3wGA5fHO6YbxaOVH3HH05iSACTaSpJwTD5sSTyS/OjqWGDYiysGAIOHL6piFUeuYiM5uUWSlUcRvNhGg3KLfavoLGGI70FnpR5W7Gzxuh/IfpRxNIcN3rZKeNd4vPzb7V9BYxo29RaSl8UPaxBBuOZSsfyHL6vyd8tVLsFFkRUW4bRAIuItNB9mK8P6CIXYKLKoUADZqIvuH3jeMyk4m6cvq/J3y6VeJu2TNF/mbxwnPpF4m7bbr9rsPQ5dJxN05fV+Tvl0umeuSyhlIO42kjMbXHsc6l0z1259V8ul4m6cvq/J3y6XTPXKkjEi3GzKVJB3jNpdM9dufVfLpeJunL6vyd8ul0z1y5ohIMOIZtLpnrtz6r5dJxN05fV+Tvl0umeuZUQ/d+a7/HMpdM9dufVfLpeJunL6vyd8ul0z1zaiG781GHjl0umeu3Pqvl0vE3Tl9X5O+XS6Z6500X+ZvHCcql0z1259V8ul4m6cvq/J3y6XTPXOZQwINpIzG1x7HJpdM9dufVfLpOJunL6vyd8ul0z12/8AX7J3B4SRkSRh1uNmUqSDkUumeu3Pqvl0vE3Tl9X5O+XS6Z67c+s9qea78G3eGRNEJFw4husQQbjt0umeu3Pqvl0vE3Tl9X5O+XS6Z67c+q/0p5vu/Bjj4ZFRD9w+9d437dLpnrtz6r5dLxN05fV+Tvl0umeu3PrP9NxtDKJFx4hvyKiG781GHjtUumeu3Pqvl0vE3Tl9X5O+XS6Z67c+q/1VirAi0bh1vGRNF/mbxwnZpdM9dufVfLpeJunL6vyd8ul0z1259Z9iOQxteO9lYMARuO2yhgQdxtJGY2uPY7FLpnrtz6r5dJxN05fV+Tvl0umeu3PqvswymM3HhORIgdbjZlKMQfrS6Z67c+q+XS8TdOX1fk75dLpnrtz6r7VPNd+DHDwyJohIvyN1iCDcfpS6Z67c+q+XScTdOX1fk75dLpnrtz6r7dPN934Nv8Mioh+78l3+P0pdM9dufVfLpeJunL6vyd8ul0z1259Z8iGUSDHiGRUQ3Xuu7xtS6Z67c+q+XS8TdOX1fk75dLpnrtz6r5CsVYEWjkEi3jIRAgIG4m/bn1Xy6Xibpy+r8nfLpdM9dufVfJjkMbXjvZWDAEZ0+q+XS8TdOX1fk75dLpnrtz6r5UMpjbHhOdPqvl0vE3Tl9X5O+XS6Z67c+q+XTzXH7G3eGbPqvl0vE3Tl9X5O+XS6Z67c+q+ZTzfd+Db/AAzJ9V8ul4m6cvq/J3y6XTPXbn1nzYZQ4x4hlz6r5dLxN05fV+Tvl0umeu3PrPmqxUgjeLRyCRbx3GVPqvl0vE3Tl9X5O+XSn8CPnbmN8r9c6OQxteLKwZQRkzG+V+uXS8TdOX1fk75dO/2vcdx2ncIpY/oQy/5nHhNgQReNuRwiE5lLxN05fV+TvmQzggK5x9dhmVReTcLTSmQ/A3foxytHuxHpZJkfcbj6HZeREGJtJIZGvPYZlLxN05fURl0vG8ZqTSJubD5t/wBb/wDkWNVIdwAszMxvYk/qLLIu5jYVUniAbf8AW3/gWaolPiB0sSTic2mjKqWPjzCSBH+D62kidN4w9eYpG77h3tHAiYnE8zkpgcUwNmVlNzC7lqqzG4C+0dMBi+PxYADAc1ZVYXEX2kpiMUx+LEEcqjpicWwFlRVFwF3OXiR9472kgdMRiOTxwO+O4WjiRNwx9eeyQI+IwNnjdDiORpG7nAWjp1XE4n2AQCLjaSmBxT+WZWU3EXfvgEm4C+0dN4v/ACwAAuA9hsiuLmFpKZhiuI/djp2bFsBZEVBco9jyRI+8Y+tpIXT5Hr+zHC77hcPW0cKJ8n19lyU6tiuBs6MhuYfqqjOblFo6ZVxbE+ziARcRaSm8U/liCDcR+iASbgLR03i/8sFCi4C72i8auLmFpKdlxXEZ8dO74nAWSNEGA9qyQo/wfW0kLpvGHrlxxO+4Yeto4ETHefbMlMpxXA2ZGQ3MNtVZjcBfaOmAxfE+ntxlDC4i+0lMRin8sQQbj9cTaOmJxfD4sqqouAu9vvGjjEWemccOIslNITjgLJEibh3/APiv/8QAPBEAAQMBAgcNCQEAAwEAAAAAAQIDBAUAEQYSIDAxQVEhIjM0NURQUnFyc4KxEyMyQEJgYYHBEJGhonD/2gAIAQMBAT8A6RW422L1rSkfk3WQ624L0LSrsN/3CpSUgqUQANJNptdbReiMMdXXOizz7z6yt1ZUbNPOsrC21lKhrFoVdSq5EkXHrj+2QtK0hSVAg6CPt6ZVo0a9IPtHOqP6bS58mWfeL3upI0ZMWbIiqvaXua0nQbQ6xHkXJX7tzYdB7D9typseKm91e7qSNJtMrEiRelHu29g0ntOZh1aTGuST7Rvqn+G0SfGlp92vfa0nSPtd15plBW4sJSNZtNrqlXojC4dc/wAstalqKlKJJ0k5tKlJIUkkEaCLQq64i5EkY6euNNmX2n0BbSwofaZIAJJtNrjLV6GAHF7fpFpEl+QvGdWVH0z7Eh5heO0spNoVdbcuRIAQrrajYKCgCCCDoI+0JlUjRbwTjr6o/tplSkyyQpWKjqDR8nEqEmId4q9OtB0WhVaNKuSTiOdU/wA+zZMuPGRjOrA2DWbTK0+9eln3aP8A0fl4dZkR7kue8R+dItFmx5Sb2l3nWk6R9kuOIbSVrUEpGkm02vaURR5z/BZxxx1ZWtZUo6z8yha0KCkKKVDQRaFXiLkSReOuP6LNOtuoC21hSTrH2NNrUdi9LXvF/wDQtJmSJSsZ1ZOwah87HlPxl4zSynaNRtCrbL1yH/dr2/SbAggEfYUyoxog36r19QabTKpJlXpvxG+qP70DDqUmIQEqxkdQ2h1ONKAAVir6h6ffksR0Y7qwkWm1x129EcFtPW+o2JJJJN5PQYJFoVbfZuQ9e4jb9QtHlMSUYzSwraNY6bUpKElSlAAaSbTa6hN6Iwxj1zos6868srcWVKOs9DtuuNLC21lKhrFoVeBuRKHnH9FkLQ4kKQoKSdBHTE2sRo16Ue8c2DQO02lTpMpV7i9zUkaB0XGmSIqr2lkbRqNoVZjv3Jc92v8AOg9Ky58aIm9xe+1JGk2mVeTJvSk+zb2DSe09Hw6rJi3Jvx2+qf5aJUI0sbxVy9aDp6RccQ2hS1qASBeTabXVrvRGGKOudNlKUtRUpRJOknpEEpIIJBFoVcdbuRIBWnrfULNOtvNpcbUFJVoPR+ELqktMtjQokn9ZyNFekuYjSbzrOoWjUGOgAvKLitmgWREit/CwgeWxaaOltJ/VnKdCc+KOj9C70tIwfaVeWHCk7FbotJhyIqrnUEbDqPyUKA/MXcgXJGlR0C0ejw2QL0e0VtVYMspFwbSB2WciRXBv2EH9WmUFJBXGNx6hstCkKKVAgg3EHOYPOq9+0TvRcodH4Rc282bjsLkPIaRpUbRYrUVoNtjtOsnKcbQ6goWkKSdINqnSTGvdavLWsa0/IRIy5T6Gk69J2CzDLbDSW2xclOTWYAdaL6Bv0Dd/IzmD3DSO4Oj8IubebN4PMD3zx7ozCkhQKSLwRcRaqU4xHMZAvaUdw7Pxn8HmRivPa7wkZRAIuNpbXsZLzepKyBm8HuGkdwdH4Rc282boHEleIcy8y2+0ptwXpULTYbkR4oVuj6VbRnqDxE+IcurcoSO0embwd4aR3B0fhFzbzZugcSV4hzU2I3LZLa9P0nYbPsOMOqbcFyk52g8RPiHLq/KD/aPTN4PcNI7g6Pwi5t5s3QOJK8Q5up09Mtq9O46n4Tt/FlJUhRSoXEG4jOUHiJ8Q5dX5Qf7R6ZvB7hn+4Oj8IubebN0DiSvEOcrFN9skyGhvwN8OsM5QeInxDl1flB/tHpm8HuGkdwdH4Rc282boHEleIc7WKb7MmQ0nen4wNR25ug8RPiHLq/KD/aPTN4PcNI7g6Pwi5t5s3QOJK8Q50gKBBF4OkWqlOMRzHQPdKO5+PxmqDxE+Icur8oP9o9M3g9wz/cHR+EXNvNm6BxJXiHPPMtvNqbcF6VC06E5DeKFbqT8KtozNB4ifEOXV+UH+0embwe4Z/uDo/CLm3mzdA4krxDlqqJiVR9Cz7pZF/wCDdpsCCAQbwcuZEblsltflOw2fYcjuqacFyhmKDxE+Icur8oP9o9M3g9wz/cHR+EXNvNm6BxJXiHLrHKD/AOvS1GqWIRGdVvT8B2fjMVOnpltXp3HU/Cf5ZSVIUUqBBBuIy6DxE+Icur8oP9o9M3g7w0juDo/CLm3mzdA4krxDl1flB/8AXp/lHqXtkhh0+8SN6esMxWKb7ZJfaT7xI3w6wy6DxE+Icur8oP8AaPTN4PcM/wBwdH4Rc282boHEleIcur8oP/r0/wASpSFBSSQQbwbUyoJmNXK3HU/EP7mKzTcQmSynen4xs/OVQeInxDl1flB/tHpm8HuGf7g6Pwi5t5s3QOJK8Q5dX5Qf/Xp/sd9yO6l1s3KFoctuWyHEeYbDlkBQIIvBtVacYrmOgXtKO5+DsyaDxE+Icur8oP8AaPTN4PcM/wBwdH4Rc282boHEleIcur8oP/r0yIM1yI8Fp3UncUnaLMvNvNpcbN6VDLeabebU2sXpULjadCchvFCt1J3Uq2jIoPET4hy6vyg/2j0zeD3DP9wdH4Rc282boHEleIcur8oP/r0yaXUTEcxFm9pR3fx+bAhQBBvB0HLmRG5bJbX5TsNpDDkd1TTguI/2g8RPiHLq/KD/AGj0zeD3DP8AcHR+EXNvNm6BxJXiHLq/KD/69Mqj1L2ZEd470/Adh2ZipU9MxrcuDqfhP8stCkKUlQIINxH+UHiJ8Q5dX5Qf7R6ZvB7hn+4Oj8IubebN0DiSvEOXV+UH/wBemXR6l7ZIYdV7wDenrDMVim+3SX2k+8SN8OsP8oPET4hy6vyg/wBo9M3g9wz/AHB0fhFzbzZugcSV4hy6vyg/+vTLSpSFBSSQQbwbUyoJltXKIDqfiH9zFZpuITJZTvT8YGr82oPET4hy6vyg/wBo9M3g9wz/AHB0fhFzbzZugcSV4hy6vyg/+vTMMPuMOpcbNyk2hS25bIcRp+pOw5ZAIIIvBtFioioWhHwlZUBsvy6vyg/2j0zeD3DP9wdH4Rc282boHEleIcuscoP/AK9MzBmORHgtO6nQpO0WZebfbS42b0qGeq/KD/aPTN4PcM/3B0fhFzbzZugcSV4hy6vyg/8Ar0zVLqJiO4qze0o7v4/NgQoAg3g6DnatyhI7R6ZvB7hn+4Oj8IubebN0DiSvEOXV+UH/ANembo9S9mRHeVvD8B2HO1blCR2j0zeDvDP9wdH4Rc282boHEleIcur8oP8A69M5R6l7VIjunfgb09YZyrcoSO0embwe4aR3B0fhFzbzZugcSV4hy6vyg/8Ar0ziVKSoKSSCDeDamVBMtq5RAdSN8Nv5zdW5Qkdo9M3g9wz/AHB0fhFzbzZugcSV4hy6vyg/+vTOsPuMOpcbNykm0KY3LZDidP1DYc1VuUJHaPTN4PcNI7g6Pwi5t5s3g+sGK4nWHPUZdUWFz5BHWu/4z0KY5EeC06NCk7RZl5t9pLjZvSoZmprC58gjr3f8bmbwd4aR3B0fhFzbzZuiSgzKKFG5Lou/erKlSERmFuq1DcG02UorUpRO6Tec/TKiYjmKq8tK+IbPzZC0LSFoUCki8EZc2UmLHW4dOhI2mxJUSTpJzeD3DSO4Oj8IubebOUyrodSll9Vzg3Ao6FZDzzTKCtxYSkWqVRVMcuF4aT8I/p+Rg1J+GbhvmzpQbRalFkgYq8VXVVuHJlTI8VGM6vsTrNp052Y7jK3Ej4U7M5g7w0juDo+tQ1yI4UgXrbJN20Z2PVJkcAJcxk7FbthhC9rYRZyvylDeIQn/ALs/IffVjOuFR+UZqU1m4JeN2w7tkYQSh8TaDY4QvamEWerc5wEBSUd0WWta1FS1FROs52hw1ssrdWLlOXXD8DpCbSo0q9V2I51h/bS6fJiHfpvRqWNHSMSBJlqubRvdajoFoVIjRrlKHtHNp0DsHSRAUCCAQbTaG05euOcRXV+k2fjvR14jqCk9GssOvrCGkFSvxaFQkIuXJOMeoNFkpShISkAAaAOlXmGn0FDqApP5tMoS0XrjHGHUOmykqSopUCCNIPRIBUQACSbQ6G65cuQShPV+o2Yjsx0YjSAkdMy4EaUPeI32pQ0i0ykSY16kj2je0aR2joeHSpMq5V2I31j/AC0SnRog3ib161nT07No8eTepHu3No0HtFpUGRFVc4jc1KGg9BxociUrFaQTtOoWhUaOxctz3i/zoH2ApKVpKVJBB0g2m0JCr1xjinqHRZ1l1lZQ4gpVsPz7bTjqwhtBUo6haFQQLlyT5B/TZCENpCUJCUjQB9hvxmZCMR1AULTaG61etglxPV+oWIIJBFxHzkKiPvXLevbRs+o2jxWIyMVpAG06z9jy6dGljfpuX1xptMpcmLeq7Hb6w/vzMOmSZZBSnFR1zaHTI0UAhOMvrn7LmUWO/epr3a//ACbSYkiKvFdQRsOo/Kx4r8leK0gq9BaFRGWblvkOL2fSLAAC4fZrjaHElC0hSTpBtNoOlcU+Q/w2cbcaWULQUqGo/IoQtaglCSpR0AWhUIm5ck3DqD+2aabaQENoCUjUPtGTEjyUYrqAdh1i0yivs3rZvcR/6GfhUaQ/cpz3aPzpNosKPFTc0i461HSftWZS40q8kYjnWH9tMpsmISVJxkdcaM3Ep8mWd4m5OtZ0Wh0mNFuURjudY/wfbBAIIIvFplDZdvWwQ2rZ9JtIjPx14jqCk+uWyw8+sIaQVG0KhNouXIOOrqjRYJCQAAABoA+23WWnkFDiApJ1G0yhKTeuMcYdQ6bLQpCilSSCNIP+pSpRCUgknQBaFQnF3LknET1Bpsyw0wgIaQEp+35UKPKTc6jd1KGkWk0OU2r3XvE/8G0eiTHVe8AbTrJ3TaJAjRB7tG+1qOn/AOK//9k=;" parent="1" vertex="1">
          <mxGeometry x="-300" y="52" width="49" height="30.63" as="geometry" />
        </mxCell>
        <mxCell id="_-kJSPt_qq9w9nPcTiiO-94" value="" style="shape=image;verticalLabelPosition=bottom;labelBackgroundColor=default;verticalAlign=top;aspect=fixed;imageAspect=0;image=data:image/png,iVBORw0KGgoAAAANSUhEUgAAASwAAAEsCAYAAAB5fY51AAAu1UlEQVR42uydTYgcRRiGC41EQbyoVy/xBy8e9KgXtas3IwrmEFAhxJMI/qAiSFePMsYfJELEHNQYFPqb3Rg3eJGYkxpyEILREAK5BKNGhUVdNbAYPMhO5iU5hJBsspvZna+7nwceWJLdme6q92tmuqqrAsC5rHuzuj5/eequPE12YmkbstKey5O9HpO9H1O1K0vV11lhB7NkR4Y//xBT9Uss7Pfhz/9khZ2Mhf0v9bP+Tf+n39Hv6m/0t3oNvZZeU6+t99B76T313jqGAACwfnr6yrXd/m150X84T/Z8LOzdmOzzrLDDWbK5rKgGLkw2p2PSsekYdaw6Zh27ziEAQLPoFNM35l27T59gYlF9HJMd0CcfFxeky9JO6lx0Tjo3naPONQBAPdCnjonUvzNP1TNZYTtjYb/6uLisnDpnnbvaQG3BJzEAJ3S27lk90a2yWNqrMVVfuvo658Vkc2obtZHaSm0WAGBl6HR3rsnK/tNZst0xVf+6uCjUSLWZ2k5tqLYMADA6ntj23VUT3f7a0zfGq6NeCr8pqk3VtmpjtXUAgMXR6+1dFbuTeZbso1jY316Ku+mqrdXmanv1QQCAC98wzzWal2zb0D+9FHFrHfaB+kJ9wo17gDNM9Po3x1S9lRXVjItCxfM5oz5SXwWAtqGRqlj2Hz0zY3zeSVHiRbV59Zn6jtFGaDxZ127PC3snpuovHwWIS1V9qL5UnwaAJjGRpu6NhX3Bp6kmavPqW/VxAKgrGmXKkj029HsfhYXLrfpafc4II9SG9b3pa2NZvaDVCVwUEY5BO64MKAsBwCPrt0xfk5X9F5mSgFIqC8qEshEAPKDRory0Z5mWgAs4o4wwsghjQ49xxNKebOOKCLg0lRVlhkeAYEWJ5eS6rLBjXgoB66YdU4YCwHKyNu24QxMHfYQea+8wS8pUABj1qp0xVR9onXIXQcfGqEwpW6yWCiOZS6V1xLPCTngJODZVO6GsMYcLloSW19XuLj7CjO3RDip7AeCS51Ol/ma+/uG4VPaUQeZvwYJo7SPtnecluNhyh1lUJgPA2XR6k9dppUkXIUU8R2VTGQ0AsZi8OxbVTy6CiXgBlVFlNUA70WhMTP1N3KvCuqisKrOMJLYMbe8UC9vvJYiIi1HZZYuylpCX1UY2HMXaO8ywshygmehJ+Ziq7S7ChjgilWlWgWgYWc9uiskOeAkZ4ihVtpXxAPUnpsn7WVQPG+8w48p6gPoSU/8lRgGxLSrrynyAevF4b+/VMVWfegkS4kqq7KsGAvjnod6OG2Kyb7yEB3EcqgZUCwH8ErtTt/AsIOJpVQuqiQD+yEq7Jyts1kVQEN1os6qNAH7Ikz0Si+o/HwFB9KVqQzUSYPzEZE+xBTzixbR51UqA8aEhXB9hQKyHTHsYE1lpr3kJAWKtHNZOgJUjS7bFRccj1tVkWwIsL73e4Iq8tA9ddDhizVUtqaYCLA9crBBHf9EKwNdAxNrI10NusCPWSm7EM3UBsU4y5WEEk0K9dCZiG2Ry6WU8bsMMdsSV1uZ5jGcJDzLzbCDieFTt8cD0JfJAr7qVVRcQx63NqhYDLLz4HutZITpxWIssArjAssasFIroS9Ukyy2fB9ZgR/SpajMAc60Q6yJztM7aN5CtuBB9qxpt/b6H2q2WTU4Ra+KwVlu7w3Rn657VbB+PWC9Vs6rd0DZiqrZ76QREvHRVu6FN5GW10UvjI+LiVQ2HNtDp7lyTJZvz0vCIuHhVw6rl0GR6vb2rYmH7XTQ41tI3Ptk32Hf458HR32YHR47/Mfjq0I+D93Z/O9jw9mcujq9NqpZV06GpxNTf5KWxsV4++MrU4NCxmcFC6CK2edcp9q78OYrzTHdVNrW1W1v7SzZ/QVKV2l+SrL2bzbFJNgmSED4wtrGxsfEFGAdjA8bGmhlJI2l0cZnLHDaXRhIIiVPiBgHmvg9xiPuQwBwCISEkQAfvzlOhazuj6a+P6Z55R/qeqqcSw0z32y31Q3/f93zPu4tS04tZ1NwbiGda6YlISiv5nfRbSdpl1b6zZBZ3mltp2qp9lOINsqi9JxPPNJ5tpSch1V/yr6HIistcbrJkYrG/fzF1dnYR8PBxBy3ZVkNZpdtowcYjdKa+gfRQ39BE4+dvYnENPZl4tvGMKz0FoQtawOXmSiYev1ywmVQs3XGy299/NKOKNh+5SB0QtQgo2XqcxXX0ZOIZV3oCYOfnclMlE5O+ompSMXvNQd3PvZ5XThU7T1J7RyeFY/fpOno1sJTF9fRUJvuCf1YSGQOnlP+TzLeSjJbvT1lFKo5euGH4+XcmraC9tXUUjidPntCDh4+poamVrty6R7V1DVR99CJNWbEn9J2VLK41oRl61vHMK4mKPp7iCSxupGTCs+52E6kYPWe9qe9MrNiFYaKlyfr1h84ThqDJHjlhb4d45pVERIqn+Bm5KijpFCE+Ki7daDRtXRj7zQa6de8BWcX1O/dp8vLdUrhsrBri2VcSCTCThTKhj3C5iZKJzyRPkdaHBZuD6e/C3gBj6bCpqym9qJomLttNs6oOUEn1cdpx4go1tz4Uerv+OnMNi3uQOAweSShDabInOIbHjZPsSRxcuIxaH7WTisLyXY4cN9VXTHllO+jE5ZsUCV1dT2jlnlp60b+YxX1IBEIDlERAalr5j0MK28Tlxkn2LGJrjopH7R14a3L0+ENDx6vceybiSuPtpgf0+Tzp6zJDaAC0QOGOJE/RHB43TLKncuXu04L5LEeIISSGixFXGnH+fuklLO4FZ0ILFM7o61n8cznRLuk2+/qKSetwX77rtGvnGj13fUQ3/dVbTXgbY3E/uBJaAE1QuCLkw9jK5WZJ9my+NWE5wVOlzjGNmFHl6oT/gk1HqLOrizTANiHMfbG4H2wZ0gSFI0Jj1pdZ3CDJXsOC8p2k4uSVW4afx+rgzcYWamxpw1yY1fPB/xXRIrFi92lKlhutdZnkLRmgcMLwuYd+GBKsi1xukGTvodbq4Fm4xSiiBkM5dS4KG6gtn29A9hLafeoqhWP/mWs4Pot7wo/Bi9AIhQuSvMERPG6MZG/j8GmV2v2Chp/HFpz7bY/UVT8M92ydd0blfnoctpKIua5XAmUs7gs3QiOUuEPtfpMWrOdyYyR7H7EvEMAcEzZAG30eCaUAhobRnPeT2esI82haXLvTTIPyK1jcF06ERrDotpPsDX7C5aZI9k6WbT9BKr6u2m8qvbTpwUPaXnM56nPDBd/c+igsh6uZXssrZ3FvOBFaocQTL/ir/jlUyA0uN0SydxKT4SrgVjfzHbjkB2Q7M3wbNm014W1NA7z1yTib7rwR1zSHPt7icUxuhGQvJuahMB+lWhzi8Xbz3pSV1NDcSlqcv36Xns+UE/FaQjOUeGCgv/xfZJt5SS5EEqmKqSv3xqUGuONv3WvpFhyY5OFxj1gwpBnQDiXWSPIEP2NxAyQlQ/xwehWpOHTuejzDBrUbtAGIKYt7xIXQDkUAd/oLeorquNwASUntaiEaVryaG7/5I3/JNoLPSwPpiNcQ2hHT+Jk+nuCbXC5eUlIlMq5UzFl7MK61lG6tIS3w1jVk4goW94kFQxqiADESrMMsLlpSMqwdWNvjdgIu37wX94UAuN+1OHvtDvX1ySavIDREiQVSPKV/YnHBkpIGDVczirfGtZaXspYQopa1qNgp57NUQksUtxFyrK7lcsGSkpEC+FRc+P5u3Ffo4NHSNsKA7eLjr9eyuFfxJrTE3aGgL/jvfdKCT7hcsKRkJG47fplUzFi9j5UT/2nooGyjHyK0BJriZproVB4XKikp9kOpEcfY6/fu5Pj2HMRWIBhbtVi0+SiLexVvQlPc2+TsKbrL5UIlJUVcuOkoqUDjVAT+xbOe7NLtpAEEFTWxuFfxJDQF2uJChEzxG1wuUlLSTGuvU1dvayON4z4MO3z+Ommx5ehFFvcq3oS2yPhjyV5P2Byu3LxHKmDojGM9GJqqQ1U1Dgety1jcqx4Vo5ziL/6pnGyXTESGzKSs3OahbTpy206EyXdojJOT7QU8LkxS0hpP190mFZiMj3c9r+eXE7YOqUCWVmq6NJNCY5xJZSgv/4HMvJJMRCJ9VMWNxhYWNYEIDtQA2Vws6oozb0BrHHi7KvkLkwuSlLTEgKZL9OJtNSxqAj+ft5E0wFsgi7riTWiNE/sG53K5IElJK1y1p5aeArEvLGpSGbZlB1HLLOqKJ6E1UcfIyJA+yUQlHOXAuWt3WNSj5fTV+0iLrccusagr3uF+UcXOJPlKkllciKSkNaLdFjKp1Fb2LGrS8rmMEmpufUiAmuH1ZoG0OEBzohkOzudyIZKSFp3lrOwMkRjccoy0KJcWB4Lm2O7mnJQWbGRxEZKS9sUAzVNZ1BTpLfBRewcB6r7HF3p50wpojq0u0Sm+4r5cLkJS0iIxJ6QmfbKoR4+r99aSFrPXHGRRVzwJ7bEzHJzO5QIkJe0aRm/de8CiHj1iAzS26Ki4e7+t1xtJk9KC0+y4289xuQBJSavEZmeg7nYTi3rE+V2XSIuZlftZ1BUvQnusRcn4yn7CpXhJSTtU86fOXzdnafjgq/j5tEbMqCJAG4eT2suz36FBVjo6f8ylcElJO2y830bAySu3DD+bv3QH3W97hAYRbKJnpq3ax+I+xovQICvzV2tYFC0paZPf372vxhEbZq6rK3VpCzfHrd7x8zeRBph7690xyiENspIs2sqiaEnJ6FzueHMShvyh+aqKXSevxrVmNM3QYkJF790UDQ2CFpmwMxT14VK0pKRdHjh7jVQgUz3SZ6as2ENadHbF122OoakGCB9kcS/jRWiRiSjkYBaXgiUlnfA3vTclsnH01NVbFI4l20/EreZkb5BuNrbI6JmnhBaZsTNs4VKwpKRNwhogjEZGkB72GoYDbvMX/YvjVndW6TbSorGljfpnLWZxT2NNaJFxWJ8n2MKlYElJu0RcC6BufjYShsftnaTi2/WH4lr7wXPXSYt9tfX0RkEFi/saS0KLhKF+KZ7iZ1gUKikZJZM9QWp71E7AtTvN3f6+dGtNuFkT23hUtznSFOJW+zuTVtDjjs5u82v7z1yjLxdsZnF/Y0VokqKHZE/RKC6FSko6GUUc3h7+u5orpMXwaZVIJWXT6HT+xsOkA6yAYm6rV9geoEn6/qu0YBmXQiUlo2V6UTWpQPt67d/V1jWQNosKzvKXc8pIfSvD/w7MXRrX+jFsxcKAHuA1g/Uh2dOThStYpj/hnhas51GkpKQzzVRhwAS6up5gqNXNCQ/Ai6X+edn2E6Ri7YFzLK4Dq5zzNhymM/UNFAn1DU30xfxNLGp1mtCkyIbRtPIfcylSUtIWxV4rzAHhbQRvU1ghjGgYfTWwlNoet5MqcsOmrmZxHdp0h+LqY4QuQFrgelbuqaV+6SUs6nSS0CbZHUeyVxDeJsz5aEUr3KBZFua9mlixi54CBlQW1xGJn327AdfT7W1r5Nc9q6EFtCnChufgaC4FSko6SbwlPXzcQXoYM3d9t+9UH71IKjKLt7K4Dj2iPqxsaufkkLia3FMm5UPaFGH+qmgBi+IkJV3qBQivVRiQmxXp89jOgxBA1byJCXkW16HHAdlLaNORC6TFsYs36JUA77rNENoUSbAOcSlQUtINjpq1lrQT18cv3aQhE1cIRKAME/LqKiOLazAiXP1of68CW30+nF7Joja7hDZFaEcfbONSoKSki8TEOsTIzGexhUdNL0UnHhb1m6n58Pnv6SkwHEYXbBa12SG06e8c76Hgsp/xKExSkh8xHEQz1qYHDyF2LGoyQ4QAwr2vYgmjdv1WCY1SVCSnFb/EpTBJSY7Ehui9tXW0+3Qdi3rMEnsQMZelomTrcRZ1WSU0SrMlJziGS2GSklyZ5CnC9h2YOFnUY8XaseHQeVIxcdluFnVZITRKtvSSlLRB+LR8RdUsatHytbxyQszz5OW7acHGI4SUCuSCVe47Q9XHLpGK9o5OGj1nPYuabbX+SvIEK7kUJimZCMxZvJ3GfrMhrjWgfyFWBbGCeae5laygvqGZxX00S2iUVrBOcClMUjJRiP173kXVcWlYsePEFXWjtilg6w5Eat2BczCaJmBL/GCNokKG9klK2l5BjGl21vMhoYGTXQTkf0GYpq/eRxgioufi8xmJJlDdw/wU4AX/4n9jUZCkpKQZYgjYfePz7tOEjKy3Jy5nUaMbHJBX9CMlOb30WS4FSUpKGhJhg0ggDWu8updFbW4SWqUk+YL9uBQkKSlpjkWbj5IWHZ1dlJvQbnZjQqvQ1uttLgVJSkqaz6yHITQclXvPYPWQRY1OE1olTaOSkgnK/v7FSJSIGJ2cztAn5oR5FIIV4FKQpKSkNSJhFFHOkYCtRG9N6DmT8NAqNE6dw6UgSUlJ+w0r7rc9onA8au+gvLIdLGp0wDw6G4JVwaUgSUnJ6DY6I+NLg4Tf9KwltErp4ynayqUgSUlJZ7YNIXgwHHDHP5eRwE0qQlqFN6yjLIqRlJR0NFkCzTbgegc0TTUSNusdWoV9hKe5FCQpKel8tAzSG27dayEV6w+dZ1GbVUKrMCS8wKUgSUlJ1xI7acbqfaTmvRdtOcaiLiuEVsluz5IOJUIuoqG+CZSZMZ4m+T+lOVnDaV72BzQ966+U7x9DaZleGuydFpfankubR5+k51BGZhqhtm+yhtKS7MFUlP0Ozcj6iPIyx9KXmT563zeJxb10k6/nldPBc9cJmFm5n0VNVrpAQ7BucSnISgvyhqZWZAAZcvaag67WUrXvrKk6CpbuZHHvnBYpb6aHNgT606XC/6TvC39uyHMFvyJ8PpA5jl7wfOtabYO8M6kgJJQbc/vT1cL/MFUbeKrgt7Q4ZzB9kZFB/dLmO1JLSfYQOp3/G11+mp4T85/drDUHCEF+c9cdYvG7ZIbQKgwJ73EpyCzfLFxGZnH++h3X6kDL8wcPH5MZFFcn4Cu4gDn+cVST/3s85LZ5ueBZWpYziN7xTXYu7sUzm0pz3qLrBb8wWYdYvDIyx0dd04qc14TnGZeeGZef4YgZVXTr3gP668wE6RQd0iolEdt7Id7VAlxz+2L7gwESfqIznC955tKa3AF40BzjtcJfUGn2YHrFM8v+W3faApriH0UXC9Q3Pee4Iy+Fhvom9jjBUv/xX7T5KIvfLSNCqzAk7ORRjHliV7oFuPbai067JoF5Axb3Ltph1on83+Ehc4UVgUH25qg882hD4EXX6gKvFD6DoVuPE6xEIrQqIQXrm/WHyApq6xpcWXVpaXtMZnHl5j0W984uB3jm0OH8P7oqCsN8hZbrwjzYttxU9Riui9bojGwpWHEUrIQcEiJd0SKwbcHRGryLtpAFYK6Lxb2zy02BF8zNSxU+S5tzn6fS7LcJQzSsGmIVbqp/JGHYtz03FXNX4d+D6FiPC077lnbnJZkedmJoB/HA6uX87PdpeeA1wnnrCn5pWrSuFjxDI9PzpGDFaUiYkJPuu05eJYvAqoijNaDPm0UkYPB/EYgVM8MHGZPcsAq86p1lar5pZHouzc0apg4xcQ6rdUEUDes6m/9riKWwrv6ebyjXP870GyQ+19ezUApWHCbdE9LWcPbaHbKKk1duOWqrwM54q3h/yioW988i8YAarvZ9lJ5v+/gfh8QrybPIyncwn2QoLNty+9FAz9dmjwkbAywIZkQL/jIpWHGwNWAvYR2XgsyysaWNLAJB/TDNOXL+LxdsJhtAWygW988K3/NNMnx4v8zwxrImTLIbWSrgv4JPzNbxZ2aNMDWfNcg7XQpWDAmtSritOfA+QXxsAFsTHKkBLZRsAB2DWdxDK4QTXPwWkxrrmjD/JKoJYgb7RVTnqMx5xUi04JSXghXjrTnoSXiKRTEmiTZGerh0o5EEQAa2I5tJm1sfUiRc+P4uibBwU6L4Xf6f6wMvCR+2/MyxMa0Hw7YLBb8S1eSIc3yAdzaGuobzY8mehVKwYkRoFVYJj7AoxiTRHlwP6w+eE4pGV9cTejWwNOpuvxEAi4OR3QLbeFjcQws0WoVTl/ljRTjPhfXsyk1x6lx4g8IxhRyb4ZeCFSNCqxIuwE9kGl264ySh/ZEIU1dG179tzf6zFAEwkQprA/bV1rO4hxaIVTxW81dbc/sZ1ONz0igLO4TwfMsCr0vBimGAX8JFJH9dtZ/0MH/jYRo2bTWJcPj891G1VrrXEnk4mFG8VfT2pw4Z9Y4NNz6GtLosinL7xPJdp4XHHzJxRcTvHTeY3J6dNTxmP/u3vFONVithmXD0nN/l9hWdE5u+pWDFMiIZwe5cCjLD0q01hm9PaHOkh87OLhqQXWbr3OO+3UiR8PBxByF69r0pK0mEu/fbdI/9+bxNJAAC2KK5b8L5vccdnZSik0IJo6eBJ0kVCdf5VdbHwlrWBgY4/w+k8YohYnOkYMWoCUXCtflCSyM9IMsanynfcZJEmLR8t61zo0klECkrG3/fP2sxASKxFE/mi71dH06vsh2X+7i9k/Rwpr5Bf1dBYKDRA4uMqZj87FcFXhXWUegf7fQ54Wo3tnVk+qRgxarNVx9vcDSXgsxw9+k6Q5/Tp3PWkQDItbb10OMNKQKQna1+TigMwMs5ZTbd8/ZTIpFWIQDm5fS+C4OkqZiYUW5nOhkPTxEg6Pg58fZYL87TwluYFKwYEFqVcK3qT129TXr4aEYVqeLSCHHRQUdnF96GLJ13zNz1po51o7FF7Hb/St/t7iuqNsj2uuuK0XXKij36CZXemdh2YyXNwBW+6JlrVAM+48q5j+b/QXjeysArUrBi1ao+yRfsx6UgE8T8lKncK7w1iFBYbs3EuXJPrSA2xpygAp99u0HfFJteTG2P2kmENwuW2V+oEAu9Ljfmvmh6gzHih1Odn9OCGBolmUZ5DvvXfyjvT1KwYjIkLElVktNLn+VSkAmKHmi86Zh+q9hzus7SeRuaWykSvlq5x9LG7JzF3wnPs+34Zafd+ph7E71tIipH+P1hvgkWEg3wAP8vNjc7+nOf7B8lPOfOvBTXfudKct4WJ5Pm/04KVgwIrVIG5BX9iEtBRuyXXkIiwHagyatCpItoZcxMeoJwTgxG1IG5S80uCpgK/oegiW0Z1oMAj1z4PuqssAn+Ty3nR60JDKC3vVOdyUDLHio817rcl9z6vUPag+jcSDmVghUDQqsUIGR5b+FSlN0sd1gLwj9ffewSiZBXtsO0hykSTlzungCxZPsJUmGjZThEFGIqnn/zL3bk7RBYtvOU6eOU5bxpPf644JdwjGNvn6tvOStzBrr1e4euP0bROlKwXCY0SlERsrzXsCjKgAjL10NjBI9TVuk2EmHnyaumzoug/ghARx6raah4AzM8397aOhIAjnrT9+y1vHISAPfIoi/pQ1tpndj/N8n/iSBHSkiE7YmODzF17fcuK/MLo+tDgoQULBcJjVKeAubRSh5F2U/5rG9o7p5ImVkqtBk8au+g5zPEw8JRs9Zaam6BLrsCwJZhPPyq2EUibDt+yXyjjOBWEgCCZmM/XxqdL/gvW8J1LP8PtrbPrM/tLzxuMHuIe793mR6j60JAoBQsFwmNUp4CIX7TuBRm90E+dy1yOy9MrgMGZlNdVuw8aclikFksFojTdbeNrhNOfJhMRXHLqjPdkBiC6gArrtF0z8FQD0M+W8K1Nfc5+kDQicaq435h9ntu/d5BUAyvZ6B3phQsFwmNUp4CbvcxXAoTcVbVAcvRMRMN31YuC895U8dXhdZIgjSJaEUCex4dCQM8hC6/Othy9GLUP5Mhvil2O9Zg7gdNS9XhlJAH8v4sOhbmuNxrK5eRbXQtyJeXguUioVGKiuS04pe4FCYgnN6WbQpwlnd2dZEe2h63Y/XR8pzZ0KmrI1sAQn8uAGwZpq512qp9JMKqPbVmjoMoZyPDqBNEzArsDLaEC2L0uneGeF4vr4/wGOU5g1z7vfs8I0NOuseZ0ChFRcgC8DMuhYm4bNcp0kO14G0Bb18CYBgX8XtLvztBkXDtTrPuuRDDbIRk4+EcjiNKVsVCgOEx3pm0IpYNZhFmh/18MHFaFq0zBb+m4ekFesc2auWFfYbuzWFleIwWFKRguUxolKJiYHn5DxKh3Rf22tkJx4P3CRCInSVXfdn2E0K3OmBzP2GYa/4WiTBC7FCHbUM0NHV1G82C7PdgNrUmWvm/RtMIO8mn+HvXric783PhuU/k/48ULJfbe0GjFC2S0ooO8SjOVnsvJDTofQ/bWQx7BqaGub0hBnr4+Ou1wjqx+igA3nxMXe/ctQej2QyN/o1GG55d5Rve6TB0WhEtTK7jTU3w0Mc+W77AP8ZoSCsFy90VwoMKECZYC7gUaGdoV1x9LKrWYN5F1X9vAN1WQxEAE2bUXX1Gfr3GQsqC/c3Q6Dath+zS7bH6uaGZqhUbBHoERuhBOFj4nZP5v3Wt/jlZw4Xn3pL7vBQsFwltUsKQEDEz56/ri868DYeF312w8QiJsPHwee3nMU9le7L7+p37JMJ4C+2+IEoCwP1vdS4NW4rUEMNYEakPauqBEZEjb7VTDia+o9t0bV9wMPyVguV2rEw4kn3BP7Mozl5SAxIJhN9FrIsIWE1TvU3Dp1WSHj6ft9GyyIg3QIuJTjsizNDZm4g0CoOmsjHnQAuiFe7Rmmi8lxERyi414kgWnRdGWilYLhLapIQjNa38x1wKdGuJvr6hiURAwgM+V1Id0WyJRFBTK3w1l26SCnHCgzE/gNDayKiHx0oH2D4Ur58hhMhUvlYg87Ow7tABw+98lu53o2aj4Sw2eEvBcpHQJiUC4Hiv51JkBKp+KlHqp4DGG5PRIBWfq7vdJBo2GnLfmXoCTA5fbQmteDO0eB7t3ckr4/pzXJrzBh5US80t+nu+MfoOEh0cr3WI7yujJhRosy8FyyVCkxQdYBN0GZdCI6UYiOAvMd7Ei9U9EZoePKQPp1eSHtKLqk3Vir1+KgS2CBFFCwDiaxcPaSHGcf9ZfiII4xNsZkbLMTNzXw7SeCi6Lbef7JrjIqFJih6SPUWjeBTZnW8UVJAInoVbzEWtNLWSAIiM0XPEw2Nlv1GGfUsBHPdWjgc7hJFYxpPoqmwkWHjIw79nZJHAUNMoxsbpTddIoJCC5SKhSYoeUjzFz3ApNJzvT1lFAmAPn6njrN5bS3bwXc0V07UiY0qE7TWC/YviiBux693Y/gHxi79r2bPQULAWZL/bfbtS1kizc1+O8OWQsF4VNKCAMXaAZ44ULBcJTVL0ADcp1zA/5I4DJs2cdvr/OZZBFdTseRTkwFviCphABRj81N6ABFTYFiLh6q0mFj9LGEoNhAc9CO00xMAqpDqnFC2RT29mO5AULBdD+6BJigDoBL2FRbFhHI2uNQKg47OZ42CVD6uNVtDe0UkvClI+BQ51UVKpza49YkGdvnof6QBeNBY/SzjHba74waRp9F3kVzmyveiiwerg2IwsKVguElqkGABtv7K4FGyhVRW6Lps+1qbDF8gK9p+x1scQjSIEgAHWxg9PuPKHGGeRpQIbqfEWxmI4iFQHgz6HuiZQf+Z4fMbI9Y7hXDR1Io9eeI4j+X/Em5wULBcJLVKMkOIr6sOlYHEwnv3kgQzBsWx4vKymjmKlzumu1xBVYcLDics3o3Gp2402FjjWbeWzIzsLbz5m9iTarnmacfNY+MLwWSlYLhJapBghdfq6f0zyFLVyKdpM8gAwKL/C9LGeyyghNK0wA8wHvRpYaqlWeMJEuN30wOmIaMxPiVIpUFNUTu9TBb/Fgww/lO3omXnZH5gK9RtqkESa6x+rft6w9deb3mlW3v4QtWx43OK/hQVKwXKR0CBokWIC6KKzhkvhKvGWI4BlUUEDChPAEMtarcbNL+CYt3MPYKuAvUJnpbCFsOUmAjCUFPQeFBNzSdqHC6tmVYGXKT0jjV7wfGtKBL7M8KqJoYYszXnLTF3wP5k5HoaXMKHCjS58a8NQc3/eXwyPV5P/e3zeUcHKzxxL7/gm2yESX8Nb62OLkpZqZA/EGwse2s/j7/HnLJ5xLaFBiln08RZ/zKJo892LLbeeL1i6k0wAscyC49hqOY/GGE5H7CDJVG84iK1G9s+XmyJ8G0LXYzjX0U0H4X3IjoLZck7WMHiYLIX5Hc//vWkfFR60qwXPWE42hdjiDQmu+IpQ3ZjEh1vdzPfRjn9kep7dzdNuENaKsOH7DILBVr3v+P+qCVf9M1Wg3vdNIvz32YL/ZvGMawkNUswi1Vf2ExZFa4jtLAJgmGetiULWEmGjB3EagpjIWzcAXnntza+s2ktWgGt8Pb/c1rnGqG9XMWBtwW/wIFnuZlOv+qRc5uXCZ9V5K9aCpRJvwHgb1vwZBAv/KKhbmJAygaRXloIFDVIsAPaGc1yKB5F3ZT12WEx0UQYEnXjcsGAAgvZiYg6ZuIIEcLTRxIueb2hh9rtqZxzXiLeA93yTbYpqFoZ9rgtWZuYXOF/CC9aMrI8Iya6pnvn4RwLdhtgJFrRHsQjMY03ncgEgEkV1gKGQ+PviRg+O+5bgJjfCKwH7eVRoGmsC2CzuxEZnzJWo/ifHuTIwEJ6nqOob5iuEzcBVwYJoY+g72DstoQVrVHoOekOiWxFMtphf5CdYaOllFSm+4r5cLgCs3HuGdIDW7oLv2m70gAwtO8eFidWxoaa4M7QYm49cdLbzdnoeLc95Tc1qj4qYG/sy0+dkAwysHmI1013hKvwFVQQGYQ4tIQULw9qZWSPwXbxt4WfATrCgPYpVDJ976IchpWvkchHY4Ius9Ei81/LQ7nGxChjxmJduNNo9JjLbcQwRtUZX+9t0xG9XoTrciZF52TObJvtH0YZAf0xYW5pUxwTwCF+BK3WB/dLmU45/HLxcVrv3IPcKD7lZ4YJ4I37GqCZM7mPC3g3CkxbxnJ4ML66nW9oFFg0GeacThtGYoP8iIwN/zuIZB6E50B4FsDEsnM/lQiTDulGLgTfSGPWLW0TDfBMIczwQMey/gzUBm5fxLzhWDsdnpNMrnllxmAtZRENDtUHApvpHEnxgGNZhpXBZziBC52pYHjIyx6tvTFj2h8vdSjNYvEFh2MzidyPhGdIcxS6SfCXJLC5C0oqHDG+cWAVlUWuiEt2esYXIwionthOxqD2RCc1R7MLv3/YPIcVr4HIxkn9z6cNzJQDa87OoNdGJebFJ/k9NbQUKZI5jUXNCM6Q10BwlCmBYOJfFxUia6f6DLCwWdfYkInAQq2p60TZ78vpg+Mmi1oRmSGuUaJHkKfkLi4uRhF0CLnnRlh/sqWRRa08k5sO+y+0bLliYyGZRX6JT7Y5jE9o29kU3uFxUbyUCDJtbH4q8aEihYFFrTycm6WGfeBrlzKKmHsAborA+q673AiYX1euIyfOizUcJIYIizN94mEW9vYWhDdDYL4noHRb1JDqhMYpTSPEX/7RPWvAJl4vracTeQ1gVsF9y1poDNHfdIUKzCPQchGfLCOv+r72zCbWruuL4oh+0FnGk007sB04c2KGd2O59X5400BYe1ECxoyK0ldoK5exzC7e2g5JBLI60YuGs+xLS58yvkehIETVxIDgQQ1AHUYwaCREReXr+Kmjyosm7736sc87vBz8ISd57Z6+91uK+c/bZ+9mXQ4wDcTZ9Wz3G5kkqzRMxBtc/tY/VjGhBbYgxIM6qeovNm1xPbwkxuB46Q8PSPSu9EB7i+hH3onqLzYWdO5G+HWWQfXK3Dev0e+d0DmOIa0fci+op6i22CEaV3x1loH3yYLvQU5+YLsW5Dz7UvS2dgh3iuhH3qnqKLYo09uu4+b64k611w1032nUwqvaS1y4Ub7xztj36/uSnB1v8gkaFvdK31VNskeTKH40x2H47Kh7iOhAXpXqJLZq1cvimKANGxO6qXmLLIBU/FmXQiNhBix+zZZGKHwgxaETspsUP2AzMvu1M5a+GGDgidkx/VT3Elkmum7/EGDwidkn1Dls2G5OtK9ncDxF3o3qGeoetglRP7wwRBETshm3PsFWxcWjrCvbKQsTL9JR6hq2SUe23BwkGIgZWvcJWjV5czJW/HiUoiBhP9Qj1CotArv22KIFBxHiqR1gUdFJrqvxElOAgYiT9hHqERSLXm7+KERxEjKR6g0WEbZQRccf2x1HZV45cnyv/KESgEHGlqheoJ1hkcmnujRIwRFyd6gUWnfVq65pU+ZkoQUPEVehn1AusC4yK3xEjaIi4CtUDrCt8vv3M8SjBQ8Rl6sfVA6xLrJXpDdyARxyWqnnVvnWRVKYHowQSERevat66it7MTqV5JUQgEXGhqtZV89ZlRmP/WYhgIuJCVa1bH0jFH4gSVEScv6px6wvrk82rctWcDBFYRJyrqm3VuPWJXG3eyFNDxH6pmlZtWx/JZXpXlEAj4t5VTVtf0WKyXPkzUYKNiLOrWu7cAtHdsj4+em0qfjZK0BFx96qGVcs2BEZ1c2uIoCPiTKqGbUjk0twfJfiIePmqdm1o6ASNXPy5KJOAiJdWNRvm9Jtlkyb+fY67R+yIba2qZm3I5LL5c9ZnIcZWNapaNVDTmv4tysQg4k5Vowbn3YT/f5TJQcQvVG0anM/vJk9+Nxd/KsokIaKalT+l2jTYyf7JkavZPwsxiG0tqiYNvpo8PvzDVPnpEBOGOFj9tGrR4NKk2n+aq+aDGBOHOCxVe6pBg10dFfabVPl2lElEHIa+rdoz2D25+B9iTCLiMFTNGbBGCzG6rLWa3z2tf0aZVMRe2taYwfwYVX53iIlF7JvFDxnMn1Ht/w0xwYg9UTVlsBgmk4+/QdNCnF+zUk0ZLBZ9hI0y6YidlF8Dvww34hHDyg32i8KSB8RgsnRhxWihGyviES+lb7MoNAh6lYB3DxEvrmqD122CoZc12eUB8UL9NC8yB+XmSfMj9tNC/EzVgmrCIC7acCxV/nSIhEFc4U6hbL7XEbSlK3vE41BV7rOtcQfRI1yOEMOhqFxn2ULH0VlqHNaKvbfNcc4N7Ak6rZZj8bGvKrcHfyJz31i/57Hv5NLcHyXJEOehclq5bdBPRnVzayp+NkrCIc6icli5bNB/1sdHr82VPxMi8RB3qXJXOWwwHCaTJ7+Vy/QuniJiV1SuKmeVuwbDJFebN+aqORklKREvpnJUuWoA65PNq3LV/C9KciKeZ/EHlKMGcOGaLd5FxDC2ucjaKvhaNg5tXZHK9CD3tnBVKveUg8pFA7gc1sr0hlT58ShJjEPRjyv3DGCWJ4mj4nekys/ESGbsr35GucYTQNgz69XWNbk09/JrIs5b5ZRySzlmAPNkXzlyfSrNE1GSHTtum0vKKQNYJKnyX7eeCJH02EH9hHLIAJbF7+97/tu59tty5a/HKAKMrnJFOaPcMYBVoDflR7XfnqrmVJTCwHCeUo6wqwKEYf/k4e+lenonmwWilMoF5YRywwAisjHZujIX/2suzWshigaXruZeOaBcMIAuoPU0qfiB1mNRCgkXq+Zac85aKug0a+XwTbnyRzlSv4/6tuZWc2wAfSKN/bpcmv+0vh2j2HBWNYeaS82pAfQZPS3K9fQWLRzkU1eX9G3NmeaOJ34wSNYm0x/k0vybZRGhPaU50lwZAJhtbG198/MzFO9jaUQAi7+ludCcaG4MAL5mv/nx5kg7TebK3wlRwANQsVbMFXue9AHM+ArQ2ni6LxW/J5fm5SjF3RcVU8VWMeaVGYAFHFGW6ukfU/FHcmnORSn8rqiYKXaKIUdlASwRPalaGzcp1/6PXJrHOSB2p4qJYqMYKVY83QMIgm4Oa3vdUWn+lCo/OsSdJDRmjV0xUCy4YQ7QIbSTZdbTx9r/rKPMWp9Plb8fpcHMqsagsWhMGpvGyK6dAD1Enzr2jac/HlXTX2of8c9u6PtDrS+G+rWy+Fldk65N16hr1TXr2vnkBAAm9k+OXD36++Gf5LHfnGv/rRpF67+093jrg1rtnUvzQi7+ks7O069hrW+m0ryrTz7ap1zqz/o7/Zv+j/6vvkZfq++h76Xvqe+tn6GfpZ+pn61rMIAL+ASRe6KwcF17DQAAAABJRU5ErkJggg==;" parent="1" vertex="1">
          <mxGeometry x="650" y="90" width="28" height="28" as="geometry" />
        </mxCell>
        <mxCell id="_-kJSPt_qq9w9nPcTiiO-95" value="MySQL" style="text;html=1;align=center;verticalAlign=middle;whiteSpace=wrap;rounded=0;" parent="1" vertex="1">
          <mxGeometry x="672" y="90" width="60" height="30" as="geometry" />
        </mxCell>
        <mxCell id="_-kJSPt_qq9w9nPcTiiO-96" value="" style="rounded=0;whiteSpace=wrap;html=1;fillColor=#f5f5f5;strokeColor=#666666;fontColor=#333333;" parent="1" vertex="1">
          <mxGeometry x="-100" y="410" width="140" height="100" as="geometry" />
        </mxCell>
        <mxCell id="_-kJSPt_qq9w9nPcTiiO-97" value="" style="rounded=0;whiteSpace=wrap;html=1;fillColor=#f5f5f5;strokeColor=#666666;fontColor=#333333;" parent="1" vertex="1">
          <mxGeometry x="119" y="332" width="140" height="100" as="geometry" />
        </mxCell>
        <mxCell id="_-kJSPt_qq9w9nPcTiiO-98" value="" style="rounded=0;whiteSpace=wrap;html=1;fillColor=#f5f5f5;strokeColor=#666666;fontColor=#333333;" parent="1" vertex="1">
          <mxGeometry x="-330" y="410" width="140" height="100" as="geometry" />
        </mxCell>
        <mxCell id="_-kJSPt_qq9w9nPcTiiO-103" value="" style="shape=cylinder3;whiteSpace=wrap;html=1;boundedLbl=1;backgroundOutline=1;size=15;" parent="1" vertex="1">
          <mxGeometry x="-320" y="420" width="120" height="80" as="geometry" />
        </mxCell>
        <mxCell id="_-kJSPt_qq9w9nPcTiiO-104" value="Database" style="text;html=1;align=left;verticalAlign=bottom;whiteSpace=wrap;rounded=0;" parent="1" vertex="1">
          <mxGeometry x="-330" y="390" width="120" height="20" as="geometry" />
        </mxCell>
        <mxCell id="_-kJSPt_qq9w9nPcTiiO-107" value="133.186.244.96:8086" style="text;html=1;align=center;verticalAlign=middle;whiteSpace=wrap;rounded=0;" parent="1" vertex="1">
          <mxGeometry x="-330" y="510" width="140" height="20" as="geometry" />
        </mxCell>
        <mxCell id="_-kJSPt_qq9w9nPcTiiO-108" value="" style="shape=cylinder3;whiteSpace=wrap;html=1;boundedLbl=1;backgroundOutline=1;size=15;" parent="1" vertex="1">
          <mxGeometry x="129" y="342" width="120" height="80" as="geometry" />
        </mxCell>
        <mxCell id="_-kJSPt_qq9w9nPcTiiO-109" value="133.186.244.96:3306" style="text;html=1;align=center;verticalAlign=middle;whiteSpace=wrap;rounded=0;" parent="1" vertex="1">
          <mxGeometry x="129" y="432" width="120" height="20" as="geometry" />
        </mxCell>
        <mxCell id="_-kJSPt_qq9w9nPcTiiO-110" value="Database&lt;div&gt;&lt;/div&gt;" style="text;html=1;align=left;verticalAlign=bottom;whiteSpace=wrap;rounded=0;" parent="1" vertex="1">
          <mxGeometry x="119" y="312" width="120" height="20" as="geometry" />
        </mxCell>
        <mxCell id="_-kJSPt_qq9w9nPcTiiO-111" style="edgeStyle=orthogonalEdgeStyle;rounded=0;orthogonalLoop=1;jettySize=auto;html=1;exitX=0;exitY=0.5;exitDx=0;exitDy=0;entryX=1;entryY=0.5;entryDx=0;entryDy=0;startArrow=classic;startFill=1;endArrow=none;endFill=0;entryPerimeter=0;" parent="1" source="_-kJSPt_qq9w9nPcTiiO-112" target="_-kJSPt_qq9w9nPcTiiO-103" edge="1">
          <mxGeometry relative="1" as="geometry">
            <mxPoint x="340" y="790" as="targetPoint" />
          </mxGeometry>
        </mxCell>
        <mxCell id="_-kJSPt_qq9w9nPcTiiO-112" value="AI&lt;div&gt;Service&lt;/div&gt;" style="rounded=0;whiteSpace=wrap;html=1;strokeColor=#3a77a6;" parent="1" vertex="1">
          <mxGeometry x="-90" y="420" width="120" height="80" as="geometry" />
        </mxCell>
        <mxCell id="_-kJSPt_qq9w9nPcTiiO-113" value="Instance&lt;div&gt;&lt;/div&gt;" style="text;html=1;align=left;verticalAlign=bottom;whiteSpace=wrap;rounded=0;" parent="1" vertex="1">
          <mxGeometry x="-100" y="390" width="120" height="20" as="geometry" />
        </mxCell>
        <mxCell id="_-kJSPt_qq9w9nPcTiiO-114" style="edgeStyle=orthogonalEdgeStyle;rounded=0;orthogonalLoop=1;jettySize=auto;html=1;entryX=0;entryY=0.5;entryDx=0;entryDy=0;entryPerimeter=0;exitX=1;exitY=0.25;exitDx=0;exitDy=0;" parent="1" source="_-kJSPt_qq9w9nPcTiiO-112" target="_-kJSPt_qq9w9nPcTiiO-108" edge="1">
          <mxGeometry relative="1" as="geometry">
            <mxPoint x="420" y="400" as="sourcePoint" />
          </mxGeometry>
        </mxCell>
        <mxCell id="_-kJSPt_qq9w9nPcTiiO-117" value="" style="rounded=0;whiteSpace=wrap;html=1;fillColor=#f5f5f5;strokeColor=#666666;fontColor=#333333;" parent="1" vertex="1">
          <mxGeometry x="119" y="494.88" width="140" height="100" as="geometry" />
        </mxCell>
        <mxCell id="_-kJSPt_qq9w9nPcTiiO-118" value="" style="shape=cylinder3;whiteSpace=wrap;html=1;boundedLbl=1;backgroundOutline=1;size=15;" parent="1" vertex="1">
          <mxGeometry x="129" y="504.88" width="120" height="80" as="geometry" />
        </mxCell>
        <mxCell id="_-kJSPt_qq9w9nPcTiiO-119" value="Database" style="text;html=1;align=left;verticalAlign=bottom;whiteSpace=wrap;rounded=0;" parent="1" vertex="1">
          <mxGeometry x="119" y="474.88" width="120" height="20" as="geometry" />
        </mxCell>
        <mxCell id="_-kJSPt_qq9w9nPcTiiO-120" value="133.186.244.96:6379" style="text;html=1;align=center;verticalAlign=middle;whiteSpace=wrap;rounded=0;" parent="1" vertex="1">
          <mxGeometry x="119" y="594.88" width="140" height="20" as="geometry" />
        </mxCell>
        <mxCell id="_-kJSPt_qq9w9nPcTiiO-135" value="" style="shape=image;verticalLabelPosition=bottom;labelBackgroundColor=default;verticalAlign=top;aspect=fixed;imageAspect=0;image=data:image/png,iVBORw0KGgoAAAANSUhEUgAAASwAAAEsCAYAAAB5fY51AAAu1UlEQVR42uydTYgcRRiGC41EQbyoVy/xBy8e9KgXtas3IwrmEFAhxJMI/qAiSFePMsYfJELEHNQYFPqb3Rg3eJGYkxpyEILREAK5BKNGhUVdNbAYPMhO5iU5hJBsspvZna+7nwceWJLdme6q92tmuqqrAsC5rHuzuj5/eequPE12YmkbstKey5O9HpO9H1O1K0vV11lhB7NkR4Y//xBT9Uss7Pfhz/9khZ2Mhf0v9bP+Tf+n39Hv6m/0t3oNvZZeU6+t99B76T313jqGAACwfnr6yrXd/m150X84T/Z8LOzdmOzzrLDDWbK5rKgGLkw2p2PSsekYdaw6Zh27ziEAQLPoFNM35l27T59gYlF9HJMd0CcfFxeky9JO6lx0Tjo3naPONQBAPdCnjonUvzNP1TNZYTtjYb/6uLisnDpnnbvaQG3BJzEAJ3S27lk90a2yWNqrMVVfuvo658Vkc2obtZHaSm0WAGBl6HR3rsnK/tNZst0xVf+6uCjUSLWZ2k5tqLYMADA6ntj23VUT3f7a0zfGq6NeCr8pqk3VtmpjtXUAgMXR6+1dFbuTeZbso1jY316Ku+mqrdXmanv1QQCAC98wzzWal2zb0D+9FHFrHfaB+kJ9wo17gDNM9Po3x1S9lRXVjItCxfM5oz5SXwWAtqGRqlj2Hz0zY3zeSVHiRbV59Zn6jtFGaDxZ127PC3snpuovHwWIS1V9qL5UnwaAJjGRpu6NhX3Bp6kmavPqW/VxAKgrGmXKkj029HsfhYXLrfpafc4II9SG9b3pa2NZvaDVCVwUEY5BO64MKAsBwCPrt0xfk5X9F5mSgFIqC8qEshEAPKDRory0Z5mWgAs4o4wwsghjQ49xxNKebOOKCLg0lRVlhkeAYEWJ5eS6rLBjXgoB66YdU4YCwHKyNu24QxMHfYQea+8wS8pUABj1qp0xVR9onXIXQcfGqEwpW6yWCiOZS6V1xLPCTngJODZVO6GsMYcLloSW19XuLj7CjO3RDip7AeCS51Ol/ma+/uG4VPaUQeZvwYJo7SPtnecluNhyh1lUJgPA2XR6k9dppUkXIUU8R2VTGQ0AsZi8OxbVTy6CiXgBlVFlNUA70WhMTP1N3KvCuqisKrOMJLYMbe8UC9vvJYiIi1HZZYuylpCX1UY2HMXaO8ywshygmehJ+Ziq7S7ChjgilWlWgWgYWc9uiskOeAkZ4ihVtpXxAPUnpsn7WVQPG+8w48p6gPoSU/8lRgGxLSrrynyAevF4b+/VMVWfegkS4kqq7KsGAvjnod6OG2Kyb7yEB3EcqgZUCwH8ErtTt/AsIOJpVQuqiQD+yEq7Jyts1kVQEN1os6qNAH7Ikz0Si+o/HwFB9KVqQzUSYPzEZE+xBTzixbR51UqA8aEhXB9hQKyHTHsYE1lpr3kJAWKtHNZOgJUjS7bFRccj1tVkWwIsL73e4Iq8tA9ddDhizVUtqaYCLA9crBBHf9EKwNdAxNrI10NusCPWSm7EM3UBsU4y5WEEk0K9dCZiG2Ry6WU8bsMMdsSV1uZ5jGcJDzLzbCDieFTt8cD0JfJAr7qVVRcQx63NqhYDLLz4HutZITpxWIssArjAssasFIroS9Ukyy2fB9ZgR/SpajMAc60Q6yJztM7aN5CtuBB9qxpt/b6H2q2WTU4Ra+KwVlu7w3Rn657VbB+PWC9Vs6rd0DZiqrZ76QREvHRVu6FN5GW10UvjI+LiVQ2HNtDp7lyTJZvz0vCIuHhVw6rl0GR6vb2rYmH7XTQ41tI3Ptk32Hf458HR32YHR47/Mfjq0I+D93Z/O9jw9mcujq9NqpZV06GpxNTf5KWxsV4++MrU4NCxmcFC6CK2edcp9q78OYrzTHdVNrW1W1v7SzZ/QVKV2l+SrL2bzbFJNgmSED4wtrGxsfEFGAdjA8bGmhlJI2l0cZnLHDaXRhIIiVPiBgHmvg9xiPuQwBwCISEkQAfvzlOhazuj6a+P6Z55R/qeqqcSw0z32y31Q3/f93zPu4tS04tZ1NwbiGda6YlISiv5nfRbSdpl1b6zZBZ3mltp2qp9lOINsqi9JxPPNJ5tpSch1V/yr6HIistcbrJkYrG/fzF1dnYR8PBxBy3ZVkNZpdtowcYjdKa+gfRQ39BE4+dvYnENPZl4tvGMKz0FoQtawOXmSiYev1ywmVQs3XGy299/NKOKNh+5SB0QtQgo2XqcxXX0ZOIZV3oCYOfnclMlE5O+ompSMXvNQd3PvZ5XThU7T1J7RyeFY/fpOno1sJTF9fRUJvuCf1YSGQOnlP+TzLeSjJbvT1lFKo5euGH4+XcmraC9tXUUjidPntCDh4+poamVrty6R7V1DVR99CJNWbEn9J2VLK41oRl61vHMK4mKPp7iCSxupGTCs+52E6kYPWe9qe9MrNiFYaKlyfr1h84ThqDJHjlhb4d45pVERIqn+Bm5KijpFCE+Ki7daDRtXRj7zQa6de8BWcX1O/dp8vLdUrhsrBri2VcSCTCThTKhj3C5iZKJzyRPkdaHBZuD6e/C3gBj6bCpqym9qJomLttNs6oOUEn1cdpx4go1tz4Uerv+OnMNi3uQOAweSShDabInOIbHjZPsSRxcuIxaH7WTisLyXY4cN9VXTHllO+jE5ZsUCV1dT2jlnlp60b+YxX1IBEIDlERAalr5j0MK28Tlxkn2LGJrjopH7R14a3L0+ENDx6vceybiSuPtpgf0+Tzp6zJDaAC0QOGOJE/RHB43TLKncuXu04L5LEeIISSGixFXGnH+fuklLO4FZ0ILFM7o61n8cznRLuk2+/qKSetwX77rtGvnGj13fUQ3/dVbTXgbY3E/uBJaAE1QuCLkw9jK5WZJ9my+NWE5wVOlzjGNmFHl6oT/gk1HqLOrizTANiHMfbG4H2wZ0gSFI0Jj1pdZ3CDJXsOC8p2k4uSVW4afx+rgzcYWamxpw1yY1fPB/xXRIrFi92lKlhutdZnkLRmgcMLwuYd+GBKsi1xukGTvodbq4Fm4xSiiBkM5dS4KG6gtn29A9hLafeoqhWP/mWs4Pot7wo/Bi9AIhQuSvMERPG6MZG/j8GmV2v2Chp/HFpz7bY/UVT8M92ydd0blfnoctpKIua5XAmUs7gs3QiOUuEPtfpMWrOdyYyR7H7EvEMAcEzZAG30eCaUAhobRnPeT2esI82haXLvTTIPyK1jcF06ERrDotpPsDX7C5aZI9k6WbT9BKr6u2m8qvbTpwUPaXnM56nPDBd/c+igsh6uZXssrZ3FvOBFaocQTL/ir/jlUyA0uN0SydxKT4SrgVjfzHbjkB2Q7M3wbNm014W1NA7z1yTib7rwR1zSHPt7icUxuhGQvJuahMB+lWhzi8Xbz3pSV1NDcSlqcv36Xns+UE/FaQjOUeGCgv/xfZJt5SS5EEqmKqSv3xqUGuONv3WvpFhyY5OFxj1gwpBnQDiXWSPIEP2NxAyQlQ/xwehWpOHTuejzDBrUbtAGIKYt7xIXQDkUAd/oLeorquNwASUntaiEaVryaG7/5I3/JNoLPSwPpiNcQ2hHT+Jk+nuCbXC5eUlIlMq5UzFl7MK61lG6tIS3w1jVk4goW94kFQxqiADESrMMsLlpSMqwdWNvjdgIu37wX94UAuN+1OHvtDvX1ySavIDREiQVSPKV/YnHBkpIGDVczirfGtZaXspYQopa1qNgp57NUQksUtxFyrK7lcsGSkpEC+FRc+P5u3Ffo4NHSNsKA7eLjr9eyuFfxJrTE3aGgL/jvfdKCT7hcsKRkJG47fplUzFi9j5UT/2nooGyjHyK0BJriZproVB4XKikp9kOpEcfY6/fu5Pj2HMRWIBhbtVi0+SiLexVvQlPc2+TsKbrL5UIlJUVcuOkoqUDjVAT+xbOe7NLtpAEEFTWxuFfxJDQF2uJChEzxG1wuUlLSTGuvU1dvayON4z4MO3z+Ommx5ehFFvcq3oS2yPhjyV5P2Byu3LxHKmDojGM9GJqqQ1U1Dgety1jcqx4Vo5ziL/6pnGyXTESGzKSs3OahbTpy206EyXdojJOT7QU8LkxS0hpP190mFZiMj3c9r+eXE7YOqUCWVmq6NJNCY5xJZSgv/4HMvJJMRCJ9VMWNxhYWNYEIDtQA2Vws6oozb0BrHHi7KvkLkwuSlLTEgKZL9OJtNSxqAj+ft5E0wFsgi7riTWiNE/sG53K5IElJK1y1p5aeArEvLGpSGbZlB1HLLOqKJ6E1UcfIyJA+yUQlHOXAuWt3WNSj5fTV+0iLrccusagr3uF+UcXOJPlKkllciKSkNaLdFjKp1Fb2LGrS8rmMEmpufUiAmuH1ZoG0OEBzohkOzudyIZKSFp3lrOwMkRjccoy0KJcWB4Lm2O7mnJQWbGRxEZKS9sUAzVNZ1BTpLfBRewcB6r7HF3p50wpojq0u0Sm+4r5cLkJS0iIxJ6QmfbKoR4+r99aSFrPXHGRRVzwJ7bEzHJzO5QIkJe0aRm/de8CiHj1iAzS26Ki4e7+t1xtJk9KC0+y4289xuQBJSavEZmeg7nYTi3rE+V2XSIuZlftZ1BUvQnusRcn4yn7CpXhJSTtU86fOXzdnafjgq/j5tEbMqCJAG4eT2suz36FBVjo6f8ylcElJO2y830bAySu3DD+bv3QH3W97hAYRbKJnpq3ax+I+xovQICvzV2tYFC0paZPf372vxhEbZq6rK3VpCzfHrd7x8zeRBph7690xyiENspIs2sqiaEnJ6FzueHMShvyh+aqKXSevxrVmNM3QYkJF790UDQ2CFpmwMxT14VK0pKRdHjh7jVQgUz3SZ6as2ENadHbF122OoakGCB9kcS/jRWiRiSjkYBaXgiUlnfA3vTclsnH01NVbFI4l20/EreZkb5BuNrbI6JmnhBaZsTNs4VKwpKRNwhogjEZGkB72GoYDbvMX/YvjVndW6TbSorGljfpnLWZxT2NNaJFxWJ8n2MKlYElJu0RcC6BufjYShsftnaTi2/WH4lr7wXPXSYt9tfX0RkEFi/saS0KLhKF+KZ7iZ1gUKikZJZM9QWp71E7AtTvN3f6+dGtNuFkT23hUtznSFOJW+zuTVtDjjs5u82v7z1yjLxdsZnF/Y0VokqKHZE/RKC6FSko6GUUc3h7+u5orpMXwaZVIJWXT6HT+xsOkA6yAYm6rV9geoEn6/qu0YBmXQiUlo2V6UTWpQPt67d/V1jWQNosKzvKXc8pIfSvD/w7MXRrX+jFsxcKAHuA1g/Uh2dOThStYpj/hnhas51GkpKQzzVRhwAS6up5gqNXNCQ/Ai6X+edn2E6Ri7YFzLK4Dq5zzNhymM/UNFAn1DU30xfxNLGp1mtCkyIbRtPIfcylSUtIWxV4rzAHhbQRvU1ghjGgYfTWwlNoet5MqcsOmrmZxHdp0h+LqY4QuQFrgelbuqaV+6SUs6nSS0CbZHUeyVxDeJsz5aEUr3KBZFua9mlixi54CBlQW1xGJn327AdfT7W1r5Nc9q6EFtCnChufgaC4FSko6SbwlPXzcQXoYM3d9t+9UH71IKjKLt7K4Dj2iPqxsaufkkLia3FMm5UPaFGH+qmgBi+IkJV3qBQivVRiQmxXp89jOgxBA1byJCXkW16HHAdlLaNORC6TFsYs36JUA77rNENoUSbAOcSlQUtINjpq1lrQT18cv3aQhE1cIRKAME/LqKiOLazAiXP1of68CW30+nF7Joja7hDZFaEcfbONSoKSki8TEOsTIzGexhUdNL0UnHhb1m6n58Pnv6SkwHEYXbBa12SG06e8c76Hgsp/xKExSkh8xHEQz1qYHDyF2LGoyQ4QAwr2vYgmjdv1WCY1SVCSnFb/EpTBJSY7Ehui9tXW0+3Qdi3rMEnsQMZelomTrcRZ1WSU0SrMlJziGS2GSklyZ5CnC9h2YOFnUY8XaseHQeVIxcdluFnVZITRKtvSSlLRB+LR8RdUsatHytbxyQszz5OW7acHGI4SUCuSCVe47Q9XHLpGK9o5OGj1nPYuabbX+SvIEK7kUJimZCMxZvJ3GfrMhrjWgfyFWBbGCeae5laygvqGZxX00S2iUVrBOcClMUjJRiP173kXVcWlYsePEFXWjtilg6w5Eat2BczCaJmBL/GCNokKG9klK2l5BjGl21vMhoYGTXQTkf0GYpq/eRxgioufi8xmJJlDdw/wU4AX/4n9jUZCkpKQZYgjYfePz7tOEjKy3Jy5nUaMbHJBX9CMlOb30WS4FSUpKGhJhg0ggDWu8updFbW4SWqUk+YL9uBQkKSlpjkWbj5IWHZ1dlJvQbnZjQqvQ1uttLgVJSkqaz6yHITQclXvPYPWQRY1OE1olTaOSkgnK/v7FSJSIGJ2cztAn5oR5FIIV4FKQpKSkNSJhFFHOkYCtRG9N6DmT8NAqNE6dw6UgSUlJ+w0r7rc9onA8au+gvLIdLGp0wDw6G4JVwaUgSUnJ6DY6I+NLg4Tf9KwltErp4ynayqUgSUlJZ7YNIXgwHHDHP5eRwE0qQlqFN6yjLIqRlJR0NFkCzTbgegc0TTUSNusdWoV9hKe5FCQpKel8tAzSG27dayEV6w+dZ1GbVUKrMCS8wKUgSUlJ1xI7acbqfaTmvRdtOcaiLiuEVsluz5IOJUIuoqG+CZSZMZ4m+T+lOVnDaV72BzQ966+U7x9DaZleGuydFpfankubR5+k51BGZhqhtm+yhtKS7MFUlP0Ozcj6iPIyx9KXmT563zeJxb10k6/nldPBc9cJmFm5n0VNVrpAQ7BucSnISgvyhqZWZAAZcvaag67WUrXvrKk6CpbuZHHvnBYpb6aHNgT606XC/6TvC39uyHMFvyJ8PpA5jl7wfOtabYO8M6kgJJQbc/vT1cL/MFUbeKrgt7Q4ZzB9kZFB/dLmO1JLSfYQOp3/G11+mp4T85/drDUHCEF+c9cdYvG7ZIbQKgwJ73EpyCzfLFxGZnH++h3X6kDL8wcPH5MZFFcn4Cu4gDn+cVST/3s85LZ5ueBZWpYziN7xTXYu7sUzm0pz3qLrBb8wWYdYvDIyx0dd04qc14TnGZeeGZef4YgZVXTr3gP668wE6RQd0iolEdt7Id7VAlxz+2L7gwESfqIznC955tKa3AF40BzjtcJfUGn2YHrFM8v+W3faApriH0UXC9Q3Pee4Iy+Fhvom9jjBUv/xX7T5KIvfLSNCqzAk7ORRjHliV7oFuPbai067JoF5Axb3Ltph1on83+Ehc4UVgUH25qg882hD4EXX6gKvFD6DoVuPE6xEIrQqIQXrm/WHyApq6xpcWXVpaXtMZnHl5j0W984uB3jm0OH8P7oqCsN8hZbrwjzYttxU9Riui9bojGwpWHEUrIQcEiJd0SKwbcHRGryLtpAFYK6Lxb2zy02BF8zNSxU+S5tzn6fS7LcJQzSsGmIVbqp/JGHYtz03FXNX4d+D6FiPC077lnbnJZkedmJoB/HA6uX87PdpeeA1wnnrCn5pWrSuFjxDI9PzpGDFaUiYkJPuu05eJYvAqoijNaDPm0UkYPB/EYgVM8MHGZPcsAq86p1lar5pZHouzc0apg4xcQ6rdUEUDes6m/9riKWwrv6ebyjXP870GyQ+19ezUApWHCbdE9LWcPbaHbKKk1duOWqrwM54q3h/yioW988i8YAarvZ9lJ5v+/gfh8QrybPIyncwn2QoLNty+9FAz9dmjwkbAywIZkQL/jIpWHGwNWAvYR2XgsyysaWNLAJB/TDNOXL+LxdsJhtAWygW988K3/NNMnx4v8zwxrImTLIbWSrgv4JPzNbxZ2aNMDWfNcg7XQpWDAmtSritOfA+QXxsAFsTHKkBLZRsAB2DWdxDK4QTXPwWkxrrmjD/JKoJYgb7RVTnqMx5xUi04JSXghXjrTnoSXiKRTEmiTZGerh0o5EEQAa2I5tJm1sfUiRc+P4uibBwU6L4Xf6f6wMvCR+2/MyxMa0Hw7YLBb8S1eSIc3yAdzaGuobzY8mehVKwYkRoFVYJj7AoxiTRHlwP6w+eE4pGV9cTejWwNOpuvxEAi4OR3QLbeFjcQws0WoVTl/ljRTjPhfXsyk1x6lx4g8IxhRyb4ZeCFSNCqxIuwE9kGl264ySh/ZEIU1dG179tzf6zFAEwkQprA/bV1rO4hxaIVTxW81dbc/sZ1ONz0igLO4TwfMsCr0vBimGAX8JFJH9dtZ/0MH/jYRo2bTWJcPj891G1VrrXEnk4mFG8VfT2pw4Z9Y4NNz6GtLosinL7xPJdp4XHHzJxRcTvHTeY3J6dNTxmP/u3vFONVithmXD0nN/l9hWdE5u+pWDFMiIZwe5cCjLD0q01hm9PaHOkh87OLhqQXWbr3OO+3UiR8PBxByF69r0pK0mEu/fbdI/9+bxNJAAC2KK5b8L5vccdnZSik0IJo6eBJ0kVCdf5VdbHwlrWBgY4/w+k8YohYnOkYMWoCUXCtflCSyM9IMsanynfcZJEmLR8t61zo0klECkrG3/fP2sxASKxFE/mi71dH06vsh2X+7i9k/Rwpr5Bf1dBYKDRA4uMqZj87FcFXhXWUegf7fQ54Wo3tnVk+qRgxarNVx9vcDSXgsxw9+k6Q5/Tp3PWkQDItbb10OMNKQKQna1+TigMwMs5ZTbd8/ZTIpFWIQDm5fS+C4OkqZiYUW5nOhkPTxEg6Pg58fZYL87TwluYFKwYEFqVcK3qT129TXr4aEYVqeLSCHHRQUdnF96GLJ13zNz1po51o7FF7Hb/St/t7iuqNsj2uuuK0XXKij36CZXemdh2YyXNwBW+6JlrVAM+48q5j+b/QXjeysArUrBi1ao+yRfsx6UgE8T8lKncK7w1iFBYbs3EuXJPrSA2xpygAp99u0HfFJteTG2P2kmENwuW2V+oEAu9Ljfmvmh6gzHih1Odn9OCGBolmUZ5DvvXfyjvT1KwYjIkLElVktNLn+VSkAmKHmi86Zh+q9hzus7SeRuaWykSvlq5x9LG7JzF3wnPs+34Zafd+ph7E71tIipH+P1hvgkWEg3wAP8vNjc7+nOf7B8lPOfOvBTXfudKct4WJ5Pm/04KVgwIrVIG5BX9iEtBRuyXXkIiwHagyatCpItoZcxMeoJwTgxG1IG5S80uCpgK/oegiW0Z1oMAj1z4PuqssAn+Ty3nR60JDKC3vVOdyUDLHio817rcl9z6vUPag+jcSDmVghUDQqsUIGR5b+FSlN0sd1gLwj9ffewSiZBXtsO0hykSTlzungCxZPsJUmGjZThEFGIqnn/zL3bk7RBYtvOU6eOU5bxpPf644JdwjGNvn6tvOStzBrr1e4euP0bROlKwXCY0SlERsrzXsCjKgAjL10NjBI9TVuk2EmHnyaumzoug/ghARx6raah4AzM8397aOhIAjnrT9+y1vHISAPfIoi/pQ1tpndj/N8n/iSBHSkiE7YmODzF17fcuK/MLo+tDgoQULBcJjVKeAubRSh5F2U/5rG9o7p5ImVkqtBk8au+g5zPEw8JRs9Zaam6BLrsCwJZhPPyq2EUibDt+yXyjjOBWEgCCZmM/XxqdL/gvW8J1LP8PtrbPrM/tLzxuMHuIe793mR6j60JAoBQsFwmNUp4CIX7TuBRm90E+dy1yOy9MrgMGZlNdVuw8aclikFksFojTdbeNrhNOfJhMRXHLqjPdkBiC6gArrtF0z8FQD0M+W8K1Nfc5+kDQicaq435h9ntu/d5BUAyvZ6B3phQsFwmNUp4CbvcxXAoTcVbVAcvRMRMN31YuC895U8dXhdZIgjSJaEUCex4dCQM8hC6/Othy9GLUP5Mhvil2O9Zg7gdNS9XhlJAH8v4sOhbmuNxrK5eRbXQtyJeXguUioVGKiuS04pe4FCYgnN6WbQpwlnd2dZEe2h63Y/XR8pzZ0KmrI1sAQn8uAGwZpq512qp9JMKqPbVmjoMoZyPDqBNEzArsDLaEC2L0uneGeF4vr4/wGOU5g1z7vfs8I0NOuseZ0ChFRcgC8DMuhYm4bNcp0kO14G0Bb18CYBgX8XtLvztBkXDtTrPuuRDDbIRk4+EcjiNKVsVCgOEx3pm0IpYNZhFmh/18MHFaFq0zBb+m4ekFesc2auWFfYbuzWFleIwWFKRguUxolKJiYHn5DxKh3Rf22tkJx4P3CRCInSVXfdn2E0K3OmBzP2GYa/4WiTBC7FCHbUM0NHV1G82C7PdgNrUmWvm/RtMIO8mn+HvXric783PhuU/k/48ULJfbe0GjFC2S0ooO8SjOVnsvJDTofQ/bWQx7BqaGub0hBnr4+Ou1wjqx+igA3nxMXe/ctQej2QyN/o1GG55d5Rve6TB0WhEtTK7jTU3w0Mc+W77AP8ZoSCsFy90VwoMKECZYC7gUaGdoV1x9LKrWYN5F1X9vAN1WQxEAE2bUXX1Gfr3GQsqC/c3Q6Dath+zS7bH6uaGZqhUbBHoERuhBOFj4nZP5v3Wt/jlZw4Xn3pL7vBQsFwltUsKQEDEz56/ri868DYeF312w8QiJsPHwee3nMU9le7L7+p37JMJ4C+2+IEoCwP1vdS4NW4rUEMNYEakPauqBEZEjb7VTDia+o9t0bV9wMPyVguV2rEw4kn3BP7Mozl5SAxIJhN9FrIsIWE1TvU3Dp1WSHj6ft9GyyIg3QIuJTjsizNDZm4g0CoOmsjHnQAuiFe7Rmmi8lxERyi414kgWnRdGWilYLhLapIQjNa38x1wKdGuJvr6hiURAwgM+V1Id0WyJRFBTK3w1l26SCnHCgzE/gNDayKiHx0oH2D4Ur58hhMhUvlYg87Ow7tABw+98lu53o2aj4Sw2eEvBcpHQJiUC4Hiv51JkBKp+KlHqp4DGG5PRIBWfq7vdJBo2GnLfmXoCTA5fbQmteDO0eB7t3ckr4/pzXJrzBh5US80t+nu+MfoOEh0cr3WI7yujJhRosy8FyyVCkxQdYBN0GZdCI6UYiOAvMd7Ei9U9EZoePKQPp1eSHtKLqk3Vir1+KgS2CBFFCwDiaxcPaSHGcf9ZfiII4xNsZkbLMTNzXw7SeCi6Lbef7JrjIqFJih6SPUWjeBTZnW8UVJAInoVbzEWtNLWSAIiM0XPEw2Nlv1GGfUsBHPdWjgc7hJFYxpPoqmwkWHjIw79nZJHAUNMoxsbpTddIoJCC5SKhSYoeUjzFz3ApNJzvT1lFAmAPn6njrN5bS3bwXc0V07UiY0qE7TWC/YviiBux693Y/gHxi79r2bPQULAWZL/bfbtS1kizc1+O8OWQsF4VNKCAMXaAZ44ULBcJTVL0ADcp1zA/5I4DJs2cdvr/OZZBFdTseRTkwFviCphABRj81N6ABFTYFiLh6q0mFj9LGEoNhAc9CO00xMAqpDqnFC2RT29mO5AULBdD+6BJigDoBL2FRbFhHI2uNQKg47OZ42CVD6uNVtDe0UkvClI+BQ51UVKpza49YkGdvnof6QBeNBY/SzjHba74waRp9F3kVzmyveiiwerg2IwsKVguElqkGABtv7K4FGyhVRW6Lps+1qbDF8gK9p+x1scQjSIEgAHWxg9PuPKHGGeRpQIbqfEWxmI4iFQHgz6HuiZQf+Z4fMbI9Y7hXDR1Io9eeI4j+X/Em5wULBcJLVKMkOIr6sOlYHEwnv3kgQzBsWx4vKymjmKlzumu1xBVYcLDics3o3Gp2402FjjWbeWzIzsLbz5m9iTarnmacfNY+MLwWSlYLhJapBghdfq6f0zyFLVyKdpM8gAwKL/C9LGeyyghNK0wA8wHvRpYaqlWeMJEuN30wOmIaMxPiVIpUFNUTu9TBb/Fgww/lO3omXnZH5gK9RtqkESa6x+rft6w9deb3mlW3v4QtWx43OK/hQVKwXKR0CBokWIC6KKzhkvhKvGWI4BlUUEDChPAEMtarcbNL+CYt3MPYKuAvUJnpbCFsOUmAjCUFPQeFBNzSdqHC6tmVYGXKT0jjV7wfGtKBL7M8KqJoYYszXnLTF3wP5k5HoaXMKHCjS58a8NQc3/eXwyPV5P/e3zeUcHKzxxL7/gm2yESX8Nb62OLkpZqZA/EGwse2s/j7/HnLJ5xLaFBiln08RZ/zKJo892LLbeeL1i6k0wAscyC49hqOY/GGE5H7CDJVG84iK1G9s+XmyJ8G0LXYzjX0U0H4X3IjoLZck7WMHiYLIX5Hc//vWkfFR60qwXPWE42hdjiDQmu+IpQ3ZjEh1vdzPfRjn9kep7dzdNuENaKsOH7DILBVr3v+P+qCVf9M1Wg3vdNIvz32YL/ZvGMawkNUswi1Vf2ExZFa4jtLAJgmGetiULWEmGjB3EagpjIWzcAXnntza+s2ktWgGt8Pb/c1rnGqG9XMWBtwW/wIFnuZlOv+qRc5uXCZ9V5K9aCpRJvwHgb1vwZBAv/KKhbmJAygaRXloIFDVIsAPaGc1yKB5F3ZT12WEx0UQYEnXjcsGAAgvZiYg6ZuIIEcLTRxIueb2hh9rtqZxzXiLeA93yTbYpqFoZ9rgtWZuYXOF/CC9aMrI8Iya6pnvn4RwLdhtgJFrRHsQjMY03ncgEgEkV1gKGQ+PviRg+O+5bgJjfCKwH7eVRoGmsC2CzuxEZnzJWo/ifHuTIwEJ6nqOob5iuEzcBVwYJoY+g72DstoQVrVHoOekOiWxFMtphf5CdYaOllFSm+4r5cLgCs3HuGdIDW7oLv2m70gAwtO8eFidWxoaa4M7QYm49cdLbzdnoeLc95Tc1qj4qYG/sy0+dkAwysHmI1013hKvwFVQQGYQ4tIQULw9qZWSPwXbxt4WfATrCgPYpVDJ976IchpWvkchHY4Ius9Ei81/LQ7nGxChjxmJduNNo9JjLbcQwRtUZX+9t0xG9XoTrciZF52TObJvtH0YZAf0xYW5pUxwTwCF+BK3WB/dLmU45/HLxcVrv3IPcKD7lZ4YJ4I37GqCZM7mPC3g3CkxbxnJ4ML66nW9oFFg0GeacThtGYoP8iIwN/zuIZB6E50B4FsDEsnM/lQiTDulGLgTfSGPWLW0TDfBMIczwQMey/gzUBm5fxLzhWDsdnpNMrnllxmAtZRENDtUHApvpHEnxgGNZhpXBZziBC52pYHjIyx6tvTFj2h8vdSjNYvEFh2MzidyPhGdIcxS6SfCXJLC5C0oqHDG+cWAVlUWuiEt2esYXIwionthOxqD2RCc1R7MLv3/YPIcVr4HIxkn9z6cNzJQDa87OoNdGJebFJ/k9NbQUKZI5jUXNCM6Q10BwlCmBYOJfFxUia6f6DLCwWdfYkInAQq2p60TZ78vpg+Mmi1oRmSGuUaJHkKfkLi4uRhF0CLnnRlh/sqWRRa08k5sO+y+0bLliYyGZRX6JT7Y5jE9o29kU3uFxUbyUCDJtbH4q8aEihYFFrTycm6WGfeBrlzKKmHsAborA+q673AiYX1euIyfOizUcJIYIizN94mEW9vYWhDdDYL4noHRb1JDqhMYpTSPEX/7RPWvAJl4vracTeQ1gVsF9y1poDNHfdIUKzCPQchGfLCOv+r72zCbWruuL4oh+0FnGk007sB04c2KGd2O59X5400BYe1ECxoyK0ldoK5exzC7e2g5JBLI60YuGs+xLS58yvkehIETVxIDgQQ1AHUYwaCREReXr+Kmjyosm7736sc87vBz8ISd57Z6+91uK+c/bZ+9mXQ4wDcTZ9Wz3G5kkqzRMxBtc/tY/VjGhBbYgxIM6qeovNm1xPbwkxuB46Q8PSPSu9EB7i+hH3onqLzYWdO5G+HWWQfXK3Dev0e+d0DmOIa0fci+op6i22CEaV3x1loH3yYLvQU5+YLsW5Dz7UvS2dgh3iuhH3qnqKLYo09uu4+b64k611w1032nUwqvaS1y4Ub7xztj36/uSnB1v8gkaFvdK31VNskeTKH40x2H47Kh7iOhAXpXqJLZq1cvimKANGxO6qXmLLIBU/FmXQiNhBix+zZZGKHwgxaETspsUP2AzMvu1M5a+GGDgidkx/VT3Elkmum7/EGDwidkn1Dls2G5OtK9ncDxF3o3qGeoetglRP7wwRBETshm3PsFWxcWjrCvbKQsTL9JR6hq2SUe23BwkGIgZWvcJWjV5czJW/HiUoiBhP9Qj1CotArv22KIFBxHiqR1gUdFJrqvxElOAgYiT9hHqERSLXm7+KERxEjKR6g0WEbZQRccf2x1HZV45cnyv/KESgEHGlqheoJ1hkcmnujRIwRFyd6gUWnfVq65pU+ZkoQUPEVehn1AusC4yK3xEjaIi4CtUDrCt8vv3M8SjBQ8Rl6sfVA6xLrJXpDdyARxyWqnnVvnWRVKYHowQSERevat66it7MTqV5JUQgEXGhqtZV89ZlRmP/WYhgIuJCVa1bH0jFH4gSVEScv6px6wvrk82rctWcDBFYRJyrqm3VuPWJXG3eyFNDxH6pmlZtWx/JZXpXlEAj4t5VTVtf0WKyXPkzUYKNiLOrWu7cAtHdsj4+em0qfjZK0BFx96qGVcs2BEZ1c2uIoCPiTKqGbUjk0twfJfiIePmqdm1o6ASNXPy5KJOAiJdWNRvm9Jtlkyb+fY67R+yIba2qZm3I5LL5c9ZnIcZWNapaNVDTmv4tysQg4k5Vowbn3YT/f5TJQcQvVG0anM/vJk9+Nxd/KsokIaKalT+l2jTYyf7JkavZPwsxiG0tqiYNvpo8PvzDVPnpEBOGOFj9tGrR4NKk2n+aq+aDGBOHOCxVe6pBg10dFfabVPl2lElEHIa+rdoz2D25+B9iTCLiMFTNGbBGCzG6rLWa3z2tf0aZVMRe2taYwfwYVX53iIlF7JvFDxnMn1Ht/w0xwYg9UTVlsBgmk4+/QdNCnF+zUk0ZLBZ9hI0y6YidlF8Dvww34hHDyg32i8KSB8RgsnRhxWihGyviES+lb7MoNAh6lYB3DxEvrmqD122CoZc12eUB8UL9NC8yB+XmSfMj9tNC/EzVgmrCIC7acCxV/nSIhEFc4U6hbL7XEbSlK3vE41BV7rOtcQfRI1yOEMOhqFxn2ULH0VlqHNaKvbfNcc4N7Ak6rZZj8bGvKrcHfyJz31i/57Hv5NLcHyXJEOehclq5bdBPRnVzayp+NkrCIc6icli5bNB/1sdHr82VPxMi8RB3qXJXOWwwHCaTJ7+Vy/QuniJiV1SuKmeVuwbDJFebN+aqORklKREvpnJUuWoA65PNq3LV/C9KciKeZ/EHlKMGcOGaLd5FxDC2ucjaKvhaNg5tXZHK9CD3tnBVKveUg8pFA7gc1sr0hlT58ShJjEPRjyv3DGCWJ4mj4nekys/ESGbsr35GucYTQNgz69XWNbk09/JrIs5b5ZRySzlmAPNkXzlyfSrNE1GSHTtum0vKKQNYJKnyX7eeCJH02EH9hHLIAJbF7+97/tu59tty5a/HKAKMrnJFOaPcMYBVoDflR7XfnqrmVJTCwHCeUo6wqwKEYf/k4e+lenonmwWilMoF5YRywwAisjHZujIX/2suzWshigaXruZeOaBcMIAuoPU0qfiB1mNRCgkXq+Zac85aKug0a+XwTbnyRzlSv4/6tuZWc2wAfSKN/bpcmv+0vh2j2HBWNYeaS82pAfQZPS3K9fQWLRzkU1eX9G3NmeaOJ34wSNYm0x/k0vybZRGhPaU50lwZAJhtbG198/MzFO9jaUQAi7+ludCcaG4MAL5mv/nx5kg7TebK3wlRwANQsVbMFXue9AHM+ArQ2ni6LxW/J5fm5SjF3RcVU8VWMeaVGYAFHFGW6ukfU/FHcmnORSn8rqiYKXaKIUdlASwRPalaGzcp1/6PXJrHOSB2p4qJYqMYKVY83QMIgm4Oa3vdUWn+lCo/OsSdJDRmjV0xUCy4YQ7QIbSTZdbTx9r/rKPMWp9Plb8fpcHMqsagsWhMGpvGyK6dAD1Enzr2jac/HlXTX2of8c9u6PtDrS+G+rWy+Fldk65N16hr1TXr2vnkBAAm9k+OXD36++Gf5LHfnGv/rRpF67+093jrg1rtnUvzQi7+ks7O069hrW+m0ryrTz7ap1zqz/o7/Zv+j/6vvkZfq++h76Xvqe+tn6GfpZ+pn61rMIAL+ASRe6KwcF17DQAAAABJRU5ErkJggg==;" parent="1" vertex="1">
          <mxGeometry x="149" y="382" width="28" height="28" as="geometry" />
        </mxCell>
        <mxCell id="_-kJSPt_qq9w9nPcTiiO-136" value="" style="shape=image;verticalLabelPosition=bottom;labelBackgroundColor=default;verticalAlign=top;aspect=fixed;imageAspect=0;image=data:image/png,iVBORw0KGgoAAAANSUhEUgAAAOEAAADhCAMAAAAJbSJIAAAAYFBMVEX///8irfYApvUAqfYApfUZq/bW7f3l9P72/P/t+P7e8f3K6Py84vz6/v/T7P3G5vzC5Pxuw/iV0vpmwfhOufeKzfmx3ftDtvd5x/mDy/nq9v5gv/id1fqn2ft/yfkqsPblc1kmAAAPyUlEQVR4nO2d54Krug6FdyCkl0kjk/7+b3mDCwEvy0WYZObcWf/2HpJgsOTPsiz/+/enP/3pT3/6mTovtpvdbnNYf/pG+tHy+sjyvKiUZ7ty8un7Sa5DlheDWs9G7m/jT99TSs3zfGAqzx7b0advLJXKIbRPvcn8/p8wymtmbaBu5W7x243y4Gjgf8Iov9EEUb/ZKHchDZRvsviVRrkPbKBu5a8zymPhb5fZyN9klJNHbAOF8ux4nX363oM0HbAaKBs5OMw/ff9enWNMEPTE1/z7a/npRrg0y9lvsG5lnl3K6acbQmmVdW6gauQPNcq1HUVZqoxy9ekGmSJYmytplJ9uVFMu1ma38icZJcXazzfRyf0Io/wJOECxdjG4Lm6XV+tZzX0y+seNkmLtfCP+vNLtyq+3TRW5iW3jx42SYu3spC4Yqwvyqr/ND4OMQQafjGZRrJ1t60tGqqM+5D9n2yOzkfsPGCXJ2sNb46q5HEuKo/6P822fMY1y+16jJFl7uGhdt1BN3L/+a7LYcBpZGeUbJ85n6g6H5j3cZEfNL63/Xd8LVivfZpQUaxcZ9qStauK38f+j7YNrlP1PnEnWzm3kfJftyA/wl/FtP+QaZa/RrC8KRYuz9fqNbGJ2tfztaZQcHKiiWafeGkmxdjGgLGQvm5CV9j/PTzyjzPb99FaKtYsHPU1XQ+eQ5BOeURZDW7foKpK1j65PqcFz6BjSxpyRMjP9V3fdiQbme+fHJvqOnJP4yWIX28h8l7R5tdOI/6GpvPMitzujl9b3OEbPt54vjNOFaqC/s2gKL/wD9irKKF09P1rkZAKHOpSm8EFI3HB8DTbK4tG1WbWW5GQizKNpCg+8o2l5CWtkTgxC0aInE6G/YKFwj76+A4wy1UucUj9gTCZcslO4Wyv/xNkCwwyNqV/JYhYdDgpRN1G/Pbu6J85J3OmIYO0ii4NDTeEn/6UtTa+ulxje7UnNqagowdq0VPAqi37sa8dbzGK/DLQgWTs+bqsp/Oa/tKFz6Vq/y7vOMm5UAx+c6bam8GAHNbptPHOPPO5xgbYs1qalKTzARU3X233mnz8WcZ7LFDWZ8LA2rZrC3X1rXH5XGYDtphCrBQXzVoSowH0HqFcUPsjICezqeskzc6x/zusHm3K+sLBjFuvwGiID910mZuNM3bLFUU0XhyN0zOery46Hhbq8hF6Vh1OHqU6sTaum8PZbnJXfA9OnVEmq+eU6b/L61ryrInZ8rdWRtWmpheMiOyh3PJlvL5m1Y36XOGuGl8hE0+6sTWuhbrLILtuyPD2sHXN/+LIPuBfzxjJWmDg0cM/Tq6cV5vxBdMzdzcHTV7Ob5pyUHDJJJoq1aRHf/nx1j3vpCRPOoYUM+CYD950RSekbvl90zO06oMMtwRDjB2c6cJ8qCntv98w8Kza34Id3hI4V+/NU4J7D2gE3mef3RdSTO5jP37pi4hAZuGextlWzRkezLNp4tABDjINvMnB/TJdf92h8bfx4fTbvMA6+k7M2qhW3yxlfgCNZxIfJwH1MAMmtFksUHIbfwJgfDt9k4L7bJKypNksUHIi/gSEGYwgVuM/YcAuq02zUkMuZSc/Y8E1OJtItgKi4XfFYj0/i11hQCaYU9pzIwP2wYySkIRW3kzEQYU4sqNzDOwjx8/RkIgVrS6m4nfLLo+olsiK6MEcMeU4TajKRiLUrqbhdHQMRL5QzCiF8B8xZiTcYG9d2CZJrRGfjRHQnMOb7B7MDNUyky3g4ydtqxEBEZ4uFSiGAby84jInNkelY25ZYI4L1rIjuCcZ833PC+ZpoYDrW1kNtKwYiOhsroovw7Ymt4KRSNDAha6uh1vDLlfEXMVCphfDtYaPSZoU9sLbpl8VEmBXRNfuc7znZOmnEerRPaqjFGIjobKyILsK322PYhopOywEtadZGvyzi3wUnwBwL3xYzTJeMo1jb6pfFnzjwPQL4dj4nGEC5fcd6L5q1bX55JwyR49Di4HvaYwtbrA0Sne0N8G0bLIo742dRbdYGSfjmLIQgfDvTTrCBXucUJs3aJDYKV8OJkEDygvs5ge+tlCDbiEpkf0l0Nk40KhK+wfeKjzCX6l/SrO2IMYjO5oVKm2CEcz4n8L2yiR3HfM3arnFHwjdnwe4eB9/2GGK3HFzN2s65g4RvTsAtEr7B96oPdViwt7M2iA3f4zj4Bt+rm8hesidYGyThm+O3gWqcrpFMHGMu2mvW9sdAyjfBt43b1Mc4XoBmbVBK+HbuOMXZxUN7ivhNcXU+akjnexd8g+99IoJaZ4vOwh3lDtYGJYRv5+gGs/zqgSgkoRO0rKpZO+yuJXxzcpkRvl1Xg+8VHUdm9VoTtEh5WBu0ehd8gzMVHUevtoXH3LysDUoI30642IEhipFMupvwnH/N2hEhwoTw7WQw9L2y48jE5VAK16wdM7ncClfTP3yvwNVcml8TRuHfnFT1LzZ8Q4jQ7RMxb1P+/1ImToRQeBBrg/jwDQNAJHzrjjNRfOK9h0DWBgn45sy3Z2CITuvATCP9QM5yBPdRuM7Dj2ag7zfB9xdcXr809ayc2yRq1o4fuyV8c8qYwADgzAqAkGLjgayGvv5XszbDJ87Y8I2pps4OBL638UBU4jLZA+tNoqy8efFhTsgEBgB3pB58b7PjqBR5Yr6nWTuCfZqS8M35ZEf4bj2Qq4PCNWs7NuU7dWXDd1yqKfje9gM5kBSuWZsdfVyxV7txAHAGFRC+W3++ExQez9og4Wo4gT0YANzPCdL8jQeys1I4g7VBorNx4BsHAOdzQt9rPBA10Wj1RsXaeaeFHNHZIifaUpDnFAnf5ns5AoVr1u62Uehd8I2LbLDSLcfMF4VfHNVnIiQ6G2s9DwcAJxWj7zUH8KX6GvVyNWt33ig0+Bh8wwOZyj08+aOcjUu9IbR7Zbx3wTcsdlhyb8+6Tkm9oTPFnn8J35xyZXH7vHA93zKIm/0iSVED8aWs9I/IfV7ge22R2lWriR03Gmux4TtynxcsdlgfSMt/FWnybi5c+I7c50UF3Aw1fW6i4iISvjnZuh3h2x6pNTxSilJ/b4NvKuDWVtsjJSn1t2TDd+Q+L/S91qgEzEK6l/pLCN9O34eLHVZcsezMEKX+OtTfTAjfzqwA8L32SK0O6RTGLuUOB1d8sVe7Eb5dwSLwvXZXqaIW2e5wMmqPCaPkhKM+CN8WWJTry8VevC4sncszyoTw7dznBWn+tkitWC1qEN1yYdazzrPBKTKnUsJ3//u8EL4tzPKwbMky61lXtVY2i4jgGx++41JNIc3fAkFyRRw9uyjL1do+WRll6JSID99hrFkLXC9CkCAsu5OFWnkRB1ew4RsXSuNSTRGC5OBM9aflwqyVF3iaDBe+Rxh8iUs1BQiSEOG8FZtRek+TYcK3bd9kXKopwKJwCV6EtBml++CKOQe+p9bkX3cCkhe+RW8KoY9Io1zG7vMa3TZEWUX3oIO+tw2LEntCBy4oYOk4uELYd9hWnYmqdEbte3W+Q4Tv9uv6ivV5q8PDYpSWCw9h+7zGiztUOvN0u7Yg08iAIMEekeYCVWWtNfID9nmNbjusdIbyVG72wLfcRR8N15Ny5zNKQRskVE7CSvCJr/asMbhWu/X8ihecgUMRDKPM8XlKjUtvx2zKt80IU02bHxDGwt/YZtZfbx5coXyY4WztHdN1HpE3Md692j1gZ6FpQf11NXFeKpx6vcTpl61j6jJ1Z/vm5YBUTkzzb0CQzAzh7B5oCk4qed50potTFY+Ka4iO2SxTB0El3ULvjMa12i3GElbui6n5aZARTjEb7O0ds1WmjipbGZB7j5lGr04pqTtRIQnyUATYx2wpU0eWiA8ISSJ810/lTEwN2Qo4FMFepo6qNBOUCYvwXc8Fb/TUkC3HoQh0mTqq0kxgejm4mtqzyIzl9GeFrU8FPNaqJitRpo6sNBOa8oLwrcx74p8asrVq3HXFO6cFyU1k2crgnWhbKuAmyJGVVx+iuopbMShdDp8uER9czgpTTdXwILxssuMITOlwhCf5iDzbNSK9HPd5KfuNmhrGS+WyuBs4p8pWRqWXI3yL/16zw2Fh2hmRZpvI86bi0ssx1VQMtnfG1DBGsqqSMxZFnu0aWc4K4Vs0S04N+zv3TDCvc2JGlq2MjdHhYkeFQity/pZGcoHN5S6ospWMcla4yPuv89TQK7k243gZ9Nmu8dlUuNo9Vv4nYXUzU3LNjv47VSKeVc4KM40WuuvyW+CRiI841v46sTYIU02/1dQwXRVMUwfLml1DHVkbhJFv+VpTTQ0tErBJTcw6szYIVrv1nhju/Xs1cwX1u7M2CDKNVDPT1aI1tXXEg+kS8fx4Cqx2q0eWrtKnKTGzsC840KzdIfvaVjqKvIMUkgFvq9cgS8R3y762dvzepoZ6W76NeWnW7hZrsIZbe5saauq2sEkq1sYvtq6tpiv2aUhOSS1jN8naneEK93mlqBxFakFUVkjI2iDbO+zPDHf25ZA7NUykKB1rWRXoceZkXw6hSsSnKR0L8G19yIm0ti6HUIH7RKVjIdW0Ul8xmruNuo/UykSiu7BW3s0vHY4Ac0hSffv3k7M2COG76iDBaWoxWuFyCFlBvdORaG1Bqqn+ibA0tRjJqWETUc7UelTCYxoo+B6ojJiY3FGfHmbSHpzvUDcwZZgIU01brazS1BJFv2dmmSGatdMGaylTbzQyjVFejU2y6zRx7cAf9siRphYu4dNezEud7ZrymAYpe6V2eJMhuaNOTdvUTZ7t2kMgM+Qlyh/35Y46dWtRN3W2a8pjGl56ED9mbyTXKPfNDUHUcUwpj2loaBqUKPd6yqyRctlckOmXtS2ijuQm3yRjpFw0FmR6Zm2bRnFvUdxNzC6Lf/rIIOFFqMB9wmMaUNNjfBuFUW5DjbKmbvI4poRHoll1GzDaGL71aa6pmw7c9xeG1voik5ackluffB5CAP5zrDhTX5OStR2qMgmDc3SbrfTuR5SPbl8myCHpKjKT0CfnfsQ6iYb4cGLW9gl3U4ap2iR8t2+Uoups6wb2t1BCaQK7KcNbiRsQfBOY5KwdqC5GeTXOG3fRfR+sHawuRtmcbhHl7tW1/aXuBOlplEPuIKJ3BVEYKq7rh7XjBBthglv5nG5dyy0VTxOX9MXa0Vqbu9OCG+n8WI+rQAytuEZJq1fWZgl2p3VsYM+szRNsGe3QwLS7AVIKtoyy1LGCX98yt4wyGtixgt8bBPu4o9S9gt9bNGEb5QdYmy2WUX6KtblaHeIYPTpf+ycoyig/zdpchY6UP4K1uVoGGOXPYW2uzIonZgN/FGtz5TDKn8faXNmNshi+L2j4BkFtsCK79JVt9TkJoywq5Vl++u+1T2h2u+92m1P5Cwf5P/3pT3/6f9L/AFvUv+CNc2zeAAAAAElFTkSuQmCC;" parent="1" vertex="1">
          <mxGeometry x="-295" y="460.25" width="21.5" height="21.5" as="geometry" />
        </mxCell>
        <mxCell id="_-kJSPt_qq9w9nPcTiiO-137" value="InfluxDB" style="text;html=1;align=center;verticalAlign=middle;whiteSpace=wrap;rounded=0;" parent="1" vertex="1">
          <mxGeometry x="-278.5" y="456" width="60" height="30" as="geometry" />
        </mxCell>
        <mxCell id="_-kJSPt_qq9w9nPcTiiO-138" value="MySQL" style="text;html=1;align=center;verticalAlign=middle;whiteSpace=wrap;rounded=0;" parent="1" vertex="1">
          <mxGeometry x="171" y="382" width="60" height="30" as="geometry" />
        </mxCell>
        <mxCell id="_-kJSPt_qq9w9nPcTiiO-139" value="" style="shape=image;verticalLabelPosition=bottom;labelBackgroundColor=default;verticalAlign=top;aspect=fixed;imageAspect=0;image=data:image/png,iVBORw0KGgoAAAANSUhEUgAAAOEAAADhCAMAAAAJbSJIAAAAk1BMVEX////YLCDYKBvWFQD76+rZLiHXJxrXHw7XIhPWCwDXJRf3397WEQDXIRHXHAnojor88O/++fj10M7nioXvtLHbPzX99PP32dfqm5f++vnzxcP21NLaNivplZHcSD/65uXjdG7trKnfW1TxvLnkenXtp6P0ysjgYFnfXFXhaWLmgn3dTEPeVU3ibmjtqabcSkHaOzDnFS/0AAARLUlEQVR4nO1daZuyOgwdWwXKroAoKqC4jNuM///X3VZncYE2wW3e+3i+zqikpFlO0vTt7YUXXnjhhRdeeOGFF1544YUXXrgTuu1nP8Hd0J3PthFlts1oOh3H/Wc/z23Rjnvvtu0apLGH5lBG8tB/9mPdDJ0gsl2zcQpiULL8XwgZezuqk0YpDGrmg2c/4HVoziJWJd6XkKw1az77MeuiW2wplYp3UFdKt8m/aHcGq6F9vvcqX6QdjaxnPzAO/mxHHfXrO3qRLl0X/8yLbCdb5mLEO0CznVX87GeHIOauwUCLd4Bub8Z/3H+0w82Fa9AwMpqUTP+w/+jkjF7Is5u4En9R8heH+48/+SKzWcrKtJNalheVW1XNpWmZ8Nx/5PO/ZnaSrXP5+g56N+HKWywvbI/msnUv6+nl79aw0172bKF+kY1atNq42HPxP83e8Mh/mJSm+1BmV6nAmusukicLdkA3nMgDM2399Z+daYOae/GM9/HhBSVU8sGGaRve01/kIGgpIxdafP93c7xh1F2Ofx57qfArxLWXRfc5ogn4H+vKtOH4JUZHViM+Tpiyil148iLpMHhSRDfncTXM19FZxVeMXMjHiW6n4cO5j6y3K/UN5XDLn68/hMZ2GtVXjwwE+sXSRQSehLKw9HsSG/wdPBCwNx8PSiStYCjxDRfi6WxXFaKsHYSE4kWaeefu4rXDT0XSfgKDDiX5wmwtC+hKv48Ne3d9kYOAAI2LAOGOIZGb+jiAp8lfX+raeXIns9Mdg3zDNxwWQQiYboFOJg0aje4QCHQqA8/ylSbwbLbZQxICghHYFOovRkBQZpislkQfuPxnMB2CXOMveER3s0CgP88hlNkZhp/v+cqbFQMrAwnbnUXYn9DZIrxBRJeNdgjf8AtCTMPRXWq72jBav+fBrEjKtqUfz4uxl08+0yH+R3hEN72O2ukXkzqc0oWwmmlwYVl0JNi8+Bjl65ZtUw7dMEnFzxC5qSXcoI1rv8jYU+cNKBzFp+9MyKWpVo+/pKWp2CKE2tM6jEC3mGB8Awz6t55agKRCbLQNz0RECKxYaMNOsf4jXh2S1WoIzeP7TEB3DFP5NvZw8q/vByQVJqU/xnJ+SYKcP46rT+D+wx+nTOKfiKlz2xqtF9xW9nqzXs9b5Yt1RLjamSo5D4zGW1uVVBDXXZw8sN9LVQZPLAnI7HSmrsS1my4bLr0izs4Dp3YWF95yyC7qhCf4YjQKeVJhlpYxOrmuclpcrceKOKrJl6o64Ncom8wsmeXqWrMJkz3HwdhsJMtAXLasKEUBAg+TNmT5R7KkruT10RREufvjSLKHGf8Ki1X+mScj0uShk6uCRyK+ovQ5s57UNxC6mAPEO2C+qHyPwtgEFZZUo1qu/BFfJABSGYUaBOemlWftVGqt9B2Ou0x2VU9BO/0yLl8kI2tgNXiw0lVZgGv2jj/R5sG93DfQJTYl6y4rqFBzMi5xFXyLYyoyXbm5F7C3v//tKSMzPUfKJzCt0sULY0F0uh5jlzBeteSvhQZf/zk2ld5XS2sI+PYWwUIiHpnV49G64URmtsnwYG+mTP0ctF62WUgp+y/obHJFCmR9yp5+v6tXkKdg9cp53Wqn8ANyDR/h96Q5ZUtImEEEvKeEWu032E9UwepeQhitfk8t1ai5qkGCZr1IlXAcJPRAWYy2qSXhGshcOXQ9w73IZGkAEnOEhA03UP7oJQI4t6RRCmezM89UeO8aEjbsFVa+PsiG/cKA0qsLMOeOkrBBNziXNVjjBGyIyNdURaWWh6HIcRLyxDCH05NZDtOjcxg0Kk8L9gg3mIoXWkKhRxNFFeKAdjJB0ccnENlhKa0UBxS7amgJRe5NpqHcQ2fFlFxJ0Jnsoizhi24I9BfVkLAh9Ej/zD861uUy963OLF/rtejjMxDXWR4la/FUEWNXoJ6EDZEbUKqTaJJ7s3EYFmE4nnn5JOIJgmugetgOnFb5n0zaOrxInichyzY/qC3h99MJGvsAV3DWqA9rBv9sI10G4WBRsSp8Ry6SpKxTDoorJawL/tps1tpMR4W1d3+y0M6kV+n8gyUkhL82xsyJN577v9muf3Ne/RcPk5CYjkudVrrtFfFFIr+4gWGqwgMkFLuNGelyNetY5STFGB35IHBXCTWHUqav+W6LmxICJoOVO2riPhJqwgHY7no1Tprqitc9dfROEg4321HRgVICM0xPFB73kJBEmFRWQu7fBvd4h8QlU3AqK6vP3OJZdt07SNgQnEQUgmrOvXvaUQ46eruPhPtuL0CrS3xnAd0DuQTj2vDQ7aXqFFN6Xx2li4OXyq7vJamASXfSQqB311eoMe/7h5L6obsK+3S9SsDOPe0oodERq9Rp3TFwM1haXldvR3dbWL4DyUnt8M3PAbWZ2tBoaZMigkvFQmfBxaJ2dvdT1YZwH5vzNu/5vXSUuHRVqjRhelcZNaqfcEttHCMABqGtUWXEGKbKQsdVcO0jkrCqOnwdNDuSnurrJ+/1WU4IDJp+sb2gmhQWJlurQykrx3HKWPBNIuYL+K2b/wjR6RJWdWh6w3p0PBTcfRT5rXWU0AaiIbobbu6rrNotKOOTL7QrT6xUoaNsdfxDcNi6zjwGf3RnZb0RiGvK2rx9WVzcLiY27lDS42HakfyE0ErR5hFPbfwZhMfBYJNC3kbVo0J+X0ar+LO/qqzC76jagQN7z9PEVac7v5As9b9ndUTqqbKe8Scle67NYqpWmQxVOn8ADPauUE/u80ZC+b4kPPA10n8vNuyvWB2eVSvV8+1tvNsnZ18SNmiqpv/ilXnX5AMIk7aU6snD3taXhfyWsKExQJeFP0trz2S5EQx7oo6t22FkfxuOHwl5YKBP1TL25/kzYx3XBkwF685+5TuRUOThAPV+a46M57gPjdKRumHK9xonHvxEwkO3jFrGt2LjPrwwbtB1+Wn3E8T5eTvYmYQih0wh59webXVcHdLUlywu7f2FhEIZhpBZIv7HnSmP4ycyAE3E/fFnmc8ukfCQLEMOjnQUxzNuA4N+AtTTH2nlSlUqYWPfdAVR1mavYjTSrUBcYwtgJniCULXWVRLuSTkIK9AuFvbdrA757omSol+8S5K8agmFssImGFmBfRerw/UIUIPsKo76yCRs7PsQIfRHP/y8NfHCl3cJsJ5WtXrCJNxPoAAdRerkqrPIKPlAW6Rf5h3QEjb2M2FgVmd3I6vD1RPQ6yCCZMjvASTc144ujvKVIdlghrpUwAHFVdYKqjMgCfcjdCYQwk4M5rnG6iiIs2/MAep5gJb2YRI2DqwW4EV2w03tDEt4B3Vs3R1/wqMpe/wGlnDvftXnV9/EQfBaGZbJhoD9nqG0xJ7uP2TB+64MuoOMFPNH6KZsg24A248HioidTuzvYz5LRFQi+mQAO6VfbCQn3i+gu4DUtIusb+qtH4bNj1CBl24vlETXmziKDK3T6XSl9n7ZCGfENJYfBSvdiY3aOCYdAkzCm98zbPVDlXUVXC7X1kHtbWKnZybjw8TFz9I+mSMUa3k8x61XoIwL+2H53NdKaDS6pICbU2xoyUMPyPy7+bZ6NgDhoYTyK7LeEKAJxw9mVxAe8RZbFiW0AfHP1qo8PDZtwKzgwRRyjvL4W5nEKFtbGxl1EQdEEPm91tmZF2JSCsjNuJKjmHbCraA8UWh6LWyKoFEXchR7vkr3o6A0MS6K0iHgzodmr4FTT65TAKMMDdmP4dKqUSsnsApvuthsFnkwjtVZZ7xSTqI5BbyW30/wRRhTeiqyBpJ3JCVrshTipL9h4elQMazxVlM3uzNk0CcIl4of71eJXUdZDbauPzXtF1ngItWTtqoZ3qTaRohxBVgWjf8WbA5VNTpbvHpKph419yxGv8pKcEeGVladIgaKXUAVAl3+HJNOPcpa5r6OX+1B+mPkTzaEI9frjYjtzkycd9C4d5A6qrFtHpioocwIdWq08rmI6QjfsDwkW8eDM/n4UGth/3BtqXTNFeOxSuHYG9iRki/EuY7ridZVkb8f6EL7viQ0HUXolVzeyaGCSU0PqqydBW4vaFRX8Kn9nnNYsR++lG0UNtAKWnirw7YQZZ1vcHU6k6YKPtXv/WjELyNsKkvk/hjfkynashTKmkxwW4BbT0XE3vQavw3Ix5y3Qd9VK97B3/9j0t1MYsiSCSp6IZSp6H4ejx0/4ymrL2I7hYx+D93mRiit2JDtEFcI4NGvbLUEOudc8XndAhKfF0vVQL8L8A15MS+k3QET819fokwo28Xljr6szBDaUuZYVoAOzA17lxe/32sVqxTVuwogMf1eVBIwlNWeIJXRdoh7wMZ+HKUzXG9XwWq5Hjq4MRcmbaiqUVlQznZUVNcgDEpnqqErhkQzHMcBTuP9gU7fVSveqcwSKuuHhBrKifHNGhkWGoSaqgcRRwsqn0NWIXXou8qy9ufwkVS1YNpDlTI15R338howt3XKLCHzVAOj68NRV2sGuaKnR1XlJq6tDLz64QTtPgAglKjIWOEdVFEWoI5vsI3yjoN4hSQelNBs5T0ksHYlSKeCSDSVraf+bHjDNjdxMkoRzsZTExZAwur4xGEb5fWZ8xu19AM6vfrJJ5DwPExoBVW5udooqW1rdH3DCaCW7/d2YLbD3Ze5gXV84urKglq3mFzV0g/oGIxXBL7nzcOQXfh4EUMd3PMNUrsn07GV3gFHNujDgzp0d5jLjZgy1unO0houkriOqpbfxZkz8jueO0GdG3d43q6itpMlsieTyHjrA+IAmW0ZR+RTgiVK1I3SWYC4eYdHwarcYb7AceEmy08MVrbGeWxRiVRZnfY4gjFoGo0UVF/7A3nuyqSTC43/aGDvWmJD5bzYOYAO0GiqkM/ykBGTUX7Bge9ho0ue2CinJVkrKl05YquiF8gqncCp5jCbAZpJA5Tx/V71dSfc/SkStLHy3pVTiHNtsghTNE0jCRhNze9VPKbm6oq9nHnIoZeikqjKEtrhBh146UzZBTbfOqdCmuKqY/nKdHK5gl/AhFZo5/jKqPJENd8CYa4z6uqOuKWM2ZNeLN1+fXSbqsGUbM4vrMDAl/GpurfeKmbedBrMClVvvN8jyEK+SwFnC4/RHuPPFxjVd43iIDkBUw6N7iCNhOeY5zZ2ypHgxa6+zjZZIrMTg23qXq2QebJrrcrhXHmv5BgZtEMreJUIZXdblUOjet2bwpsj5JIK73D1rbKDKf4wDF9X+LVQP4hXyG1h0M1t7rEW14Chm4fsNehqr1+ggzOd3fLm4xrUtpjRBrffPHVHLaJG3bpboQoZfrQScaA+OGzh+mhgp57RaIf4aTWQc9P9MMW10esUdK6lFuIVOvnQVF39YYQyn6S+pYahO0NfmysLqNozXEuyAR1texVqTKtx2LLknvD+YIUaYERct44TqoNshLQM++Qj6BzvyO5gtEYW8hverS6oBqBdfKru5bt4Qp0O371iPogH88KbDGUXZZasEBve4m5qFKwpQWdY+1Ht4gJn9X2zp4vjgs7n3Bz+x/oR02oIHd7s/nQ85vguMCREqeamhwDQaI6At4PVAYR3fgTucXe3gAabW/EQxAGipAcED/iU7QOPRHesvGgZBQd2OP6x6CxvNbyWuJChXM/AbabVaPaNj1DdFG1xMeFV8pkM1+P/BFjBFRdsOazqgNbfQg02WYC4JoL3eDI6OTrDIrb8oog/h2yEapTm5uU2xOAj0Q8/oYG5SZVnBP4oBltId52pPufxh5GNVPGcKT9A+A+g+zFk1RvSYJN/+P39IKk4pcmjs+2VZ2r/DDq5c55F8twvhUxl+mfQnL3bP/SM5lAWBYM/Hp3h0S1G7y2bMWZuAsWFwi+88MILL7zwwgsvvPDCCy+88MILl/gPaWZcSn7Y1PkAAAAASUVORK5CYII=;" parent="1" vertex="1">
          <mxGeometry x="154" y="539.88" width="35" height="35" as="geometry" />
        </mxCell>
        <mxCell id="_-kJSPt_qq9w9nPcTiiO-140" value="Redis" style="text;html=1;align=center;verticalAlign=middle;whiteSpace=wrap;rounded=0;" parent="1" vertex="1">
          <mxGeometry x="182.25" y="542.38" width="60" height="30" as="geometry" />
        </mxCell>
        <mxCell id="_-kJSPt_qq9w9nPcTiiO-141" style="edgeStyle=orthogonalEdgeStyle;rounded=0;orthogonalLoop=1;jettySize=auto;html=1;exitX=1;exitY=0.75;exitDx=0;exitDy=0;entryX=0;entryY=0.5;entryDx=0;entryDy=0;entryPerimeter=0;" parent="1" source="_-kJSPt_qq9w9nPcTiiO-112" target="_-kJSPt_qq9w9nPcTiiO-118" edge="1">
          <mxGeometry relative="1" as="geometry" />
        </mxCell>
        <mxCell id="_-kJSPt_qq9w9nPcTiiO-142" value="&lt;h1 style=&quot;margin-top: 0px;&quot;&gt;IOTEATIME 서비스 아키텍쳐&lt;/h1&gt;&lt;p&gt;&lt;span style=&quot;background-color: initial;&quot;&gt;Copyright©️2024. All rights reserved by IOTEATIME.&lt;/span&gt;&lt;br&gt;&lt;/p&gt;" style="text;html=1;whiteSpace=wrap;overflow=hidden;rounded=0;" parent="1" vertex="1">
          <mxGeometry x="-320" y="312" width="320" height="70" as="geometry" />
        </mxCell>
        <mxCell id="_-kJSPt_qq9w9nPcTiiO-143" value="" style="shape=image;verticalLabelPosition=bottom;labelBackgroundColor=default;verticalAlign=top;aspect=fixed;imageAspect=0;image=data:image/jpeg,/9j/4AAQSkZJRgABAQAAAQABAAD/2wCEAAkGBxEOEA4PDxATEA8OEREPDxAPERoRDg4OFhcXGRYSFhQZHioiGRsoHxcWIzMjJystMDEwGCE2OzYuOiovMC0BCwsLDw4PHBERGzoeIiUtLy0tMS0wLy8tLS8tMC8tLS8vLS0vLzIvLy8vLzAtLy0tLy8vLy8tMS8tLy8vLy8vL//AABEIAOsA1gMBIgACEQEDEQH/xAAcAAEAAgMBAQEAAAAAAAAAAAAAAQIEBQcGAwj/xABHEAACAQMAAwsFDAoDAQEAAAAAAQIDBBEFITEGEhMyQVFSYXGRoQcUgZPRFRYiQlNicnSSsdLhFyMkMzRUgrKzwXOi8GND/8QAGgEBAAIDAQAAAAAAAAAAAAAAAAIEAQMFBv/EADURAAIBAgIGCAUEAwEAAAAAAAABAgMRBCEFEjFRYZEUMkFxgaGx4RUiwdHwEzOi8UJSciP/2gAMAwEAAhEDEQA/AO4gAAAAAAAAHyr14U4ynOShCOuUpPEUu1lpzUU5SeFFNtvYktrOTbpNOTvareWqUG+ChyJdJrpPw2G2jSdR7kaa1VU1vZ6zSO7yjB72hTlWfSk+Dh6MrL7kefu9215UzvJQprk4OCbx2zyebbPpUtqkY7+VOcYdKUGo97WC/GhTj2X7yjKvUl227jLr6eu58a5rf0zcF3RwYdS8qy41WpL6VST+9nwbKtm3VS2LyRq1m9r82WlJva89pVVGtja7Hghso2AZUNI148WtVj9GpKP3MyqG6e9p8W6q/wBf6z+9M1LZDMOMXtRJSlv8z19h5Qrmm0qsKdaPLq4Ko/StX/U9roLdPb3vwacnGrjLo1Pg1Otrkkuz04OMsQm4tSi3GUWnGUXiUZLY01sZpnh4SWWRthiJx25n6DB4/cNup88i6FdrzimsqWzhodLHSXKvTz49gc+cXF2Z0IyUldAAESQAAAAAAAAAAAAAAAAABo92dw6djXa2zUafonJJ+DZydnTvKE/2J/8AJT+85g2dHCdTxOdi38/ge+3A6Ehwau6kVKcpSVLfLKpxi8OSXSbT18y6z2slnU9aepp7GeX8n1/CpaqjlcJQclKPK4Sk5KXZra9B6op123Ud/wARcoWVNWOX7vNCwtalOrSio062+zBaowqLGcLkTT2dTPKtnt/KZpGMpUbeLTlTzUqY+K2sRj24y+7nPDNl+g26auUK6SqOwbKthsozaagyrJZVgBkNhsq2AZGjb+VtWpV4cajNTwvjL40exrK9J3ujVU4xlF5jNKUXzxaymfnlnd9zUm7Kyb2u2oP/AKRKWLSyZdwj2o2YAKZcAAAAAAAAAAAAAAAAAAPM+UL+Cf8AyU/9nLmzqe7yhOpaONOEqkuEg97CLlLGvXhHOXoa6/lq3qZ+w6GFa/T8Tn4pN1Ml2GNa3VSjNTpzlTnHZKLw+zrXUberuyvpR3vDYysOUacVN+nGr0Gvehrr+Wrepn7Cr0Ndfy1f1M/YbpKDzdmaY/qLJXRhTm5Nyk25SbbbeW29rb5WUbM96Fu/5av6mfsKvQt3/K1/Uz9hLWW8jqS3GvbIZnT0PdJNu2rJJNtujNJJbW3g1+TKaewNNbUGyGyWyrYMBso2GyrYMhs7tuX/AIGx+rUP8cTg7Z3jcv8AwNj9Wof44lTF9Vd5bwu1m1ABRLoAAAAAAAAAANLui0/TsoJv4dSS/V008N/Ob5ImYxcnZGJSUVdm3nNRTlJpJa228JLrZprndXZU3h11J/8Azi6i+1FNeJzfSumK13LfVZtrOY01qpQ7I/7eX1mvZdhhFtk+RSni3/iuZ0/38WfSqerZHv5s+lU9Wzl7ZVsn0SnxIdKqcDqPv7sulU9Wx7+7LpT9WzljZDY6JT4jpVQ6n7/LLpVPVMe/yy6VT1TOVNlWx0WnxHSqnA6t7/bLpVPVMj3/ANj0qnqmcoZVjotPiZ6VU4HUL/d1ZTo1YRlU306c4xzSaW+cWkcuDZVs2U6UafVNVSrKe0NlGyWyrZsIENlWyWyrYMkNnedzDxYWXVa0P8cTgp3nc3/AWX1Wj/jRTxnVTLWE6zM7z2HOPPIc5rgeUWkq/Dl7nX/RibFXkOd9x9oTT2NPsNQIzaeU8NE4aTmn88U1wy9WzDorsZugY1pX3617VtMk7FOpGpFSjmmV2mnZgAEzBiaRu429KdafFpx3z52+SK628L0nINJX07irOrVeZzeeqK5IrqR7TykXrjCjQT48nUn9GOqKfpbf9J4FnQwsLR1t/oc/FTvLV3eoZVsNkNloqkNlWyWyGwCGyGw2VbMGQ2UYZVgBkMNkNgBso2GyrYMhsq2GyrYMhsqGDAB3nc1/AWX1Wj/jRwY71udjvbCzT2q1o59XEp4zqc/Qt4TrM+ZGQRk8J2HcBGRkgwZL0au8kpLk8ec3KfKjQ5NtYVN9BdWo6miq3zSpvtzX1+nI0V45KRlAA7hVOW7vLnhL2pHkpQhSXdv34z8DzjZnacrcJc3M+lWq4+ipNLwSNe2dimrQS4HHqO82+IbKthshskRDZVsNlWzBkNlGyWyrADKthhsAhsq2S2UbAIbKtktlWwSDZVsNkGAAAlycr1JLa3zAGTo2xlc1qNCHGqzjBdSe2XYll+g75XSp0lGOpKKhFcySxjuPI+T3cnK1XnVxHFepHewpvbRpva3zTfgtXKz0t9X30sLZHxOJpXFqFNpcUu9/Y6eDotZv8RjZIyMkHkTqgjIK5ImSTP0VPXOPUn7TXGVo2WKiXPleGSxgp6uIh3255fUjVV4M3IAPVnPOF1p76UpdKTfe8nzbLVY72Uo9FtdzKNnaOKGyrYbKtmDIbKNktlGAGyGSk20km22kklltvYkuVnR9yu4aFNRrXkVOo8ONF64U/p9KXVs7SFSooK7NlOm5uyPC6N0Lc3WuhRnUj08b2H25YXib2n5PL2Sy3Rj1SqSb8Is6fKvCHwVyalFbF1Hxd++SK7zk1tLU4O11ybL8MCrZ5+Rzh+Te8+Uoesn+Ar+je9+Uofbn+A6T57Lojz6XRNPxqG/+LJ9Bju8zmn6Nb35Sh6yf4A/Jpe/KW/25/gOl+ey6I8+fRHxqG/8Aix0GO7zOZ/ozvflLf1k/wD9Gd78pb+sn+A6X5/Lojz+XRHxqn/t/FjoC3eZzu18mFw3+tr0YLnpqVR9zUT1+gNx1rYtVEnUrR/8A1q4bj9FbI9u3rNnK/lyLBjVa0pcZt/8AuYr1tNRatG78l9/I208Eou/uZV1eZzGGzllz9hgjJGTgV6860taf9dxejBRVkMkAg0ExkgEZI3Mg+1nLFSn247z4ZPrZ/vIfS/2SpP8A9If9L1Elkz0AAPaHLOJ6dpcHdXMNm9rVcfR3za8MGA2ei3f23B31R8lWFOqu7evxgzzjZ14O8U+ByKitJriQ2VbJbKMkRDKsMmMXJqMdcpNJLnb1JAHvfJroFSzfVI5w3C3T2ZWqVX74rsl1HuLyv8VelkWVtG1oU6UeLRhGC62ljPpeswzy+lcXLqxe309/udzC0VGPd6gAHBLgAIyASQQRkjcySRkjJGSNzNgRkZIItmQRkEESQIBGSJkZIyMkZI3MjJkaOWasOrPgjFybHQsMylLo/eyxgoa+Iprinyz+hCq9WDZuAAexOYeC8qNlmNvXS4rlSl/V8KP3S7znzZ23Tmjld29WhLVwkfgyfxZrXGXoaRxOvSlCc4Ti4zhJwnF7YyTw0dDCzvDV3ehz8VC09befNsqyWVZZKwbMvQqzdWiex3FFPs4SJhtmboJ/tVn9Yof3xMS2PuJQ6yO333EfajXGxv8AidxrjxOkv3vBerPQ0eqACCgbRkgZK5ImbE5IyQRkjckSRkgjJG5kEAgi2ZRJGSMkZImRkjIyRkhckMkZJIItmSDe6MpbymueXwn6dnhg09pQ384x5HrfUj0p29DULylWfZkvr9vFlTFTyUQAD0JSB4vdvuUd1+0W6XDpYnDYq0Vsw+SS2da7D2gJwm4O6IzgpqzPz9VhKEpQnFxnF4lGS3sovmaewo2dy0noW3ul+voxqNLClxaiXMprD8TQVfJ1ZyeVKvBc0aiaX2otlyOKi1nkUpYWS2O5ypszNAv9qs/rND++J0f9G9n8pX+3D8Be28ntpSnTqxqVnKlUhVinOG9coSUln4GzUZeJptNCOHqJ3+p6e/4nca3Jsr/iek1mTyGkv3/BfU7VHqgjIyQc43DJBGSCLZkkgmCy4rnNn7mw6/D2G+hhKldNwtlvITqRhtNUQbb3Nh1+HsI9zIdfevYb/hWI4c/Yx0iBqckZNt7mQ+d3/kPcyn87v/Ix8JxHDn7GekU/xGoyVybn3Lp/O7/yI9yqfzu/8iPwnE8OfsOkU/xGmyQbn3Lp/O7/AMh7lU/nd/5GPhGJ4c/Yl0mn+I0xMIuTSSy3sS2m5WiqfW+1mTRt4w4sUv8AfpJ0tDVnL55JLhm/SxGWKjbJXPlo+04OOvjPb1GYAehpUo0oKEFZIoyk5O7AANhgAAAAAAAAAxdIcR9qNXk2mkP3b7UarJ57Sn7/AIL6lyh1fEZIyMlTmm4kjJAI3JBPGtbUfXzqp033nxyVyZjUnHqtrubXoHFPaffzup033ked1Om+8+GRFNvCWW9iWtsfr1f9nzY1I7j7eeVOm+8jzyp033kysaqWd53Yb7tpjMzUniIddyj3uS9TMYweyzMjzyp02by2bcIN624pt87webPSWv7un9GP3I6mhqk5znrNvJbW328WV8VFKKsu0+wAO+UgAAAAAAAAAAAAAAAAADE0l+7fajUm7uYb+Eo86NGzz+lotVVLsa9H7ouYd3i0MkAjJyblgEZGSMkWyQyRkjJGSLZknJt9EUkoKfxp518yTxjwNMbbRFdb3g3tTeOtPWdDRTgsStbc7d+Xna5pxKepkbQ0+maCTjNas8brfIzcGk0tcqTUIvO9y2+TPMdnSzgsNJS8O/8ArbwKuHT/AFFYwD0ltxIfQj9x52jTcpRitsv/AGT00Y4SS2JYRQ0JB3nLsyXjtN2LeSRYAHoCkAAAAAAAAAAAAAAAAAADXX1nvsyjt5VzmxBpr0IV4ak/dPevzg8iUJOLujzbK5N7cWkam1a+fYa+roya4rUvA87X0bXpv5Vrrht5beVy7CvCW3IwSMl6lGceNHHbsPnk5srxdpZd5YWewnJAIIXMgA+tO2qS4sM9exd7Mxg6jtFa3cr+SDds3kVdebWHNtczeopCLk0kst7EtpsaOin8eSS5l7TZULaNNfBWOflydWjovEVneq9VcXd8s7eOzcV5YiEco5mPo+y4NZlrm+5IzwD0VGjCjBQgrJFGUnJ3YABtIgAAAAAAAAAAAAAAAAAAAAAAAA+UqEZbYp9qyfUBq+TBjeZU+giVZ018RfeZANSoUl/guS+xLXlvPnCmo7El2I+gBtWSsiIAAAAAAAAAAAAAAAAAAAAAAAAAAABDKMAvkrvz5sqwD68IOEPiyAD7cIOEPgSAffhBwh8CyAPtvy2T4IsgD7A+aLoAkAAAAAAAAAAAH//Z;" parent="1" vertex="1">
          <mxGeometry x="-1.0900000000000318" y="420.96000000000004" width="30.09" height="33.04" as="geometry" />
        </mxCell>
        <mxCell id="_-kJSPt_qq9w9nPcTiiO-219" value="" style="rounded=0;whiteSpace=wrap;html=1;fillColor=#f5f5f5;strokeColor=#666666;fontColor=#333333;" parent="1" vertex="1">
          <mxGeometry x="361" y="980" width="140" height="100" as="geometry" />
        </mxCell>
        <mxCell id="_-kJSPt_qq9w9nPcTiiO-220" value="" style="rounded=0;whiteSpace=wrap;html=1;fillColor=#f5f5f5;strokeColor=#666666;fontColor=#333333;" parent="1" vertex="1">
          <mxGeometry x="161" y="980" width="140" height="100" as="geometry" />
        </mxCell>
        <mxCell id="_-kJSPt_qq9w9nPcTiiO-221" value="" style="rounded=0;whiteSpace=wrap;html=1;fillColor=#f5f5f5;strokeColor=#666666;fontColor=#333333;" parent="1" vertex="1">
          <mxGeometry x="-39" y="980" width="140" height="100" as="geometry" />
        </mxCell>
        <mxCell id="_-kJSPt_qq9w9nPcTiiO-222" value="" style="rounded=0;whiteSpace=wrap;html=1;fillColor=#f5f5f5;strokeColor=#666666;fontColor=#333333;" parent="1" vertex="1">
          <mxGeometry x="-249" y="840" width="160" height="370" as="geometry" />
        </mxCell>
        <mxCell id="_-kJSPt_qq9w9nPcTiiO-223" value="" style="rounded=0;whiteSpace=wrap;html=1;fillColor=#dae8fc;strokeColor=#6c8ebf;" parent="1" vertex="1">
          <mxGeometry x="-239" y="1100" width="140" height="100" as="geometry" />
        </mxCell>
        <mxCell id="_-kJSPt_qq9w9nPcTiiO-224" value="" style="rounded=0;whiteSpace=wrap;html=1;fillColor=#dae8fc;strokeColor=#6c8ebf;" parent="1" vertex="1">
          <mxGeometry x="-239" y="980" width="140" height="100" as="geometry" />
        </mxCell>
        <mxCell id="_-kJSPt_qq9w9nPcTiiO-225" value="" style="rounded=0;whiteSpace=wrap;html=1;fillColor=#dae8fc;strokeColor=#6c8ebf;" parent="1" vertex="1">
          <mxGeometry x="-239" y="860" width="140" height="100" as="geometry" />
        </mxCell>
        <mxCell id="_-kJSPt_qq9w9nPcTiiO-226" value="MQTT&lt;div&gt;Message&lt;/div&gt;&lt;div&gt;Broker&lt;/div&gt;" style="rounded=0;whiteSpace=wrap;html=1;" parent="1" vertex="1">
          <mxGeometry x="-429" y="990" width="120" height="80" as="geometry" />
        </mxCell>
        <mxCell id="_-kJSPt_qq9w9nPcTiiO-227" value="" style="edgeStyle=orthogonalEdgeStyle;rounded=0;orthogonalLoop=1;jettySize=auto;html=1;" parent="1" source="_-kJSPt_qq9w9nPcTiiO-231" target="_-kJSPt_qq9w9nPcTiiO-226" edge="1">
          <mxGeometry relative="1" as="geometry" />
        </mxCell>
        <mxCell id="_-kJSPt_qq9w9nPcTiiO-228" value="&lt;span style=&quot;color: rgba(0, 0, 0, 0); font-family: monospace; font-size: 0px; text-align: start; background-color: rgb(251, 251, 251);&quot;&gt;%3CmxGraphModel%3E%3Croot%3E%3CmxCell%20id%3D%220%22%2F%3E%3CmxCell%20id%3D%221%22%20parent%3D%220%22%2F%3E%3CmxCell%20id%3D%222%22%20value%3D%22MQTT%20Pub%22%20style%3D%22edgeLabel%3Bhtml%3D1%3Balign%3Dcenter%3BverticalAlign%3Dmiddle%3Bresizable%3D0%3Bpoints%3D%5B%5D%3B%22%20vertex%3D%221%22%20connectable%3D%220%22%20parent%3D%221%22%3E%3CmxGeometry%20x%3D%2275.17647058823559%22%20y%3D%22390.9999999999998%22%20as%3D%22geometry%22%2F%3E%3C%2FmxCell%3E%3C%2Froot%3E%3C%2FmxGraphModel%3E&lt;/span&gt;" style="edgeLabel;html=1;align=center;verticalAlign=middle;resizable=0;points=[];" parent="_-kJSPt_qq9w9nPcTiiO-227" vertex="1" connectable="0">
          <mxGeometry x="0.2059" y="-2" relative="1" as="geometry">
            <mxPoint as="offset" />
          </mxGeometry>
        </mxCell>
        <mxCell id="_-kJSPt_qq9w9nPcTiiO-229" value="&lt;span style=&quot;color: rgba(0, 0, 0, 0); font-family: monospace; font-size: 0px; text-align: start; background-color: rgb(251, 251, 251);&quot;&gt;%3CmxGraphModel%3E%3Croot%3E%3CmxCell%20id%3D%220%22%2F%3E%3CmxCell%20id%3D%221%22%20parent%3D%220%22%2F%3E%3CmxCell%20id%3D%222%22%20value%3D%22MQTT%20Pub%22%20style%3D%22edgeLabel%3Bhtml%3D1%3Balign%3Dcenter%3BverticalAlign%3Dmiddle%3Bresizable%3D0%3Bpoints%3D%5B%5D%3B%22%20vertex%3D%221%22%20connectable%3D%220%22%20parent%3D%221%22%3E%3CmxGeometry%20x%3D%2275.17647058823559%22%20y%3D%22390.9999999999998%22%20as%3D%22geometry%22%2F%3E%3C%2FmxCell%3E%3C%2Froot%3E%3C%2FmxGraphModel%3E&lt;/span&gt;" style="edgeLabel;html=1;align=center;verticalAlign=middle;resizable=0;points=[];" parent="_-kJSPt_qq9w9nPcTiiO-227" vertex="1" connectable="0">
          <mxGeometry x="0.1176" y="-2" relative="1" as="geometry">
            <mxPoint as="offset" />
          </mxGeometry>
        </mxCell>
        <mxCell id="_-kJSPt_qq9w9nPcTiiO-230" value="MQTT Sub" style="edgeLabel;html=1;align=center;verticalAlign=middle;resizable=0;points=[];" parent="_-kJSPt_qq9w9nPcTiiO-227" vertex="1" connectable="0">
          <mxGeometry x="0.2941" y="-2" relative="1" as="geometry">
            <mxPoint x="12" y="-7" as="offset" />
          </mxGeometry>
        </mxCell>
        <mxCell id="_-kJSPt_qq9w9nPcTiiO-231" value="Bridge" style="rounded=0;whiteSpace=wrap;html=1;strokeColor=#6cb340;" parent="1" vertex="1">
          <mxGeometry x="-229" y="990" width="120" height="80" as="geometry" />
        </mxCell>
        <mxCell id="_-kJSPt_qq9w9nPcTiiO-232" value="RabbitMQ" style="rounded=0;whiteSpace=wrap;html=1;strokeColor=#ff6600;" parent="1" vertex="1">
          <mxGeometry x="-29" y="990" width="120" height="80" as="geometry" />
        </mxCell>
        <mxCell id="_-kJSPt_qq9w9nPcTiiO-233" value="" style="edgeStyle=orthogonalEdgeStyle;rounded=0;orthogonalLoop=1;jettySize=auto;html=1;" parent="1" source="_-kJSPt_qq9w9nPcTiiO-236" target="_-kJSPt_qq9w9nPcTiiO-232" edge="1">
          <mxGeometry relative="1" as="geometry" />
        </mxCell>
        <mxCell id="_-kJSPt_qq9w9nPcTiiO-234" value="" style="edgeStyle=orthogonalEdgeStyle;rounded=0;orthogonalLoop=1;jettySize=auto;html=1;" parent="1" source="_-kJSPt_qq9w9nPcTiiO-236" target="_-kJSPt_qq9w9nPcTiiO-237" edge="1">
          <mxGeometry relative="1" as="geometry" />
        </mxCell>
        <mxCell id="_-kJSPt_qq9w9nPcTiiO-235" value="Query" style="edgeLabel;html=1;align=center;verticalAlign=middle;resizable=0;points=[];" parent="_-kJSPt_qq9w9nPcTiiO-234" vertex="1" connectable="0">
          <mxGeometry x="-0.1471" y="-1" relative="1" as="geometry">
            <mxPoint x="5" y="-11" as="offset" />
          </mxGeometry>
        </mxCell>
        <mxCell id="_-kJSPt_qq9w9nPcTiiO-236" value="Rule&lt;div&gt;Engine&lt;/div&gt;" style="rounded=0;whiteSpace=wrap;html=1;strokeColor=#6cb340;" parent="1" vertex="1">
          <mxGeometry x="171" y="990" width="120" height="80" as="geometry" />
        </mxCell>
        <mxCell id="_-kJSPt_qq9w9nPcTiiO-237" value="" style="shape=cylinder3;whiteSpace=wrap;html=1;boundedLbl=1;backgroundOutline=1;size=15;" parent="1" vertex="1">
          <mxGeometry x="371" y="990" width="120" height="80" as="geometry" />
        </mxCell>
        <mxCell id="_-kJSPt_qq9w9nPcTiiO-238" value="MQTT&lt;div&gt;Message&lt;/div&gt;&lt;div&gt;Broker&lt;/div&gt;" style="rounded=0;whiteSpace=wrap;html=1;fontColor=#B3B3B3;strokeColor=#B3B3B3;" parent="1" vertex="1">
          <mxGeometry x="-429" y="1110" width="120" height="80" as="geometry" />
        </mxCell>
        <mxCell id="_-kJSPt_qq9w9nPcTiiO-239" value="" style="edgeStyle=orthogonalEdgeStyle;rounded=0;orthogonalLoop=1;jettySize=auto;html=1;strokeColor=#B3B3B3;fontColor=#B3B3B3;" parent="1" source="_-kJSPt_qq9w9nPcTiiO-241" target="_-kJSPt_qq9w9nPcTiiO-238" edge="1">
          <mxGeometry relative="1" as="geometry" />
        </mxCell>
        <mxCell id="_-kJSPt_qq9w9nPcTiiO-240" style="edgeStyle=orthogonalEdgeStyle;rounded=0;orthogonalLoop=1;jettySize=auto;html=1;exitX=1;exitY=0.5;exitDx=0;exitDy=0;entryX=0;entryY=0.5;entryDx=0;entryDy=0;strokeColor=#B3B3B3;fontColor=#B3B3B3;" parent="1" source="_-kJSPt_qq9w9nPcTiiO-241" target="_-kJSPt_qq9w9nPcTiiO-232" edge="1">
          <mxGeometry relative="1" as="geometry" />
        </mxCell>
        <mxCell id="_-kJSPt_qq9w9nPcTiiO-241" value="Bridge" style="rounded=0;whiteSpace=wrap;html=1;strokeColor=#B3B3B3;fontColor=#B3B3B3;" parent="1" vertex="1">
          <mxGeometry x="-229" y="1110" width="120" height="80" as="geometry" />
        </mxCell>
        <mxCell id="_-kJSPt_qq9w9nPcTiiO-242" value="MQTT&lt;div&gt;Message&lt;/div&gt;&lt;div&gt;Broker&lt;/div&gt;" style="rounded=0;whiteSpace=wrap;html=1;strokeColor=#B3B3B3;fontColor=#B3B3B3;" parent="1" vertex="1">
          <mxGeometry x="-429" y="870" width="120" height="80" as="geometry" />
        </mxCell>
        <mxCell id="_-kJSPt_qq9w9nPcTiiO-243" value="" style="edgeStyle=orthogonalEdgeStyle;rounded=0;orthogonalLoop=1;jettySize=auto;html=1;strokeColor=#B3B3B3;fontColor=#B3B3B3;" parent="1" source="_-kJSPt_qq9w9nPcTiiO-245" target="_-kJSPt_qq9w9nPcTiiO-242" edge="1">
          <mxGeometry relative="1" as="geometry" />
        </mxCell>
        <mxCell id="_-kJSPt_qq9w9nPcTiiO-244" style="edgeStyle=orthogonalEdgeStyle;rounded=0;orthogonalLoop=1;jettySize=auto;html=1;exitX=1;exitY=0.5;exitDx=0;exitDy=0;entryX=0;entryY=0.5;entryDx=0;entryDy=0;strokeColor=#B3B3B3;fontColor=#B3B3B3;" parent="1" source="_-kJSPt_qq9w9nPcTiiO-245" target="_-kJSPt_qq9w9nPcTiiO-232" edge="1">
          <mxGeometry relative="1" as="geometry" />
        </mxCell>
        <mxCell id="_-kJSPt_qq9w9nPcTiiO-245" value="Bridge" style="rounded=0;whiteSpace=wrap;html=1;strokeColor=#B3B3B3;fontColor=#B3B3B3;" parent="1" vertex="1">
          <mxGeometry x="-229" y="870" width="120" height="80" as="geometry" />
        </mxCell>
        <mxCell id="_-kJSPt_qq9w9nPcTiiO-246" value="Instance" style="text;html=1;align=left;verticalAlign=bottom;whiteSpace=wrap;rounded=0;" parent="1" vertex="1">
          <mxGeometry x="-249" y="820" width="120" height="20" as="geometry" />
        </mxCell>
        <mxCell id="_-kJSPt_qq9w9nPcTiiO-247" value="Instance" style="text;html=1;align=left;verticalAlign=bottom;whiteSpace=wrap;rounded=0;" parent="1" vertex="1">
          <mxGeometry x="-39" y="960" width="120" height="20" as="geometry" />
        </mxCell>
        <mxCell id="_-kJSPt_qq9w9nPcTiiO-248" value="Database" style="text;html=1;align=left;verticalAlign=bottom;whiteSpace=wrap;rounded=0;" parent="1" vertex="1">
          <mxGeometry x="361" y="960" width="120" height="20" as="geometry" />
        </mxCell>
        <mxCell id="_-kJSPt_qq9w9nPcTiiO-249" value="Instance" style="text;html=1;align=left;verticalAlign=bottom;whiteSpace=wrap;rounded=0;" parent="1" vertex="1">
          <mxGeometry x="161" y="960" width="120" height="20" as="geometry" />
        </mxCell>
        <mxCell id="_-kJSPt_qq9w9nPcTiiO-250" value="Container" style="text;html=1;align=left;verticalAlign=bottom;whiteSpace=wrap;rounded=0;fontColor=#6c8ebf;" parent="1" vertex="1">
          <mxGeometry x="-239" y="840" width="120" height="20" as="geometry" />
        </mxCell>
        <mxCell id="_-kJSPt_qq9w9nPcTiiO-251" value="Container" style="text;html=1;align=left;verticalAlign=bottom;whiteSpace=wrap;rounded=0;fontColor=#6c8ebf;" parent="1" vertex="1">
          <mxGeometry x="-239" y="960" width="120" height="20" as="geometry" />
        </mxCell>
        <mxCell id="_-kJSPt_qq9w9nPcTiiO-252" value="Container" style="text;html=1;align=left;verticalAlign=bottom;whiteSpace=wrap;rounded=0;fontColor=#6c8ebf;" parent="1" vertex="1">
          <mxGeometry x="-239" y="1080" width="120" height="20" as="geometry" />
        </mxCell>
        <mxCell id="_-kJSPt_qq9w9nPcTiiO-266" value="133.186.153.19:1883" style="text;html=1;align=center;verticalAlign=middle;whiteSpace=wrap;rounded=0;" parent="1" vertex="1">
          <mxGeometry x="-430" y="1070" width="120" height="20" as="geometry" />
        </mxCell>
        <mxCell id="_-kJSPt_qq9w9nPcTiiO-267" value="133.186.241.86:5672,15672" style="text;html=1;align=center;verticalAlign=middle;whiteSpace=wrap;rounded=0;" parent="1" vertex="1">
          <mxGeometry x="-50" y="1080" width="160" height="20" as="geometry" />
        </mxCell>
        <mxCell id="_-kJSPt_qq9w9nPcTiiO-268" value="133.186.223.14:8080" style="text;html=1;align=center;verticalAlign=middle;whiteSpace=wrap;rounded=0;" parent="1" vertex="1">
          <mxGeometry x="161" y="1080" width="140" height="20" as="geometry" />
        </mxCell>
        <mxCell id="_-kJSPt_qq9w9nPcTiiO-269" value="133.186.244.96:8086" style="text;html=1;align=center;verticalAlign=middle;whiteSpace=wrap;rounded=0;" parent="1" vertex="1">
          <mxGeometry x="361" y="1080" width="140" height="20" as="geometry" />
        </mxCell>
        <mxCell id="_-kJSPt_qq9w9nPcTiiO-270" style="edgeStyle=orthogonalEdgeStyle;rounded=0;orthogonalLoop=1;jettySize=auto;html=1;exitX=1;exitY=0.5;exitDx=0;exitDy=0;" parent="1" source="_-kJSPt_qq9w9nPcTiiO-231" edge="1">
          <mxGeometry relative="1" as="geometry">
            <mxPoint x="-29" y="1030" as="targetPoint" />
          </mxGeometry>
        </mxCell>
        <mxCell id="_-kJSPt_qq9w9nPcTiiO-271" value="" style="shape=image;verticalLabelPosition=bottom;labelBackgroundColor=default;verticalAlign=top;aspect=fixed;imageAspect=0;image=https://taetaetae.github.io/images/spring-boot-eclipse/spring-boot-logo.jpg;" parent="1" vertex="1">
          <mxGeometry x="259" y="992" width="30" height="30" as="geometry" />
        </mxCell>
        <mxCell id="_-kJSPt_qq9w9nPcTiiO-272" value="" style="shape=image;verticalLabelPosition=bottom;labelBackgroundColor=default;verticalAlign=top;aspect=fixed;imageAspect=0;image=https://taetaetae.github.io/images/spring-boot-eclipse/spring-boot-logo.jpg;" parent="1" vertex="1">
          <mxGeometry x="-141" y="992" width="30" height="30" as="geometry" />
        </mxCell>
        <mxCell id="_-kJSPt_qq9w9nPcTiiO-277" value="133.186.210.237:8080" style="text;html=1;align=center;verticalAlign=middle;whiteSpace=wrap;rounded=0;" parent="1" vertex="1">
          <mxGeometry x="-248" y="1220" width="160" height="20" as="geometry" />
        </mxCell>
        <mxCell id="_-kJSPt_qq9w9nPcTiiO-279" value="" style="rounded=0;whiteSpace=wrap;html=1;fillColor=#f5f5f5;strokeColor=#666666;fontColor=#333333;" parent="1" vertex="1">
          <mxGeometry x="161" y="1150" width="140" height="100" as="geometry" />
        </mxCell>
        <mxCell id="_-kJSPt_qq9w9nPcTiiO-280" value="Control&lt;div&gt;Service&lt;/div&gt;" style="rounded=0;whiteSpace=wrap;html=1;strokeColor=#6cb340;" parent="1" vertex="1">
          <mxGeometry x="171" y="1160" width="120" height="80" as="geometry" />
        </mxCell>
        <mxCell id="_-kJSPt_qq9w9nPcTiiO-281" value="Instance" style="text;html=1;align=left;verticalAlign=bottom;whiteSpace=wrap;rounded=0;" parent="1" vertex="1">
          <mxGeometry x="161" y="1120" width="120" height="20" as="geometry" />
        </mxCell>
        <mxCell id="_-kJSPt_qq9w9nPcTiiO-282" value="133.186.150.45:8080" style="text;html=1;align=center;verticalAlign=middle;whiteSpace=wrap;rounded=0;" parent="1" vertex="1">
          <mxGeometry x="161" y="1250" width="140" height="20" as="geometry" />
        </mxCell>
        <mxCell id="_-kJSPt_qq9w9nPcTiiO-283" value="" style="shape=image;verticalLabelPosition=bottom;labelBackgroundColor=default;verticalAlign=top;aspect=fixed;imageAspect=0;image=https://taetaetae.github.io/images/spring-boot-eclipse/spring-boot-logo.jpg;" parent="1" vertex="1">
          <mxGeometry x="259" y="1162" width="30" height="30" as="geometry" />
        </mxCell>
        <mxCell id="_-kJSPt_qq9w9nPcTiiO-284" style="edgeStyle=orthogonalEdgeStyle;rounded=0;orthogonalLoop=1;jettySize=auto;html=1;exitX=0.5;exitY=1;exitDx=0;exitDy=0;entryX=0.5;entryY=0;entryDx=0;entryDy=0;" parent="1" source="_-kJSPt_qq9w9nPcTiiO-268" target="_-kJSPt_qq9w9nPcTiiO-280" edge="1">
          <mxGeometry relative="1" as="geometry" />
        </mxCell>
        <mxCell id="_-kJSPt_qq9w9nPcTiiO-286" value="" style="shape=image;verticalLabelPosition=bottom;labelBackgroundColor=default;verticalAlign=top;aspect=fixed;imageAspect=0;image=data:image/png,iVBORw0KGgoAAAANSUhEUgAAAOEAAADhCAMAAAAJbSJIAAAAYFBMVEX///8irfYApvUAqfYApfUZq/bW7f3l9P72/P/t+P7e8f3K6Py84vz6/v/T7P3G5vzC5Pxuw/iV0vpmwfhOufeKzfmx3ftDtvd5x/mDy/nq9v5gv/id1fqn2ft/yfkqsPblc1kmAAAPyUlEQVR4nO2d54Krug6FdyCkl0kjk/7+b3mDCwEvy0WYZObcWf/2HpJgsOTPsiz/+/enP/3pT3/6mTovtpvdbnNYf/pG+tHy+sjyvKiUZ7ty8un7Sa5DlheDWs9G7m/jT99TSs3zfGAqzx7b0advLJXKIbRPvcn8/p8wymtmbaBu5W7x243y4Gjgf8Iov9EEUb/ZKHchDZRvsviVRrkPbKBu5a8zymPhb5fZyN9klJNHbAOF8ux4nX363oM0HbAaKBs5OMw/ff9enWNMEPTE1/z7a/npRrg0y9lvsG5lnl3K6acbQmmVdW6gauQPNcq1HUVZqoxy9ekGmSJYmytplJ9uVFMu1ma38icZJcXazzfRyf0Io/wJOECxdjG4Lm6XV+tZzX0y+seNkmLtfCP+vNLtyq+3TRW5iW3jx42SYu3spC4Yqwvyqr/ND4OMQQafjGZRrJ1t60tGqqM+5D9n2yOzkfsPGCXJ2sNb46q5HEuKo/6P822fMY1y+16jJFl7uGhdt1BN3L/+a7LYcBpZGeUbJ85n6g6H5j3cZEfNL63/Xd8LVivfZpQUaxcZ9qStauK38f+j7YNrlP1PnEnWzm3kfJftyA/wl/FtP+QaZa/RrC8KRYuz9fqNbGJ2tfztaZQcHKiiWafeGkmxdjGgLGQvm5CV9j/PTzyjzPb99FaKtYsHPU1XQ+eQ5BOeURZDW7foKpK1j65PqcFz6BjSxpyRMjP9V3fdiQbme+fHJvqOnJP4yWIX28h8l7R5tdOI/6GpvPMitzujl9b3OEbPt54vjNOFaqC/s2gKL/wD9irKKF09P1rkZAKHOpSm8EFI3HB8DTbK4tG1WbWW5GQizKNpCg+8o2l5CWtkTgxC0aInE6G/YKFwj76+A4wy1UucUj9gTCZcslO4Wyv/xNkCwwyNqV/JYhYdDgpRN1G/Pbu6J85J3OmIYO0ii4NDTeEn/6UtTa+ulxje7UnNqagowdq0VPAqi37sa8dbzGK/DLQgWTs+bqsp/Oa/tKFz6Vq/y7vOMm5UAx+c6bam8GAHNbptPHOPPO5xgbYs1qalKTzARU3X233mnz8WcZ7LFDWZ8LA2rZrC3X1rXH5XGYDtphCrBQXzVoSowH0HqFcUPsjICezqeskzc6x/zusHm3K+sLBjFuvwGiID910mZuNM3bLFUU0XhyN0zOery46Hhbq8hF6Vh1OHqU6sTaum8PZbnJXfA9OnVEmq+eU6b/L61ryrInZ8rdWRtWmpheMiOyh3PJlvL5m1Y36XOGuGl8hE0+6sTWuhbrLILtuyPD2sHXN/+LIPuBfzxjJWmDg0cM/Tq6cV5vxBdMzdzcHTV7Ob5pyUHDJJJoq1aRHf/nx1j3vpCRPOoYUM+CYD950RSekbvl90zO06oMMtwRDjB2c6cJ8qCntv98w8Kza34Id3hI4V+/NU4J7D2gE3mef3RdSTO5jP37pi4hAZuGextlWzRkezLNp4tABDjINvMnB/TJdf92h8bfx4fTbvMA6+k7M2qhW3yxlfgCNZxIfJwH1MAMmtFksUHIbfwJgfDt9k4L7bJKypNksUHIi/gSEGYwgVuM/YcAuq02zUkMuZSc/Y8E1OJtItgKi4XfFYj0/i11hQCaYU9pzIwP2wYySkIRW3kzEQYU4sqNzDOwjx8/RkIgVrS6m4nfLLo+olsiK6MEcMeU4TajKRiLUrqbhdHQMRL5QzCiF8B8xZiTcYG9d2CZJrRGfjRHQnMOb7B7MDNUyky3g4ydtqxEBEZ4uFSiGAby84jInNkelY25ZYI4L1rIjuCcZ833PC+ZpoYDrW1kNtKwYiOhsroovw7Ymt4KRSNDAha6uh1vDLlfEXMVCphfDtYaPSZoU9sLbpl8VEmBXRNfuc7znZOmnEerRPaqjFGIjobKyILsK322PYhopOywEtadZGvyzi3wUnwBwL3xYzTJeMo1jb6pfFnzjwPQL4dj4nGEC5fcd6L5q1bX55JwyR49Di4HvaYwtbrA0Sne0N8G0bLIo742dRbdYGSfjmLIQgfDvTTrCBXucUJs3aJDYKV8OJkEDygvs5ge+tlCDbiEpkf0l0Nk40KhK+wfeKjzCX6l/SrO2IMYjO5oVKm2CEcz4n8L2yiR3HfM3arnFHwjdnwe4eB9/2GGK3HFzN2s65g4RvTsAtEr7B96oPdViwt7M2iA3f4zj4Bt+rm8hesidYGyThm+O3gWqcrpFMHGMu2mvW9sdAyjfBt43b1Mc4XoBmbVBK+HbuOMXZxUN7ivhNcXU+akjnexd8g+99IoJaZ4vOwh3lDtYGJYRv5+gGs/zqgSgkoRO0rKpZO+yuJXxzcpkRvl1Xg+8VHUdm9VoTtEh5WBu0ehd8gzMVHUevtoXH3LysDUoI30642IEhipFMupvwnH/N2hEhwoTw7WQw9L2y48jE5VAK16wdM7ncClfTP3yvwNVcml8TRuHfnFT1LzZ8Q4jQ7RMxb1P+/1ImToRQeBBrg/jwDQNAJHzrjjNRfOK9h0DWBgn45sy3Z2CITuvATCP9QM5yBPdRuM7Dj2ag7zfB9xdcXr809ayc2yRq1o4fuyV8c8qYwADgzAqAkGLjgayGvv5XszbDJ87Y8I2pps4OBL638UBU4jLZA+tNoqy8efFhTsgEBgB3pB58b7PjqBR5Yr6nWTuCfZqS8M35ZEf4bj2Qq4PCNWs7NuU7dWXDd1yqKfje9gM5kBSuWZsdfVyxV7txAHAGFRC+W3++ExQez9og4Wo4gT0YANzPCdL8jQeys1I4g7VBorNx4BsHAOdzQt9rPBA10Wj1RsXaeaeFHNHZIifaUpDnFAnf5ns5AoVr1u62Uehd8I2LbLDSLcfMF4VfHNVnIiQ6G2s9DwcAJxWj7zUH8KX6GvVyNWt33ig0+Bh8wwOZyj08+aOcjUu9IbR7Zbx3wTcsdlhyb8+6Tkm9oTPFnn8J35xyZXH7vHA93zKIm/0iSVED8aWs9I/IfV7ge22R2lWriR03Gmux4TtynxcsdlgfSMt/FWnybi5c+I7c50UF3Aw1fW6i4iISvjnZuh3h2x6pNTxSilJ/b4NvKuDWVtsjJSn1t2TDd+Q+L/S91qgEzEK6l/pLCN9O34eLHVZcsezMEKX+OtTfTAjfzqwA8L32SK0O6RTGLuUOB1d8sVe7Eb5dwSLwvXZXqaIW2e5wMmqPCaPkhKM+CN8WWJTry8VevC4sncszyoTw7dznBWn+tkitWC1qEN1yYdazzrPBKTKnUsJ3//u8EL4tzPKwbMky61lXtVY2i4jgGx++41JNIc3fAkFyRRw9uyjL1do+WRll6JSID99hrFkLXC9CkCAsu5OFWnkRB1ew4RsXSuNSTRGC5OBM9aflwqyVF3iaDBe+Rxh8iUs1BQiSEOG8FZtRek+TYcK3bd9kXKopwKJwCV6EtBml++CKOQe+p9bkX3cCkhe+RW8KoY9Io1zG7vMa3TZEWUX3oIO+tw2LEntCBy4oYOk4uELYd9hWnYmqdEbte3W+Q4Tv9uv6ivV5q8PDYpSWCw9h+7zGiztUOvN0u7Yg08iAIMEekeYCVWWtNfID9nmNbjusdIbyVG72wLfcRR8N15Ny5zNKQRskVE7CSvCJr/asMbhWu/X8ihecgUMRDKPM8XlKjUtvx2zKt80IU02bHxDGwt/YZtZfbx5coXyY4WztHdN1HpE3Md692j1gZ6FpQf11NXFeKpx6vcTpl61j6jJ1Z/vm5YBUTkzzb0CQzAzh7B5oCk4qed50potTFY+Ka4iO2SxTB0El3ULvjMa12i3GElbui6n5aZARTjEb7O0ds1WmjipbGZB7j5lGr04pqTtRIQnyUATYx2wpU0eWiA8ISSJ810/lTEwN2Qo4FMFepo6qNBOUCYvwXc8Fb/TUkC3HoQh0mTqq0kxgejm4mtqzyIzl9GeFrU8FPNaqJitRpo6sNBOa8oLwrcx74p8asrVq3HXFO6cFyU1k2crgnWhbKuAmyJGVVx+iuopbMShdDp8uER9czgpTTdXwILxssuMITOlwhCf5iDzbNSK9HPd5KfuNmhrGS+WyuBs4p8pWRqWXI3yL/16zw2Fh2hmRZpvI86bi0ssx1VQMtnfG1DBGsqqSMxZFnu0aWc4K4Vs0S04N+zv3TDCvc2JGlq2MjdHhYkeFQity/pZGcoHN5S6ospWMcla4yPuv89TQK7k243gZ9Nmu8dlUuNo9Vv4nYXUzU3LNjv47VSKeVc4KM40WuuvyW+CRiI841v46sTYIU02/1dQwXRVMUwfLml1DHVkbhJFv+VpTTQ0tErBJTcw6szYIVrv1nhju/Xs1cwX1u7M2CDKNVDPT1aI1tXXEg+kS8fx4Cqx2q0eWrtKnKTGzsC840KzdIfvaVjqKvIMUkgFvq9cgS8R3y762dvzepoZ6W76NeWnW7hZrsIZbe5saauq2sEkq1sYvtq6tpiv2aUhOSS1jN8naneEK93mlqBxFakFUVkjI2iDbO+zPDHf25ZA7NUykKB1rWRXoceZkXw6hSsSnKR0L8G19yIm0ti6HUIH7RKVjIdW0Ul8xmruNuo/UykSiu7BW3s0vHY4Ac0hSffv3k7M2COG76iDBaWoxWuFyCFlBvdORaG1Bqqn+ibA0tRjJqWETUc7UelTCYxoo+B6ojJiY3FGfHmbSHpzvUDcwZZgIU01brazS1BJFv2dmmSGatdMGaylTbzQyjVFejU2y6zRx7cAf9siRphYu4dNezEud7ZrymAYpe6V2eJMhuaNOTdvUTZ7t2kMgM+Qlyh/35Y46dWtRN3W2a8pjGl56ED9mbyTXKPfNDUHUcUwpj2loaBqUKPd6yqyRctlckOmXtS2ijuQm3yRjpFw0FmR6Zm2bRnFvUdxNzC6Lf/rIIOFFqMB9wmMaUNNjfBuFUW5DjbKmbvI4poRHoll1GzDaGL71aa6pmw7c9xeG1voik5ackluffB5CAP5zrDhTX5OStR2qMgmDc3SbrfTuR5SPbl8myCHpKjKT0CfnfsQ6iYb4cGLW9gl3U4ap2iR8t2+Uoups6wb2t1BCaQK7KcNbiRsQfBOY5KwdqC5GeTXOG3fRfR+sHawuRtmcbhHl7tW1/aXuBOlplEPuIKJ3BVEYKq7rh7XjBBthglv5nG5dyy0VTxOX9MXa0Vqbu9OCG+n8WI+rQAytuEZJq1fWZgl2p3VsYM+szRNsGe3QwLS7AVIKtoyy1LGCX98yt4wyGtixgt8bBPu4o9S9gt9bNGEb5QdYmy2WUX6KtblaHeIYPTpf+ycoyig/zdpchY6UP4K1uVoGGOXPYW2uzIonZgN/FGtz5TDKn8faXNmNshi+L2j4BkFtsCK79JVt9TkJoywq5Vl++u+1T2h2u+92m1P5Cwf5P/3pT3/6f9L/AFvUv+CNc2zeAAAAAElFTkSuQmCC;" parent="1" vertex="1">
          <mxGeometry x="396" y="1030.25" width="21.5" height="21.5" as="geometry" />
        </mxCell>
        <mxCell id="_-kJSPt_qq9w9nPcTiiO-287" value="" style="shape=image;verticalLabelPosition=bottom;labelBackgroundColor=default;verticalAlign=top;aspect=fixed;imageAspect=0;image=data:image/jpeg,/9j/4AAQSkZJRgABAQAAAQABAAD/4gKgSUNDX1BST0ZJTEUAAQEAAAKQbGNtcwQwAABtbnRyUkdCIFhZWiAH5AABAB8ADwAFADlhY3NwQVBQTAAAAAAAAAAAAAAAAAAAAAAAAAAAAAAAAAAA9tYAAQAAAADTLWxjbXMAAAAAAAAAAAAAAAAAAAAAAAAAAAAAAAAAAAAAAAAAAAAAAAAAAAAAAAAAAAAAAAtkZXNjAAABCAAAADhjcHJ0AAABQAAAAE53dHB0AAABkAAAABRjaGFkAAABpAAAACxyWFlaAAAB0AAAABRiWFlaAAAB5AAAABRnWFlaAAAB+AAAABRyVFJDAAACDAAAACBnVFJDAAACLAAAACBiVFJDAAACTAAAACBjaHJtAAACbAAAACRtbHVjAAAAAAAAAAEAAAAMZW5VUwAAABwAAAAcAHMAUgBHAEIAIABiAHUAaQBsAHQALQBpAG4AAG1sdWMAAAAAAAAAAQAAAAxlblVTAAAAMgAAABwATgBvACAAYwBvAHAAeQByAGkAZwBoAHQALAAgAHUAcwBlACAAZgByAGUAZQBsAHkAAAAAWFlaIAAAAAAAAPbWAAEAAAAA0y1zZjMyAAAAAAABDEoAAAXj///zKgAAB5sAAP2H///7ov///aMAAAPYAADAlFhZWiAAAAAAAABvlAAAOO4AAAOQWFlaIAAAAAAAACSdAAAPgwAAtr5YWVogAAAAAAAAYqUAALeQAAAY3nBhcmEAAAAAAAMAAAACZmYAAPKnAAANWQAAE9AAAApbcGFyYQAAAAAAAwAAAAJmZgAA8qcAAA1ZAAAT0AAACltwYXJhAAAAAAADAAAAAmZmAADypwAADVkAABPQAAAKW2Nocm0AAAAAAAMAAAAAo9cAAFR7AABMzQAAmZoAACZmAAAPXP/bAEMABQMEBAQDBQQEBAUFBQYHDAgHBwcHDwsLCQwRDxISEQ8RERMWHBcTFBoVEREYIRgaHR0fHx8TFyIkIh4kHB4fHv/bAEMBBQUFBwYHDggIDh4UERQeHh4eHh4eHh4eHh4eHh4eHh4eHh4eHh4eHh4eHh4eHh4eHh4eHh4eHh4eHh4eHh4eHv/CABEIAZABkAMBIgACEQEDEQH/xAAbAAEBAQADAQEAAAAAAAAAAAAABgcBAwQFAv/EABsBAQEBAQEBAQEAAAAAAAAAAAAGBQQCAQMH/9oADAMBAAIQAxAAAAHZQAAAAAAAAAAAAAAAAAAAAAAAAAAAAAAAAAAAAAAAAAAAAAAAAAAAAAcHl8/fXxGdPBoXSFfPVzzFU/783uHXygAcczHzODvukK8fpcof7f6fj94d3EAAAAAAAAAAAAABxn2g5dkbHiExWAPq/K7f2/DWhbwQfXE/QSHF2SAjrgBzw+/NP9/xftW0FyP3/EAAAAAAAAAAAADjLdSy3F2/GJupAdvV2+/GtC6/nwfSPsI/P0JASNoABov2vi/atYMOnnAAAAAAAAAAAAA4y3UstxdvxibqQHb1dvvxrQuv58H0j7CPz9CQEjaAAaL9r4v2rWDDp5wAAAAAAAAAAAAOMt1LLcXb8Ym6kB29Xb78a0Lr+fB9I+wj8/QkBI2gAGi/a+L9q1gw6ecAAAAAAAAAAAADjLdSy3F2/GJupAdvV2+/GtC6/nwfSPsI/P0JASNoABov2vi/atYMOnnAAAAAAAAAAAAA4y3UstxdvxibqQHb1dvvxrQuv58H0j7CPz9CQEjaAAaL9r4v2rWDDp5wAAAAAAAAAAAAOMt1LLcXb8Ym6kB29XPvxrvPV23P8+D04j7CIz9GYEjZgAaJ9qbpLSF5HVygAAAAAAAAAAAAcZbqWW4u34xN1IAFFV5k1MjT2YP3572G63DohxdwAHsus5d+bp7MHZxaezAaezAaezAaezAaz3ZTpWnlewaGeAAAAAABxlupZbi7fjE3UgAAAAAAAAAAAAALeItdPJqhVyIAAAAAAHGW6lluLt+MTdSAAAAAAAAAAAAAAtYq10sqqFZIAAAAAAAcZbqWW4u34xN1IAAAAAAAAAAAAAC1irXSyqoVkgAAAAAABxlupZbi7fjE3UgAAAAAAAdld12FDMzqjaWXOcUgzn42tZVg0XUMrYAWsVa6WVVCskAAAAAAAOMt1LLcXb8Ym6kAAAAAAAC5ppmmsoYOzkA4y7UcuxdvxCbqQFrFWullVQrJAAAAAAADjLdSy3F2/GJupAAAAAAAAuaaZprKGDs5AOMu1HLcXb8Ym6kBaxVrpZVUKyQAAAAAAA4y3UstxdvxibqQAAAAAAAK2xyWtoZmuTrSy6JO/h9+nmft8M7TBnaYC1irXSyqoVkgAAAAAABxlupZbi7fjE3UgAAAAAAAAAAAAALWKtdLKqhWSAAAAAAAHGW6lluLt+MTdSAAAAAAAAAAAAAAtYq10sqqFZIAAAAAAAMt1LLcXb8Qm6kAAAAAAAAAAAAABaxVtp5VSKuQAAAAAAAQd51cvVkq665+kiVs+fYlbCJWwiVsIlbCJWwiVsIlbCJWwiVsIlbCJWwiVsIlbCK0j8/X1cbka2SAAAAAAAAAAAAAAAAAAAAAAAAAAAAAAAAAAAAAAAAAAAAAAAAAAAAAAAAAAAAAAAAAAAAAAAAAAAAAB//EACgQAAADCAICAgMBAAAAAAAAAAMEQAABAgUGFSA0MTMUNRESEyGAJP/aAAgBAQABBQL+AzAwYAYs5i+bwO14Ha8DsHOY/kqYCMB5GpsGHFeB2vA7XgdnTgZiMxCMRL50M8Q3jKxngnMZ4M8Iri5/w8iL+couPbmIPbjUecl9cuPbmIXa7jCo+cpL65ce3MQu13GFR85SX1y49uYhdruMKj5ykvrlx7cxC7XcYVHzlJfXLj25iF2u4wqPnKS+uXHtzELtdxhUfOUl9cuPbmIXa7jCo+cpL65ce3MQu13GFR85SX1y49uYhdruMKj5ykvrlx7cxC7XcYVHzlJfXLj25iF2uxqPOS+uXHtzGF/xEFE6ODCoBHRDZSAT7FVx7cylkw/A5x0q93mFW8wqxuaAhwiRxCR5EzEZYYGYlRIfMKt5hVvMKt5hVvMKt5hVvMKt5hVvMKt5hVg44BHIj24uLjiACFBnDgIT24vp5/8AnQntxfTvShPbi+nelCe3F9O9KE9uL6d6UJ7cX070oT24iDgiEjAk8P1tBZrQWa0FmtBZj5CMq7KnelCe3EVPhOyEghjDFg+guNO9KE9uIqe1cj27jTvShPbiKntXI9u4070oT24ip7VyPbuNO9KE9uIqe1cj25jTvShPbiKnxnZTAw4uWf8AvKnelCe3EQccQcYE4h+t3LNdyzXcs0U4L/Bw1GaFyp3pQntxfTvShPbi+nelCe3F9O9KE9uL6d6UJ7cX070oT26vp3pQzwu+Adc79tLAPHKIY4IY4Y5OA99mCazBNZgmswTWYJrME1mCazBNZgmswTWYJrME1mCazBNZgmswTWYJrME1mCazBNZgmswTWYJrME1mCazBNZgmswTWYJikvALv/jX/xAAwEQAABAIIBAYCAwAAAAAAAAABAgQFAAMQERUwMzRRcSAyQFISFCExQfATIiRQYP/aAAgBAwEBPwH+2ABMNQQDSpEPaLIVaRPRTpAVnD04JbYpOFYFiyFWkTW5RKL4jF9OgZCAacIj8BSolhMliUaW4gHUlAaRCuFJQLNMUNb9jxTbUn5Rpas0X78cCvHPuN+x4ptqT8o0tWaL9+OBXjn3G/Y8U21J+UaWrNF+/HArxz7jfseKbak/KNLVmi/fjgV459xv2PFNtSflGlqzRfvxwK8c+437Him2pPywIVUNQCKovAtKJVB69b9jxTbcClolTj+MPQYsIndCRDLS8vvwK22UpGsfQYsIndFhS+6LCl90WFL7osIndC5vMl9a6wuWPFNt0DwH8YbljxTbdA8ZYbljxTbdA8ZYbljxTbXTm4zAmfjljVVHnlHeMeeUd4w1LTKAEp/cKXjLDcseKba6X5g9LHim2peMsNyx4ptrpfmD0seKbal4yw3LHim2unNumDM/JLCuuPIqOwY8io7BhtReWl/t7jS8ZYbljxTbdA8ZYbljxTbdA8ZYbljxTbdA8ZYblGqFNM8cA8pothNrFsJtYthNrFsJtYthNrFsJtYthNrFsJtYthNrFsJtYthNrFsJtYthNrFsJtYcXEFIeAnt/kP/xAAtEQAABAMGBgIDAQEAAAAAAAABAgQFAAMzEBEVMDRRFCAxMkBSEnETIUFQYP/aAAgBAgEBPwH/AFjGAoXjAuicP7GKp94krJU79EHkO5JyDdfGKp94lL5Ew1wD4DwcQlAAf22QcSTAELV5xInMIWgMJzCaUUR2z3mmW0ncEBY56Y3IkoF+s95pltJ3BAWOemNyJKBfrPeaZbSdwQFjnpjciSgX6z3mmW0ncEBY56Y3IkoF+s95pltJ3BAWOemNyJKBfrPeaZbS9YAbwscxDhjciMwGkFu2z3mmXkkOc2UX49YxqZ6wpWTFHdyJV8xOFwdIxqZ6xjUz1jGpnrGNTPWMamesI1xVP66DkvNMvgNWoDJeaZfAatQGS80y+A1agMl5plym9AQxPyTAvvjgpHqEcFI9YckYSDfIvQbWrUBkvNMuUh05bXmmFrVqAyXmmXKQ6ctrzTLa1agMl5plym9eQpPxzBuujjZHtHHSPaHBXxEz9dAtatQGS80y+A1agMl5pl8Bq1AZLzTDwGrUBkqkwKJfxgWlRGFKNowpRtGFKNowpRtGFKNowpRtGFKNowpRtGFKNowpRtGFKNowpRtGFKNowpRtDegGQPzP1/5D/8QAMhAAAAQEAgkDAwUBAAAAAAAAAAECAyAzQHJxkRESITFQUYGxwRMjMkFCYVJigILRIv/aAAgBAQAGPwL+Aeu4egh7bRdTHwbHwbHwbHuNJMvwNds+keq0n1Pzp2CW2Pg2Pg2NraBqGWovlz4AaPtRsiRyUeqcWok9qz0dItJbA259TLbXvXnEjGJj+3iNHXvXvXnEnGJjr4jRifevevOJOMTHXxGjE+9e9ecScYmOviNGJ969684k4xMdfEaMT71715xJxiY6+I0Yn3r3rziTjEx18RoxPvXvXnEnGJjr4jRifevevOJOMTHXxGjE+9e9ecScYmOviNGJ969684k4xMdfEaMT71715xJxiY/t4jR171715xEfIEpO4yhbbLeku8Zt/oOvevOP0ndJt/Q+QnozE9vMT28x7R+ov8bga1npM4/UT1LmNPqEg+Stgnt5ie3mJ7eYnt5ie3mJ7eYnt5ie3mJ7eYnt5jShRKL8Ub151+u2rQEup+tE9efAHC/dRPXnwBy6ievPgDl1E9efAHLqJ68+AOXUT158AcuonrzoyQgtKjHvOHrftG9zMb3MxvczHyczGuR6zfPlG5dRPXnRrePf8SiUhRaSMKR+k9ETl1E9edGu+N684nLqJ686Nd/+RvXnE5dRPXnRrv8A8jevOJy6ievOjXfG9ecTl1E9edGtg9/yKJS/u3JjcuonrzoyWg9Ci3D3mz1uaRucyG5zIbnMhsS5kNZWwvoXKNy6ievPgDl1E9efAHLqJ68+AOXUT158Acuonrz4A5dRPXnwBy6i9Yi/5X3r9BAkn8j2qotVREZGNKVLT+BNWJqxNWJqxNWJqxNWJqxNWJqxNWJqxNWJqxNWJqxNWJqxNWJqxNWJqxNWJqxNWJqxNWJqxNWNYiNSuav4bf/EACoQAAEBBgYCAgMBAQAAAAAAAAEAESBAUfDxITFBYaGxMNFQcYGRwYDh/9oACAEBAAE/If8AAZyynP0iyAw0LbgKzH2rMfasx9oViaDYxYqM9QLxLA0o5bwzwvwmjfPasx9qzH2mtpY2aEFNVkRaPofgG7dEN9TUndVjwWYM25cvBDB7x/B+XiCISBaCNE3H+gMDH0ib2Awl7QyDud8c3uj6RN7g+1keSVVmj6xN7g+1keSVVmj6xN7g+1keSVVmj6xN7g+1keSVVmj6xN7g+1keSVVmj6xN7g+1keSVVmj6xN7g+1keSVVmj6xN7g+1keSVVmj6xN7g+1keSVVmj6xN7g+1keSVVmj6xN7i+1kDuZ8c3uj6xN5hOpqL80Ig7O51SJ/TDh8RI45Oxx7ahHVib+vYwM/+UPEDBmwrdVuo2Eo0PsoxgtpL4Ri6SCbFrGQVuq3Vbqt1W6rdVuq3Vbqt1bpsJsHWJx4sYWo0OxWB4BxEjqIKsT+AIZVvgQVYn8BRbQVYnHlUW0FWJx5VFtBViceVRbQVYnHlUW0FWJwZAJjAEzybJgA9qu+lXfSrvpEwyfw9LPgmYMfs8VRbQVYnBnswIH6dT/EHWSJsIRjeJL+hdKotoKsTg+V6DxVQm6VRbQVYnB8r0+qE3SqLaCrE4Plen1Qm6VRbQVYnB8r0H6RN0qi2gqxODEaGEft0P8QdaIDWBMoiRJLSc3SqLaCrE4MgExpJngXYEH0rc9q3ParntAtFGTHtZUzDTB4qi2gqxOPKotoKsTjyqLaCrE48qi2gqxOPKotoKsT+AotoIWUGPwAFvp6QWL9nGUeAkAEk4ABHB2G/Mf8AjII3HZhBCNwQ6CCB+1agrUFagrUFagrUFagrUFagrUFagrUFagrUFagrUFagrUFagrUFagrUFagrUFagrUFagrUFagpFxM1n1/jb/9oADAMBAAIAAwAAABDzzzzzzzzzzzzzzzzzzzzzzzzzzzzzzzzzzzzzzzzzzzzzzzzzzzzzzxmCfzziVCPzzzzzzzzzzzzzzyn74bbyv7677zzzzzzzzzzzzzz376pfwL774Lzzzzzzzzzzzzzz376pfwL774Lzzzzzzzzzzzzzz376pfwL774Lzzzzzzzzzzzzzz376pfwL774Lzzzzzzzzzzzzzz376pfwL774Lzzzzzzzzzzzzzz3760Pxz777zzzzzzzzzzzzzzz3774H0H775v33332Lzzzzzzzz3777777777777776/zzzzzzzz3777777777777775bzzzzzzzz3777777777777775bzzzzzzzz3777777774fPOL75bzzzzzzzz3777777775fzyn75bzzzzzzzz3777777775fzy375bzzzzzzzz3777777777cMCr75bzzzzzzzz3777777777777775bzzzzzzzz3777777777777775bzzzzzzzwX777777777777777nzzzzzzzwRDDDDDDDDDDDDDDA/wA888888888888888888888888888888888888888888888888888888888888888888888888888888//EACoRAAECBAUDBQADAAAAAAAAAAEAYREwofAQMVGRsSAhQEFxwdHxUGCB/9oACAEDAQE/EP5YYHEnIKNu33ITHcLt56h3FOgLhAdSBTNMdwjrsGcCDDwA1d+xv9Ygt7EHEO/aMdgT8YgCBWSyCA9oz7x8aRHPDl8ui8amfePjSI54cvl0XjUz7x8aRHPDl8ui8amfePjSI54cvl0XjUz7x8aRHPDl8ui8amfePiESARCIOeByAyiTsegQah3MRPvH6CYhJnCEC8E/ohxzFmTn+dAlG1B8p/RPaJ7RPaJ/RER3HtHQ6GTeP4AD7w5k3j+BVDmTeP4FUOZN48oqhGY+pP0F+gv3F7pdqD8jGqHMm8eVVY3j41Q5k3jyqrG8fGqHMm8eUVQzMPUH6K/MQOYUEYh1RbQY1Q5k3j+BVDmTeP4FUOZN4/gVQ5kgICIyI1CMESSP8TrYp1sU62KdbFOtinWxTrYp1sU62KdbFOtinWxTrYp9sUMAIExJPqfr+of/xAApEQABAgUDBQACAwEAAAAAAAABAKEQMGGRsRExwSAhQEFRcYFQYNHx/9oACAECAQE/EP5YgLoB7RvTWf0VVWKN9yfh7HoMT1kfAS6qrFBXfnbUEeBsdF3iRbuCENobwWgFyBEgOoW6kQJtPecRcLYIYWR0MWBPecRcLYIYWR0MWBPecRcLYIYWR0MWBPecRcLYIYWR0MWBPecRcLYIYWR0MWBPecRPQSUIBG0BgE76aXB6DH8BbtPecdA3pADbXcKgdGRsA2A26CTSPweFQOqB1QOqB1QOhhMaPr6PokvOPAMj8RkvOPAZHEl5x4DI4kvOJQ7qGwegF/zlT2Qp+E+GLI4kvOJTWL3iLI4kvOJTWLziLI4kvOJQ7qGw+iFT3RD6oAKYV+mLI4kvOPAZHEl5x4DI4kvePAZHEkwPsdwfhQB0AB/aorhUVwqK4VFcKiuFRXCorhUVwqK4VFcKiuFRXCorhUVwiog1dgB6H+/1D//EACsQAAECBQQCAgICAwEAAAAAAAEAESExQFHwIEGhwWGBMHEQUJHxcICx4f/aAAgBAQABPxD/AChBpIzQR+/yPKBD6yWYofkktJSn+gAughGJbANycggAeYsRHlhv5Ojly5BxIMSSD6LvwhIsRAwa2IwagEIzJwHSCMj6E8BYlEEsIbQ/Jy5CjuqHR9uUVPLX4UBz4IHh0K4xggUJoDGBIA/Y8NQ0USCwAmIvYgXs43KBcA6CYOorajTYHMYNqClmIMSEiDdGgNhA0YwLOCgIjxWndPLmJ6dnTiBiDg+i42gwK4WshCo3rTIrI36s/YuANBmuJ8FwE60yKwN+rP2LgDQZrifBcBOtMisDfqz9i4A0Ga4nwXATrTIrA36s/YuANBmuJ8FwE60yKwN+rP2LgDQZrifBcBOtMisDfqz9i4A0Ga4nwXATrTIrA36s/YuANBmuJ8FwE60yKwN+rP2LgDQZrifBcBOtMisDfqz9i4A0Ga4nwXATrTIrA36s/YuANBmuJ8FwFaZFYG/Vh7FJeE/5Zori/AGAzQrTIrA36izgEPRdBujG3IONAZkcwEvggs5ngWf9EawqXvkII++FBWmRWBv1tYYgK7hiCN90IiM3gIIDhs/YLELKu1nXaBdMGjOX3B4D+po/Vpe56HjbWC0DNlgeYfYwBB2I3DgjzIRbi+zA+iVlXazrtZ12s67WddrOu1nXazrtZ12sq7QacpBh/IojIrA362gzQTttD8kPJB2+Ccj8YlTMWI7G4wMVNxAm0W9BBD7zoTIrA3/oDhk2P3C45oTIrA3/AKDjKEZFYG+vkXHUIyKwN9fIuOoRkVgb6+RcdQjIrA318i46hGRWBvo27gnMnN0ISKJMPCcgn7QX9GT+iJ/VEOADPHegIUaAYQyA8OIPZwi7+NMi46hGRWBvozgYECMAL7eP7upF7Xte17QkBU7cEMUZdwzckD8aZFx1CMisDfUg5CsDfpkXHUIyKwN9SCO6zN2mRcdQjIrA31IIyKyF2mRcdQjIrA31IMyKMEgII2fvpkXHUIyKwN9GTFMSTGAB9AE33ZSbL0vS9L0jdABzuyhYTPgIpYgkiXJN9Mi46hGRWBvowXBAzBzZEAsYH7CYkH6R/JQoP/CoRM1BgCfJkRueLDLlf9Jg538AAAaZFx1CMisDfXyLjqEZFYG+vkXHUIyKwN9fIuOoRkVgb6+RcdQjusXf+g4ehHdGAIYufyR/QAGAuEA+QL/9FCyMDAABCAgzH7AB+3XquO1cAHJJkAE/rKI7MQ9AENxQsoxoDgR9IwPH+gAY/wDJKx3pZr0s16Wa9LNelmvSzXpZr0s16Wa9LNelmvSzXpZr0s16Wa9LNelmvSzXpZr0s16Wa9LNelmvSzXpZr0s16Wa9LFekDhqQF9QAA+2fytp/wCmv//Z;" parent="1" vertex="1">
          <mxGeometry x="56.5" y="992" width="34" height="34" as="geometry" />
        </mxCell>
        <mxCell id="_-kJSPt_qq9w9nPcTiiO-288" value="InfluxDB" style="text;html=1;align=center;verticalAlign=middle;whiteSpace=wrap;rounded=0;" parent="1" vertex="1">
          <mxGeometry x="412.5" y="1026" width="60" height="30" as="geometry" />
        </mxCell>
        <mxCell id="_-kJSPt_qq9w9nPcTiiO-293" value="&lt;h1 style=&quot;margin-top: 0px;&quot;&gt;IOTEATIME 서비스 아키텍쳐&lt;/h1&gt;&lt;p&gt;&lt;span style=&quot;background-color: initial;&quot;&gt;Copyright©️2024. All rights reserved by IOTEATIME.&lt;/span&gt;&lt;br&gt;&lt;/p&gt;" style="text;html=1;whiteSpace=wrap;overflow=hidden;rounded=0;" parent="1" vertex="1">
          <mxGeometry x="-50" y="850" width="320" height="70" as="geometry" />
        </mxCell>
        <mxCell id="_-kJSPt_qq9w9nPcTiiO-314" value="" style="rounded=0;whiteSpace=wrap;html=1;fillColor=#f5f5f5;strokeColor=#666666;fontColor=#333333;" parent="1" vertex="1">
          <mxGeometry x="-320" y="1640" width="140" height="100" as="geometry" />
        </mxCell>
        <mxCell id="_-kJSPt_qq9w9nPcTiiO-316" value="Batch&lt;div&gt;Server&lt;/div&gt;" style="rounded=0;whiteSpace=wrap;html=1;strokeColor=#6cb340;" parent="1" vertex="1">
          <mxGeometry x="-310" y="1650" width="120" height="80" as="geometry" />
        </mxCell>
        <mxCell id="_-kJSPt_qq9w9nPcTiiO-317" value="Instance" style="text;html=1;align=left;verticalAlign=bottom;whiteSpace=wrap;rounded=0;" parent="1" vertex="1">
          <mxGeometry x="-320" y="1620" width="120" height="20" as="geometry" />
        </mxCell>
        <mxCell id="_-kJSPt_qq9w9nPcTiiO-318" value="" style="shape=image;verticalLabelPosition=bottom;labelBackgroundColor=default;verticalAlign=top;aspect=fixed;imageAspect=0;image=https://taetaetae.github.io/images/spring-boot-eclipse/spring-boot-logo.jpg;" parent="1" vertex="1">
          <mxGeometry x="-222" y="1652" width="30" height="30" as="geometry" />
        </mxCell>
        <mxCell id="_-kJSPt_qq9w9nPcTiiO-326" value="&lt;h1 style=&quot;margin-top: 0px;&quot;&gt;IOTEATIME 서비스 아키텍쳐&lt;/h1&gt;&lt;p&gt;&lt;span style=&quot;background-color: initial;&quot;&gt;Copyright©️2024. All rights reserved by IOTEATIME.&lt;/span&gt;&lt;br&gt;&lt;/p&gt;" style="text;html=1;whiteSpace=wrap;overflow=hidden;rounded=0;" parent="1" vertex="1">
          <mxGeometry x="-538.5" y="1540" width="320" height="70" as="geometry" />
        </mxCell>
        <mxCell id="_-kJSPt_qq9w9nPcTiiO-327" value="" style="rounded=0;whiteSpace=wrap;html=1;fillColor=#f5f5f5;strokeColor=#666666;fontColor=#333333;" parent="1" vertex="1">
          <mxGeometry x="-100" y="1640" width="140" height="100" as="geometry" />
        </mxCell>
        <mxCell id="_-kJSPt_qq9w9nPcTiiO-334" style="edgeStyle=orthogonalEdgeStyle;rounded=0;orthogonalLoop=1;jettySize=auto;html=1;exitX=0;exitY=0.5;exitDx=0;exitDy=0;exitPerimeter=0;entryX=1;entryY=0.5;entryDx=0;entryDy=0;" parent="1" source="_-kJSPt_qq9w9nPcTiiO-328" target="_-kJSPt_qq9w9nPcTiiO-316" edge="1">
          <mxGeometry relative="1" as="geometry" />
        </mxCell>
        <mxCell id="_-kJSPt_qq9w9nPcTiiO-328" value="" style="shape=cylinder3;whiteSpace=wrap;html=1;boundedLbl=1;backgroundOutline=1;size=15;" parent="1" vertex="1">
          <mxGeometry x="-90" y="1650" width="120" height="80" as="geometry" />
        </mxCell>
        <mxCell id="_-kJSPt_qq9w9nPcTiiO-329" value="Database" style="text;html=1;align=left;verticalAlign=bottom;whiteSpace=wrap;rounded=0;" parent="1" vertex="1">
          <mxGeometry x="-100" y="1620" width="120" height="20" as="geometry" />
        </mxCell>
        <mxCell id="_-kJSPt_qq9w9nPcTiiO-330" value="133.186.244.96:8086" style="text;html=1;align=center;verticalAlign=middle;whiteSpace=wrap;rounded=0;" parent="1" vertex="1">
          <mxGeometry x="-100" y="1740" width="140" height="20" as="geometry" />
        </mxCell>
        <mxCell id="_-kJSPt_qq9w9nPcTiiO-331" value="" style="shape=image;verticalLabelPosition=bottom;labelBackgroundColor=default;verticalAlign=top;aspect=fixed;imageAspect=0;image=data:image/png,iVBORw0KGgoAAAANSUhEUgAAAOEAAADhCAMAAAAJbSJIAAAAYFBMVEX///8irfYApvUAqfYApfUZq/bW7f3l9P72/P/t+P7e8f3K6Py84vz6/v/T7P3G5vzC5Pxuw/iV0vpmwfhOufeKzfmx3ftDtvd5x/mDy/nq9v5gv/id1fqn2ft/yfkqsPblc1kmAAAPyUlEQVR4nO2d54Krug6FdyCkl0kjk/7+b3mDCwEvy0WYZObcWf/2HpJgsOTPsiz/+/enP/3pT3/6mTovtpvdbnNYf/pG+tHy+sjyvKiUZ7ty8un7Sa5DlheDWs9G7m/jT99TSs3zfGAqzx7b0advLJXKIbRPvcn8/p8wymtmbaBu5W7x243y4Gjgf8Iov9EEUb/ZKHchDZRvsviVRrkPbKBu5a8zymPhb5fZyN9klJNHbAOF8ux4nX363oM0HbAaKBs5OMw/ff9enWNMEPTE1/z7a/npRrg0y9lvsG5lnl3K6acbQmmVdW6gauQPNcq1HUVZqoxy9ekGmSJYmytplJ9uVFMu1ma38icZJcXazzfRyf0Io/wJOECxdjG4Lm6XV+tZzX0y+seNkmLtfCP+vNLtyq+3TRW5iW3jx42SYu3spC4Yqwvyqr/ND4OMQQafjGZRrJ1t60tGqqM+5D9n2yOzkfsPGCXJ2sNb46q5HEuKo/6P822fMY1y+16jJFl7uGhdt1BN3L/+a7LYcBpZGeUbJ85n6g6H5j3cZEfNL63/Xd8LVivfZpQUaxcZ9qStauK38f+j7YNrlP1PnEnWzm3kfJftyA/wl/FtP+QaZa/RrC8KRYuz9fqNbGJ2tfztaZQcHKiiWafeGkmxdjGgLGQvm5CV9j/PTzyjzPb99FaKtYsHPU1XQ+eQ5BOeURZDW7foKpK1j65PqcFz6BjSxpyRMjP9V3fdiQbme+fHJvqOnJP4yWIX28h8l7R5tdOI/6GpvPMitzujl9b3OEbPt54vjNOFaqC/s2gKL/wD9irKKF09P1rkZAKHOpSm8EFI3HB8DTbK4tG1WbWW5GQizKNpCg+8o2l5CWtkTgxC0aInE6G/YKFwj76+A4wy1UucUj9gTCZcslO4Wyv/xNkCwwyNqV/JYhYdDgpRN1G/Pbu6J85J3OmIYO0ii4NDTeEn/6UtTa+ulxje7UnNqagowdq0VPAqi37sa8dbzGK/DLQgWTs+bqsp/Oa/tKFz6Vq/y7vOMm5UAx+c6bam8GAHNbptPHOPPO5xgbYs1qalKTzARU3X233mnz8WcZ7LFDWZ8LA2rZrC3X1rXH5XGYDtphCrBQXzVoSowH0HqFcUPsjICezqeskzc6x/zusHm3K+sLBjFuvwGiID910mZuNM3bLFUU0XhyN0zOery46Hhbq8hF6Vh1OHqU6sTaum8PZbnJXfA9OnVEmq+eU6b/L61ryrInZ8rdWRtWmpheMiOyh3PJlvL5m1Y36XOGuGl8hE0+6sTWuhbrLILtuyPD2sHXN/+LIPuBfzxjJWmDg0cM/Tq6cV5vxBdMzdzcHTV7Ob5pyUHDJJJoq1aRHf/nx1j3vpCRPOoYUM+CYD950RSekbvl90zO06oMMtwRDjB2c6cJ8qCntv98w8Kza34Id3hI4V+/NU4J7D2gE3mef3RdSTO5jP37pi4hAZuGextlWzRkezLNp4tABDjINvMnB/TJdf92h8bfx4fTbvMA6+k7M2qhW3yxlfgCNZxIfJwH1MAMmtFksUHIbfwJgfDt9k4L7bJKypNksUHIi/gSEGYwgVuM/YcAuq02zUkMuZSc/Y8E1OJtItgKi4XfFYj0/i11hQCaYU9pzIwP2wYySkIRW3kzEQYU4sqNzDOwjx8/RkIgVrS6m4nfLLo+olsiK6MEcMeU4TajKRiLUrqbhdHQMRL5QzCiF8B8xZiTcYG9d2CZJrRGfjRHQnMOb7B7MDNUyky3g4ydtqxEBEZ4uFSiGAby84jInNkelY25ZYI4L1rIjuCcZ833PC+ZpoYDrW1kNtKwYiOhsroovw7Ymt4KRSNDAha6uh1vDLlfEXMVCphfDtYaPSZoU9sLbpl8VEmBXRNfuc7znZOmnEerRPaqjFGIjobKyILsK322PYhopOywEtadZGvyzi3wUnwBwL3xYzTJeMo1jb6pfFnzjwPQL4dj4nGEC5fcd6L5q1bX55JwyR49Di4HvaYwtbrA0Sne0N8G0bLIo742dRbdYGSfjmLIQgfDvTTrCBXucUJs3aJDYKV8OJkEDygvs5ge+tlCDbiEpkf0l0Nk40KhK+wfeKjzCX6l/SrO2IMYjO5oVKm2CEcz4n8L2yiR3HfM3arnFHwjdnwe4eB9/2GGK3HFzN2s65g4RvTsAtEr7B96oPdViwt7M2iA3f4zj4Bt+rm8hesidYGyThm+O3gWqcrpFMHGMu2mvW9sdAyjfBt43b1Mc4XoBmbVBK+HbuOMXZxUN7ivhNcXU+akjnexd8g+99IoJaZ4vOwh3lDtYGJYRv5+gGs/zqgSgkoRO0rKpZO+yuJXxzcpkRvl1Xg+8VHUdm9VoTtEh5WBu0ehd8gzMVHUevtoXH3LysDUoI30642IEhipFMupvwnH/N2hEhwoTw7WQw9L2y48jE5VAK16wdM7ncClfTP3yvwNVcml8TRuHfnFT1LzZ8Q4jQ7RMxb1P+/1ImToRQeBBrg/jwDQNAJHzrjjNRfOK9h0DWBgn45sy3Z2CITuvATCP9QM5yBPdRuM7Dj2ag7zfB9xdcXr809ayc2yRq1o4fuyV8c8qYwADgzAqAkGLjgayGvv5XszbDJ87Y8I2pps4OBL638UBU4jLZA+tNoqy8efFhTsgEBgB3pB58b7PjqBR5Yr6nWTuCfZqS8M35ZEf4bj2Qq4PCNWs7NuU7dWXDd1yqKfje9gM5kBSuWZsdfVyxV7txAHAGFRC+W3++ExQez9og4Wo4gT0YANzPCdL8jQeys1I4g7VBorNx4BsHAOdzQt9rPBA10Wj1RsXaeaeFHNHZIifaUpDnFAnf5ns5AoVr1u62Uehd8I2LbLDSLcfMF4VfHNVnIiQ6G2s9DwcAJxWj7zUH8KX6GvVyNWt33ig0+Bh8wwOZyj08+aOcjUu9IbR7Zbx3wTcsdlhyb8+6Tkm9oTPFnn8J35xyZXH7vHA93zKIm/0iSVED8aWs9I/IfV7ge22R2lWriR03Gmux4TtynxcsdlgfSMt/FWnybi5c+I7c50UF3Aw1fW6i4iISvjnZuh3h2x6pNTxSilJ/b4NvKuDWVtsjJSn1t2TDd+Q+L/S91qgEzEK6l/pLCN9O34eLHVZcsezMEKX+OtTfTAjfzqwA8L32SK0O6RTGLuUOB1d8sVe7Eb5dwSLwvXZXqaIW2e5wMmqPCaPkhKM+CN8WWJTry8VevC4sncszyoTw7dznBWn+tkitWC1qEN1yYdazzrPBKTKnUsJ3//u8EL4tzPKwbMky61lXtVY2i4jgGx++41JNIc3fAkFyRRw9uyjL1do+WRll6JSID99hrFkLXC9CkCAsu5OFWnkRB1ew4RsXSuNSTRGC5OBM9aflwqyVF3iaDBe+Rxh8iUs1BQiSEOG8FZtRek+TYcK3bd9kXKopwKJwCV6EtBml++CKOQe+p9bkX3cCkhe+RW8KoY9Io1zG7vMa3TZEWUX3oIO+tw2LEntCBy4oYOk4uELYd9hWnYmqdEbte3W+Q4Tv9uv6ivV5q8PDYpSWCw9h+7zGiztUOvN0u7Yg08iAIMEekeYCVWWtNfID9nmNbjusdIbyVG72wLfcRR8N15Ny5zNKQRskVE7CSvCJr/asMbhWu/X8ihecgUMRDKPM8XlKjUtvx2zKt80IU02bHxDGwt/YZtZfbx5coXyY4WztHdN1HpE3Md692j1gZ6FpQf11NXFeKpx6vcTpl61j6jJ1Z/vm5YBUTkzzb0CQzAzh7B5oCk4qed50potTFY+Ka4iO2SxTB0El3ULvjMa12i3GElbui6n5aZARTjEb7O0ds1WmjipbGZB7j5lGr04pqTtRIQnyUATYx2wpU0eWiA8ISSJ810/lTEwN2Qo4FMFepo6qNBOUCYvwXc8Fb/TUkC3HoQh0mTqq0kxgejm4mtqzyIzl9GeFrU8FPNaqJitRpo6sNBOa8oLwrcx74p8asrVq3HXFO6cFyU1k2crgnWhbKuAmyJGVVx+iuopbMShdDp8uER9czgpTTdXwILxssuMITOlwhCf5iDzbNSK9HPd5KfuNmhrGS+WyuBs4p8pWRqWXI3yL/16zw2Fh2hmRZpvI86bi0ssx1VQMtnfG1DBGsqqSMxZFnu0aWc4K4Vs0S04N+zv3TDCvc2JGlq2MjdHhYkeFQity/pZGcoHN5S6ospWMcla4yPuv89TQK7k243gZ9Nmu8dlUuNo9Vv4nYXUzU3LNjv47VSKeVc4KM40WuuvyW+CRiI841v46sTYIU02/1dQwXRVMUwfLml1DHVkbhJFv+VpTTQ0tErBJTcw6szYIVrv1nhju/Xs1cwX1u7M2CDKNVDPT1aI1tXXEg+kS8fx4Cqx2q0eWrtKnKTGzsC840KzdIfvaVjqKvIMUkgFvq9cgS8R3y762dvzepoZ6W76NeWnW7hZrsIZbe5saauq2sEkq1sYvtq6tpiv2aUhOSS1jN8naneEK93mlqBxFakFUVkjI2iDbO+zPDHf25ZA7NUykKB1rWRXoceZkXw6hSsSnKR0L8G19yIm0ti6HUIH7RKVjIdW0Ul8xmruNuo/UykSiu7BW3s0vHY4Ac0hSffv3k7M2COG76iDBaWoxWuFyCFlBvdORaG1Bqqn+ibA0tRjJqWETUc7UelTCYxoo+B6ojJiY3FGfHmbSHpzvUDcwZZgIU01brazS1BJFv2dmmSGatdMGaylTbzQyjVFejU2y6zRx7cAf9siRphYu4dNezEud7ZrymAYpe6V2eJMhuaNOTdvUTZ7t2kMgM+Qlyh/35Y46dWtRN3W2a8pjGl56ED9mbyTXKPfNDUHUcUwpj2loaBqUKPd6yqyRctlckOmXtS2ijuQm3yRjpFw0FmR6Zm2bRnFvUdxNzC6Lf/rIIOFFqMB9wmMaUNNjfBuFUW5DjbKmbvI4poRHoll1GzDaGL71aa6pmw7c9xeG1voik5ackluffB5CAP5zrDhTX5OStR2qMgmDc3SbrfTuR5SPbl8myCHpKjKT0CfnfsQ6iYb4cGLW9gl3U4ap2iR8t2+Uoups6wb2t1BCaQK7KcNbiRsQfBOY5KwdqC5GeTXOG3fRfR+sHawuRtmcbhHl7tW1/aXuBOlplEPuIKJ3BVEYKq7rh7XjBBthglv5nG5dyy0VTxOX9MXa0Vqbu9OCG+n8WI+rQAytuEZJq1fWZgl2p3VsYM+szRNsGe3QwLS7AVIKtoyy1LGCX98yt4wyGtixgt8bBPu4o9S9gt9bNGEb5QdYmy2WUX6KtblaHeIYPTpf+ycoyig/zdpchY6UP4K1uVoGGOXPYW2uzIonZgN/FGtz5TDKn8faXNmNshi+L2j4BkFtsCK79JVt9TkJoywq5Vl++u+1T2h2u+92m1P5Cwf5P/3pT3/6f9L/AFvUv+CNc2zeAAAAAElFTkSuQmCC;" parent="1" vertex="1">
          <mxGeometry x="-71.5" y="1686" width="28" height="28" as="geometry" />
        </mxCell>
        <mxCell id="_-kJSPt_qq9w9nPcTiiO-332" value="InfluxDB" style="text;html=1;align=center;verticalAlign=middle;whiteSpace=wrap;rounded=0;" parent="1" vertex="1">
          <mxGeometry x="-48.5" y="1686" width="60" height="30" as="geometry" />
        </mxCell>
        <mxCell id="_-kJSPt_qq9w9nPcTiiO-335" value="" style="rounded=0;whiteSpace=wrap;html=1;fillColor=#f5f5f5;strokeColor=#666666;fontColor=#333333;" parent="1" vertex="1">
          <mxGeometry x="-540" y="1640" width="140" height="100" as="geometry" />
        </mxCell>
        <mxCell id="_-kJSPt_qq9w9nPcTiiO-336" value="" style="shape=cylinder3;whiteSpace=wrap;html=1;boundedLbl=1;backgroundOutline=1;size=15;" parent="1" vertex="1">
          <mxGeometry x="-530" y="1650" width="120" height="80" as="geometry" />
        </mxCell>
        <mxCell id="_-kJSPt_qq9w9nPcTiiO-337" value="133.186.244.96:3306" style="text;html=1;align=center;verticalAlign=middle;whiteSpace=wrap;rounded=0;" parent="1" vertex="1">
          <mxGeometry x="-530" y="1740" width="120" height="20" as="geometry" />
        </mxCell>
        <mxCell id="_-kJSPt_qq9w9nPcTiiO-338" value="Database&lt;div&gt;&lt;/div&gt;" style="text;html=1;align=left;verticalAlign=bottom;whiteSpace=wrap;rounded=0;" parent="1" vertex="1">
          <mxGeometry x="-540" y="1620" width="120" height="20" as="geometry" />
        </mxCell>
        <mxCell id="_-kJSPt_qq9w9nPcTiiO-339" value="" style="shape=image;verticalLabelPosition=bottom;labelBackgroundColor=default;verticalAlign=top;aspect=fixed;imageAspect=0;image=data:image/png,iVBORw0KGgoAAAANSUhEUgAAASwAAAEsCAYAAAB5fY51AAAu1UlEQVR42uydTYgcRRiGC41EQbyoVy/xBy8e9KgXtas3IwrmEFAhxJMI/qAiSFePMsYfJELEHNQYFPqb3Rg3eJGYkxpyEILREAK5BKNGhUVdNbAYPMhO5iU5hJBsspvZna+7nwceWJLdme6q92tmuqqrAsC5rHuzuj5/eequPE12YmkbstKey5O9HpO9H1O1K0vV11lhB7NkR4Y//xBT9Uss7Pfhz/9khZ2Mhf0v9bP+Tf+n39Hv6m/0t3oNvZZeU6+t99B76T313jqGAACwfnr6yrXd/m150X84T/Z8LOzdmOzzrLDDWbK5rKgGLkw2p2PSsekYdaw6Zh27ziEAQLPoFNM35l27T59gYlF9HJMd0CcfFxeky9JO6lx0Tjo3naPONQBAPdCnjonUvzNP1TNZYTtjYb/6uLisnDpnnbvaQG3BJzEAJ3S27lk90a2yWNqrMVVfuvo658Vkc2obtZHaSm0WAGBl6HR3rsnK/tNZst0xVf+6uCjUSLWZ2k5tqLYMADA6ntj23VUT3f7a0zfGq6NeCr8pqk3VtmpjtXUAgMXR6+1dFbuTeZbso1jY316Ku+mqrdXmanv1QQCAC98wzzWal2zb0D+9FHFrHfaB+kJ9wo17gDNM9Po3x1S9lRXVjItCxfM5oz5SXwWAtqGRqlj2Hz0zY3zeSVHiRbV59Zn6jtFGaDxZ127PC3snpuovHwWIS1V9qL5UnwaAJjGRpu6NhX3Bp6kmavPqW/VxAKgrGmXKkj029HsfhYXLrfpafc4II9SG9b3pa2NZvaDVCVwUEY5BO64MKAsBwCPrt0xfk5X9F5mSgFIqC8qEshEAPKDRory0Z5mWgAs4o4wwsghjQ49xxNKebOOKCLg0lRVlhkeAYEWJ5eS6rLBjXgoB66YdU4YCwHKyNu24QxMHfYQea+8wS8pUABj1qp0xVR9onXIXQcfGqEwpW6yWCiOZS6V1xLPCTngJODZVO6GsMYcLloSW19XuLj7CjO3RDip7AeCS51Ol/ma+/uG4VPaUQeZvwYJo7SPtnecluNhyh1lUJgPA2XR6k9dppUkXIUU8R2VTGQ0AsZi8OxbVTy6CiXgBlVFlNUA70WhMTP1N3KvCuqisKrOMJLYMbe8UC9vvJYiIi1HZZYuylpCX1UY2HMXaO8ywshygmehJ+Ziq7S7ChjgilWlWgWgYWc9uiskOeAkZ4ihVtpXxAPUnpsn7WVQPG+8w48p6gPoSU/8lRgGxLSrrynyAevF4b+/VMVWfegkS4kqq7KsGAvjnod6OG2Kyb7yEB3EcqgZUCwH8ErtTt/AsIOJpVQuqiQD+yEq7Jyts1kVQEN1os6qNAH7Ikz0Si+o/HwFB9KVqQzUSYPzEZE+xBTzixbR51UqA8aEhXB9hQKyHTHsYE1lpr3kJAWKtHNZOgJUjS7bFRccj1tVkWwIsL73e4Iq8tA9ddDhizVUtqaYCLA9crBBHf9EKwNdAxNrI10NusCPWSm7EM3UBsU4y5WEEk0K9dCZiG2Ry6WU8bsMMdsSV1uZ5jGcJDzLzbCDieFTt8cD0JfJAr7qVVRcQx63NqhYDLLz4HutZITpxWIssArjAssasFIroS9Ukyy2fB9ZgR/SpajMAc60Q6yJztM7aN5CtuBB9qxpt/b6H2q2WTU4Ra+KwVlu7w3Rn657VbB+PWC9Vs6rd0DZiqrZ76QREvHRVu6FN5GW10UvjI+LiVQ2HNtDp7lyTJZvz0vCIuHhVw6rl0GR6vb2rYmH7XTQ41tI3Ptk32Hf458HR32YHR47/Mfjq0I+D93Z/O9jw9mcujq9NqpZV06GpxNTf5KWxsV4++MrU4NCxmcFC6CK2edcp9q78OYrzTHdVNrW1W1v7SzZ/QVKV2l+SrL2bzbFJNgmSED4wtrGxsfEFGAdjA8bGmhlJI2l0cZnLHDaXRhIIiVPiBgHmvg9xiPuQwBwCISEkQAfvzlOhazuj6a+P6Z55R/qeqqcSw0z32y31Q3/f93zPu4tS04tZ1NwbiGda6YlISiv5nfRbSdpl1b6zZBZ3mltp2qp9lOINsqi9JxPPNJ5tpSch1V/yr6HIistcbrJkYrG/fzF1dnYR8PBxBy3ZVkNZpdtowcYjdKa+gfRQ39BE4+dvYnENPZl4tvGMKz0FoQtawOXmSiYev1ywmVQs3XGy299/NKOKNh+5SB0QtQgo2XqcxXX0ZOIZV3oCYOfnclMlE5O+ompSMXvNQd3PvZ5XThU7T1J7RyeFY/fpOno1sJTF9fRUJvuCf1YSGQOnlP+TzLeSjJbvT1lFKo5euGH4+XcmraC9tXUUjidPntCDh4+poamVrty6R7V1DVR99CJNWbEn9J2VLK41oRl61vHMK4mKPp7iCSxupGTCs+52E6kYPWe9qe9MrNiFYaKlyfr1h84ThqDJHjlhb4d45pVERIqn+Bm5KijpFCE+Ki7daDRtXRj7zQa6de8BWcX1O/dp8vLdUrhsrBri2VcSCTCThTKhj3C5iZKJzyRPkdaHBZuD6e/C3gBj6bCpqym9qJomLttNs6oOUEn1cdpx4go1tz4Uerv+OnMNi3uQOAweSShDabInOIbHjZPsSRxcuIxaH7WTisLyXY4cN9VXTHllO+jE5ZsUCV1dT2jlnlp60b+YxX1IBEIDlERAalr5j0MK28Tlxkn2LGJrjopH7R14a3L0+ENDx6vceybiSuPtpgf0+Tzp6zJDaAC0QOGOJE/RHB43TLKncuXu04L5LEeIISSGixFXGnH+fuklLO4FZ0ILFM7o61n8cznRLuk2+/qKSetwX77rtGvnGj13fUQ3/dVbTXgbY3E/uBJaAE1QuCLkw9jK5WZJ9my+NWE5wVOlzjGNmFHl6oT/gk1HqLOrizTANiHMfbG4H2wZ0gSFI0Jj1pdZ3CDJXsOC8p2k4uSVW4afx+rgzcYWamxpw1yY1fPB/xXRIrFi92lKlhutdZnkLRmgcMLwuYd+GBKsi1xukGTvodbq4Fm4xSiiBkM5dS4KG6gtn29A9hLafeoqhWP/mWs4Pot7wo/Bi9AIhQuSvMERPG6MZG/j8GmV2v2Chp/HFpz7bY/UVT8M92ydd0blfnoctpKIua5XAmUs7gs3QiOUuEPtfpMWrOdyYyR7H7EvEMAcEzZAG30eCaUAhobRnPeT2esI82haXLvTTIPyK1jcF06ERrDotpPsDX7C5aZI9k6WbT9BKr6u2m8qvbTpwUPaXnM56nPDBd/c+igsh6uZXssrZ3FvOBFaocQTL/ir/jlUyA0uN0SydxKT4SrgVjfzHbjkB2Q7M3wbNm014W1NA7z1yTib7rwR1zSHPt7icUxuhGQvJuahMB+lWhzi8Xbz3pSV1NDcSlqcv36Xns+UE/FaQjOUeGCgv/xfZJt5SS5EEqmKqSv3xqUGuONv3WvpFhyY5OFxj1gwpBnQDiXWSPIEP2NxAyQlQ/xwehWpOHTuejzDBrUbtAGIKYt7xIXQDkUAd/oLeorquNwASUntaiEaVryaG7/5I3/JNoLPSwPpiNcQ2hHT+Jk+nuCbXC5eUlIlMq5UzFl7MK61lG6tIS3w1jVk4goW94kFQxqiADESrMMsLlpSMqwdWNvjdgIu37wX94UAuN+1OHvtDvX1ySavIDREiQVSPKV/YnHBkpIGDVczirfGtZaXspYQopa1qNgp57NUQksUtxFyrK7lcsGSkpEC+FRc+P5u3Ffo4NHSNsKA7eLjr9eyuFfxJrTE3aGgL/jvfdKCT7hcsKRkJG47fplUzFi9j5UT/2nooGyjHyK0BJriZproVB4XKikp9kOpEcfY6/fu5Pj2HMRWIBhbtVi0+SiLexVvQlPc2+TsKbrL5UIlJUVcuOkoqUDjVAT+xbOe7NLtpAEEFTWxuFfxJDQF2uJChEzxG1wuUlLSTGuvU1dvayON4z4MO3z+Ommx5ehFFvcq3oS2yPhjyV5P2Byu3LxHKmDojGM9GJqqQ1U1Dgety1jcqx4Vo5ziL/6pnGyXTESGzKSs3OahbTpy206EyXdojJOT7QU8LkxS0hpP190mFZiMj3c9r+eXE7YOqUCWVmq6NJNCY5xJZSgv/4HMvJJMRCJ9VMWNxhYWNYEIDtQA2Vws6oozb0BrHHi7KvkLkwuSlLTEgKZL9OJtNSxqAj+ft5E0wFsgi7riTWiNE/sG53K5IElJK1y1p5aeArEvLGpSGbZlB1HLLOqKJ6E1UcfIyJA+yUQlHOXAuWt3WNSj5fTV+0iLrccusagr3uF+UcXOJPlKkllciKSkNaLdFjKp1Fb2LGrS8rmMEmpufUiAmuH1ZoG0OEBzohkOzudyIZKSFp3lrOwMkRjccoy0KJcWB4Lm2O7mnJQWbGRxEZKS9sUAzVNZ1BTpLfBRewcB6r7HF3p50wpojq0u0Sm+4r5cLkJS0iIxJ6QmfbKoR4+r99aSFrPXHGRRVzwJ7bEzHJzO5QIkJe0aRm/de8CiHj1iAzS26Ki4e7+t1xtJk9KC0+y4289xuQBJSavEZmeg7nYTi3rE+V2XSIuZlftZ1BUvQnusRcn4yn7CpXhJSTtU86fOXzdnafjgq/j5tEbMqCJAG4eT2suz36FBVjo6f8ylcElJO2y830bAySu3DD+bv3QH3W97hAYRbKJnpq3ax+I+xovQICvzV2tYFC0paZPf372vxhEbZq6rK3VpCzfHrd7x8zeRBph7690xyiENspIs2sqiaEnJ6FzueHMShvyh+aqKXSevxrVmNM3QYkJF790UDQ2CFpmwMxT14VK0pKRdHjh7jVQgUz3SZ6as2ENadHbF122OoakGCB9kcS/jRWiRiSjkYBaXgiUlnfA3vTclsnH01NVbFI4l20/EreZkb5BuNrbI6JmnhBaZsTNs4VKwpKRNwhogjEZGkB72GoYDbvMX/YvjVndW6TbSorGljfpnLWZxT2NNaJFxWJ8n2MKlYElJu0RcC6BufjYShsftnaTi2/WH4lr7wXPXSYt9tfX0RkEFi/saS0KLhKF+KZ7iZ1gUKikZJZM9QWp71E7AtTvN3f6+dGtNuFkT23hUtznSFOJW+zuTVtDjjs5u82v7z1yjLxdsZnF/Y0VokqKHZE/RKC6FSko6GUUc3h7+u5orpMXwaZVIJWXT6HT+xsOkA6yAYm6rV9geoEn6/qu0YBmXQiUlo2V6UTWpQPt67d/V1jWQNosKzvKXc8pIfSvD/w7MXRrX+jFsxcKAHuA1g/Uh2dOThStYpj/hnhas51GkpKQzzVRhwAS6up5gqNXNCQ/Ai6X+edn2E6Ri7YFzLK4Dq5zzNhymM/UNFAn1DU30xfxNLGp1mtCkyIbRtPIfcylSUtIWxV4rzAHhbQRvU1ghjGgYfTWwlNoet5MqcsOmrmZxHdp0h+LqY4QuQFrgelbuqaV+6SUs6nSS0CbZHUeyVxDeJsz5aEUr3KBZFua9mlixi54CBlQW1xGJn327AdfT7W1r5Nc9q6EFtCnChufgaC4FSko6SbwlPXzcQXoYM3d9t+9UH71IKjKLt7K4Dj2iPqxsaufkkLia3FMm5UPaFGH+qmgBi+IkJV3qBQivVRiQmxXp89jOgxBA1byJCXkW16HHAdlLaNORC6TFsYs36JUA77rNENoUSbAOcSlQUtINjpq1lrQT18cv3aQhE1cIRKAME/LqKiOLazAiXP1of68CW30+nF7Joja7hDZFaEcfbONSoKSki8TEOsTIzGexhUdNL0UnHhb1m6n58Pnv6SkwHEYXbBa12SG06e8c76Hgsp/xKExSkh8xHEQz1qYHDyF2LGoyQ4QAwr2vYgmjdv1WCY1SVCSnFb/EpTBJSY7Ehui9tXW0+3Qdi3rMEnsQMZelomTrcRZ1WSU0SrMlJziGS2GSklyZ5CnC9h2YOFnUY8XaseHQeVIxcdluFnVZITRKtvSSlLRB+LR8RdUsatHytbxyQszz5OW7acHGI4SUCuSCVe47Q9XHLpGK9o5OGj1nPYuabbX+SvIEK7kUJimZCMxZvJ3GfrMhrjWgfyFWBbGCeae5laygvqGZxX00S2iUVrBOcClMUjJRiP173kXVcWlYsePEFXWjtilg6w5Eat2BczCaJmBL/GCNokKG9klK2l5BjGl21vMhoYGTXQTkf0GYpq/eRxgioufi8xmJJlDdw/wU4AX/4n9jUZCkpKQZYgjYfePz7tOEjKy3Jy5nUaMbHJBX9CMlOb30WS4FSUpKGhJhg0ggDWu8updFbW4SWqUk+YL9uBQkKSlpjkWbj5IWHZ1dlJvQbnZjQqvQ1uttLgVJSkqaz6yHITQclXvPYPWQRY1OE1olTaOSkgnK/v7FSJSIGJ2cztAn5oR5FIIV4FKQpKSkNSJhFFHOkYCtRG9N6DmT8NAqNE6dw6UgSUlJ+w0r7rc9onA8au+gvLIdLGp0wDw6G4JVwaUgSUnJ6DY6I+NLg4Tf9KwltErp4ynayqUgSUlJZ7YNIXgwHHDHP5eRwE0qQlqFN6yjLIqRlJR0NFkCzTbgegc0TTUSNusdWoV9hKe5FCQpKel8tAzSG27dayEV6w+dZ1GbVUKrMCS8wKUgSUlJ1xI7acbqfaTmvRdtOcaiLiuEVsluz5IOJUIuoqG+CZSZMZ4m+T+lOVnDaV72BzQ966+U7x9DaZleGuydFpfankubR5+k51BGZhqhtm+yhtKS7MFUlP0Ozcj6iPIyx9KXmT563zeJxb10k6/nldPBc9cJmFm5n0VNVrpAQ7BucSnISgvyhqZWZAAZcvaag67WUrXvrKk6CpbuZHHvnBYpb6aHNgT606XC/6TvC39uyHMFvyJ8PpA5jl7wfOtabYO8M6kgJJQbc/vT1cL/MFUbeKrgt7Q4ZzB9kZFB/dLmO1JLSfYQOp3/G11+mp4T85/drDUHCEF+c9cdYvG7ZIbQKgwJ73EpyCzfLFxGZnH++h3X6kDL8wcPH5MZFFcn4Cu4gDn+cVST/3s85LZ5ueBZWpYziN7xTXYu7sUzm0pz3qLrBb8wWYdYvDIyx0dd04qc14TnGZeeGZef4YgZVXTr3gP668wE6RQd0iolEdt7Id7VAlxz+2L7gwESfqIznC955tKa3AF40BzjtcJfUGn2YHrFM8v+W3faApriH0UXC9Q3Pee4Iy+Fhvom9jjBUv/xX7T5KIvfLSNCqzAk7ORRjHliV7oFuPbai067JoF5Axb3Ltph1on83+Ehc4UVgUH25qg882hD4EXX6gKvFD6DoVuPE6xEIrQqIQXrm/WHyApq6xpcWXVpaXtMZnHl5j0W984uB3jm0OH8P7oqCsN8hZbrwjzYttxU9Riui9bojGwpWHEUrIQcEiJd0SKwbcHRGryLtpAFYK6Lxb2zy02BF8zNSxU+S5tzn6fS7LcJQzSsGmIVbqp/JGHYtz03FXNX4d+D6FiPC077lnbnJZkedmJoB/HA6uX87PdpeeA1wnnrCn5pWrSuFjxDI9PzpGDFaUiYkJPuu05eJYvAqoijNaDPm0UkYPB/EYgVM8MHGZPcsAq86p1lar5pZHouzc0apg4xcQ6rdUEUDes6m/9riKWwrv6ebyjXP870GyQ+19ezUApWHCbdE9LWcPbaHbKKk1duOWqrwM54q3h/yioW988i8YAarvZ9lJ5v+/gfh8QrybPIyncwn2QoLNty+9FAz9dmjwkbAywIZkQL/jIpWHGwNWAvYR2XgsyysaWNLAJB/TDNOXL+LxdsJhtAWygW988K3/NNMnx4v8zwxrImTLIbWSrgv4JPzNbxZ2aNMDWfNcg7XQpWDAmtSritOfA+QXxsAFsTHKkBLZRsAB2DWdxDK4QTXPwWkxrrmjD/JKoJYgb7RVTnqMx5xUi04JSXghXjrTnoSXiKRTEmiTZGerh0o5EEQAa2I5tJm1sfUiRc+P4uibBwU6L4Xf6f6wMvCR+2/MyxMa0Hw7YLBb8S1eSIc3yAdzaGuobzY8mehVKwYkRoFVYJj7AoxiTRHlwP6w+eE4pGV9cTejWwNOpuvxEAi4OR3QLbeFjcQws0WoVTl/ljRTjPhfXsyk1x6lx4g8IxhRyb4ZeCFSNCqxIuwE9kGl264ySh/ZEIU1dG179tzf6zFAEwkQprA/bV1rO4hxaIVTxW81dbc/sZ1ONz0igLO4TwfMsCr0vBimGAX8JFJH9dtZ/0MH/jYRo2bTWJcPj891G1VrrXEnk4mFG8VfT2pw4Z9Y4NNz6GtLosinL7xPJdp4XHHzJxRcTvHTeY3J6dNTxmP/u3vFONVithmXD0nN/l9hWdE5u+pWDFMiIZwe5cCjLD0q01hm9PaHOkh87OLhqQXWbr3OO+3UiR8PBxByF69r0pK0mEu/fbdI/9+bxNJAAC2KK5b8L5vccdnZSik0IJo6eBJ0kVCdf5VdbHwlrWBgY4/w+k8YohYnOkYMWoCUXCtflCSyM9IMsanynfcZJEmLR8t61zo0klECkrG3/fP2sxASKxFE/mi71dH06vsh2X+7i9k/Rwpr5Bf1dBYKDRA4uMqZj87FcFXhXWUegf7fQ54Wo3tnVk+qRgxarNVx9vcDSXgsxw9+k6Q5/Tp3PWkQDItbb10OMNKQKQna1+TigMwMs5ZTbd8/ZTIpFWIQDm5fS+C4OkqZiYUW5nOhkPTxEg6Pg58fZYL87TwluYFKwYEFqVcK3qT129TXr4aEYVqeLSCHHRQUdnF96GLJ13zNz1po51o7FF7Hb/St/t7iuqNsj2uuuK0XXKij36CZXemdh2YyXNwBW+6JlrVAM+48q5j+b/QXjeysArUrBi1ao+yRfsx6UgE8T8lKncK7w1iFBYbs3EuXJPrSA2xpygAp99u0HfFJteTG2P2kmENwuW2V+oEAu9Ljfmvmh6gzHih1Odn9OCGBolmUZ5DvvXfyjvT1KwYjIkLElVktNLn+VSkAmKHmi86Zh+q9hzus7SeRuaWykSvlq5x9LG7JzF3wnPs+34Zafd+ph7E71tIipH+P1hvgkWEg3wAP8vNjc7+nOf7B8lPOfOvBTXfudKct4WJ5Pm/04KVgwIrVIG5BX9iEtBRuyXXkIiwHagyatCpItoZcxMeoJwTgxG1IG5S80uCpgK/oegiW0Z1oMAj1z4PuqssAn+Ty3nR60JDKC3vVOdyUDLHio817rcl9z6vUPag+jcSDmVghUDQqsUIGR5b+FSlN0sd1gLwj9ffewSiZBXtsO0hykSTlzungCxZPsJUmGjZThEFGIqnn/zL3bk7RBYtvOU6eOU5bxpPf644JdwjGNvn6tvOStzBrr1e4euP0bROlKwXCY0SlERsrzXsCjKgAjL10NjBI9TVuk2EmHnyaumzoug/ghARx6raah4AzM8397aOhIAjnrT9+y1vHISAPfIoi/pQ1tpndj/N8n/iSBHSkiE7YmODzF17fcuK/MLo+tDgoQULBcJjVKeAubRSh5F2U/5rG9o7p5ImVkqtBk8au+g5zPEw8JRs9Zaam6BLrsCwJZhPPyq2EUibDt+yXyjjOBWEgCCZmM/XxqdL/gvW8J1LP8PtrbPrM/tLzxuMHuIe793mR6j60JAoBQsFwmNUp4CIX7TuBRm90E+dy1yOy9MrgMGZlNdVuw8aclikFksFojTdbeNrhNOfJhMRXHLqjPdkBiC6gArrtF0z8FQD0M+W8K1Nfc5+kDQicaq435h9ntu/d5BUAyvZ6B3phQsFwmNUp4CbvcxXAoTcVbVAcvRMRMN31YuC895U8dXhdZIgjSJaEUCex4dCQM8hC6/Othy9GLUP5Mhvil2O9Zg7gdNS9XhlJAH8v4sOhbmuNxrK5eRbXQtyJeXguUioVGKiuS04pe4FCYgnN6WbQpwlnd2dZEe2h63Y/XR8pzZ0KmrI1sAQn8uAGwZpq512qp9JMKqPbVmjoMoZyPDqBNEzArsDLaEC2L0uneGeF4vr4/wGOU5g1z7vfs8I0NOuseZ0ChFRcgC8DMuhYm4bNcp0kO14G0Bb18CYBgX8XtLvztBkXDtTrPuuRDDbIRk4+EcjiNKVsVCgOEx3pm0IpYNZhFmh/18MHFaFq0zBb+m4ekFesc2auWFfYbuzWFleIwWFKRguUxolKJiYHn5DxKh3Rf22tkJx4P3CRCInSVXfdn2E0K3OmBzP2GYa/4WiTBC7FCHbUM0NHV1G82C7PdgNrUmWvm/RtMIO8mn+HvXric783PhuU/k/48ULJfbe0GjFC2S0ooO8SjOVnsvJDTofQ/bWQx7BqaGub0hBnr4+Ou1wjqx+igA3nxMXe/ctQej2QyN/o1GG55d5Rve6TB0WhEtTK7jTU3w0Mc+W77AP8ZoSCsFy90VwoMKECZYC7gUaGdoV1x9LKrWYN5F1X9vAN1WQxEAE2bUXX1Gfr3GQsqC/c3Q6Dath+zS7bH6uaGZqhUbBHoERuhBOFj4nZP5v3Wt/jlZw4Xn3pL7vBQsFwltUsKQEDEz56/ri868DYeF312w8QiJsPHwee3nMU9le7L7+p37JMJ4C+2+IEoCwP1vdS4NW4rUEMNYEakPauqBEZEjb7VTDia+o9t0bV9wMPyVguV2rEw4kn3BP7Mozl5SAxIJhN9FrIsIWE1TvU3Dp1WSHj6ft9GyyIg3QIuJTjsizNDZm4g0CoOmsjHnQAuiFe7Rmmi8lxERyi414kgWnRdGWilYLhLapIQjNa38x1wKdGuJvr6hiURAwgM+V1Id0WyJRFBTK3w1l26SCnHCgzE/gNDayKiHx0oH2D4Ur58hhMhUvlYg87Ow7tABw+98lu53o2aj4Sw2eEvBcpHQJiUC4Hiv51JkBKp+KlHqp4DGG5PRIBWfq7vdJBo2GnLfmXoCTA5fbQmteDO0eB7t3ckr4/pzXJrzBh5US80t+nu+MfoOEh0cr3WI7yujJhRosy8FyyVCkxQdYBN0GZdCI6UYiOAvMd7Ei9U9EZoePKQPp1eSHtKLqk3Vir1+KgS2CBFFCwDiaxcPaSHGcf9ZfiII4xNsZkbLMTNzXw7SeCi6Lbef7JrjIqFJih6SPUWjeBTZnW8UVJAInoVbzEWtNLWSAIiM0XPEw2Nlv1GGfUsBHPdWjgc7hJFYxpPoqmwkWHjIw79nZJHAUNMoxsbpTddIoJCC5SKhSYoeUjzFz3ApNJzvT1lFAmAPn6njrN5bS3bwXc0V07UiY0qE7TWC/YviiBux693Y/gHxi79r2bPQULAWZL/bfbtS1kizc1+O8OWQsF4VNKCAMXaAZ44ULBcJTVL0ADcp1zA/5I4DJs2cdvr/OZZBFdTseRTkwFviCphABRj81N6ABFTYFiLh6q0mFj9LGEoNhAc9CO00xMAqpDqnFC2RT29mO5AULBdD+6BJigDoBL2FRbFhHI2uNQKg47OZ42CVD6uNVtDe0UkvClI+BQ51UVKpza49YkGdvnof6QBeNBY/SzjHba74waRp9F3kVzmyveiiwerg2IwsKVguElqkGABtv7K4FGyhVRW6Lps+1qbDF8gK9p+x1scQjSIEgAHWxg9PuPKHGGeRpQIbqfEWxmI4iFQHgz6HuiZQf+Z4fMbI9Y7hXDR1Io9eeI4j+X/Em5wULBcJLVKMkOIr6sOlYHEwnv3kgQzBsWx4vKymjmKlzumu1xBVYcLDics3o3Gp2402FjjWbeWzIzsLbz5m9iTarnmacfNY+MLwWSlYLhJapBghdfq6f0zyFLVyKdpM8gAwKL/C9LGeyyghNK0wA8wHvRpYaqlWeMJEuN30wOmIaMxPiVIpUFNUTu9TBb/Fgww/lO3omXnZH5gK9RtqkESa6x+rft6w9deb3mlW3v4QtWx43OK/hQVKwXKR0CBokWIC6KKzhkvhKvGWI4BlUUEDChPAEMtarcbNL+CYt3MPYKuAvUJnpbCFsOUmAjCUFPQeFBNzSdqHC6tmVYGXKT0jjV7wfGtKBL7M8KqJoYYszXnLTF3wP5k5HoaXMKHCjS58a8NQc3/eXwyPV5P/e3zeUcHKzxxL7/gm2yESX8Nb62OLkpZqZA/EGwse2s/j7/HnLJ5xLaFBiln08RZ/zKJo892LLbeeL1i6k0wAscyC49hqOY/GGE5H7CDJVG84iK1G9s+XmyJ8G0LXYzjX0U0H4X3IjoLZck7WMHiYLIX5Hc//vWkfFR60qwXPWE42hdjiDQmu+IpQ3ZjEh1vdzPfRjn9kep7dzdNuENaKsOH7DILBVr3v+P+qCVf9M1Wg3vdNIvz32YL/ZvGMawkNUswi1Vf2ExZFa4jtLAJgmGetiULWEmGjB3EagpjIWzcAXnntza+s2ktWgGt8Pb/c1rnGqG9XMWBtwW/wIFnuZlOv+qRc5uXCZ9V5K9aCpRJvwHgb1vwZBAv/KKhbmJAygaRXloIFDVIsAPaGc1yKB5F3ZT12WEx0UQYEnXjcsGAAgvZiYg6ZuIIEcLTRxIueb2hh9rtqZxzXiLeA93yTbYpqFoZ9rgtWZuYXOF/CC9aMrI8Iya6pnvn4RwLdhtgJFrRHsQjMY03ncgEgEkV1gKGQ+PviRg+O+5bgJjfCKwH7eVRoGmsC2CzuxEZnzJWo/ifHuTIwEJ6nqOob5iuEzcBVwYJoY+g72DstoQVrVHoOekOiWxFMtphf5CdYaOllFSm+4r5cLgCs3HuGdIDW7oLv2m70gAwtO8eFidWxoaa4M7QYm49cdLbzdnoeLc95Tc1qj4qYG/sy0+dkAwysHmI1013hKvwFVQQGYQ4tIQULw9qZWSPwXbxt4WfATrCgPYpVDJ976IchpWvkchHY4Ius9Ei81/LQ7nGxChjxmJduNNo9JjLbcQwRtUZX+9t0xG9XoTrciZF52TObJvtH0YZAf0xYW5pUxwTwCF+BK3WB/dLmU45/HLxcVrv3IPcKD7lZ4YJ4I37GqCZM7mPC3g3CkxbxnJ4ML66nW9oFFg0GeacThtGYoP8iIwN/zuIZB6E50B4FsDEsnM/lQiTDulGLgTfSGPWLW0TDfBMIczwQMey/gzUBm5fxLzhWDsdnpNMrnllxmAtZRENDtUHApvpHEnxgGNZhpXBZziBC52pYHjIyx6tvTFj2h8vdSjNYvEFh2MzidyPhGdIcxS6SfCXJLC5C0oqHDG+cWAVlUWuiEt2esYXIwionthOxqD2RCc1R7MLv3/YPIcVr4HIxkn9z6cNzJQDa87OoNdGJebFJ/k9NbQUKZI5jUXNCM6Q10BwlCmBYOJfFxUia6f6DLCwWdfYkInAQq2p60TZ78vpg+Mmi1oRmSGuUaJHkKfkLi4uRhF0CLnnRlh/sqWRRa08k5sO+y+0bLliYyGZRX6JT7Y5jE9o29kU3uFxUbyUCDJtbH4q8aEihYFFrTycm6WGfeBrlzKKmHsAborA+q673AiYX1euIyfOizUcJIYIizN94mEW9vYWhDdDYL4noHRb1JDqhMYpTSPEX/7RPWvAJl4vracTeQ1gVsF9y1poDNHfdIUKzCPQchGfLCOv+r72zCbWruuL4oh+0FnGk007sB04c2KGd2O59X5400BYe1ECxoyK0ldoK5exzC7e2g5JBLI60YuGs+xLS58yvkehIETVxIDgQQ1AHUYwaCREReXr+Kmjyosm7736sc87vBz8ISd57Z6+91uK+c/bZ+9mXQ4wDcTZ9Wz3G5kkqzRMxBtc/tY/VjGhBbYgxIM6qeovNm1xPbwkxuB46Q8PSPSu9EB7i+hH3onqLzYWdO5G+HWWQfXK3Dev0e+d0DmOIa0fci+op6i22CEaV3x1loH3yYLvQU5+YLsW5Dz7UvS2dgh3iuhH3qnqKLYo09uu4+b64k611w1032nUwqvaS1y4Ub7xztj36/uSnB1v8gkaFvdK31VNskeTKH40x2H47Kh7iOhAXpXqJLZq1cvimKANGxO6qXmLLIBU/FmXQiNhBix+zZZGKHwgxaETspsUP2AzMvu1M5a+GGDgidkx/VT3Elkmum7/EGDwidkn1Dls2G5OtK9ncDxF3o3qGeoetglRP7wwRBETshm3PsFWxcWjrCvbKQsTL9JR6hq2SUe23BwkGIgZWvcJWjV5czJW/HiUoiBhP9Qj1CotArv22KIFBxHiqR1gUdFJrqvxElOAgYiT9hHqERSLXm7+KERxEjKR6g0WEbZQRccf2x1HZV45cnyv/KESgEHGlqheoJ1hkcmnujRIwRFyd6gUWnfVq65pU+ZkoQUPEVehn1AusC4yK3xEjaIi4CtUDrCt8vv3M8SjBQ8Rl6sfVA6xLrJXpDdyARxyWqnnVvnWRVKYHowQSERevat66it7MTqV5JUQgEXGhqtZV89ZlRmP/WYhgIuJCVa1bH0jFH4gSVEScv6px6wvrk82rctWcDBFYRJyrqm3VuPWJXG3eyFNDxH6pmlZtWx/JZXpXlEAj4t5VTVtf0WKyXPkzUYKNiLOrWu7cAtHdsj4+em0qfjZK0BFx96qGVcs2BEZ1c2uIoCPiTKqGbUjk0twfJfiIePmqdm1o6ASNXPy5KJOAiJdWNRvm9Jtlkyb+fY67R+yIba2qZm3I5LL5c9ZnIcZWNapaNVDTmv4tysQg4k5Vowbn3YT/f5TJQcQvVG0anM/vJk9+Nxd/KsokIaKalT+l2jTYyf7JkavZPwsxiG0tqiYNvpo8PvzDVPnpEBOGOFj9tGrR4NKk2n+aq+aDGBOHOCxVe6pBg10dFfabVPl2lElEHIa+rdoz2D25+B9iTCLiMFTNGbBGCzG6rLWa3z2tf0aZVMRe2taYwfwYVX53iIlF7JvFDxnMn1Ht/w0xwYg9UTVlsBgmk4+/QdNCnF+zUk0ZLBZ9hI0y6YidlF8Dvww34hHDyg32i8KSB8RgsnRhxWihGyviES+lb7MoNAh6lYB3DxEvrmqD122CoZc12eUB8UL9NC8yB+XmSfMj9tNC/EzVgmrCIC7acCxV/nSIhEFc4U6hbL7XEbSlK3vE41BV7rOtcQfRI1yOEMOhqFxn2ULH0VlqHNaKvbfNcc4N7Ak6rZZj8bGvKrcHfyJz31i/57Hv5NLcHyXJEOehclq5bdBPRnVzayp+NkrCIc6icli5bNB/1sdHr82VPxMi8RB3qXJXOWwwHCaTJ7+Vy/QuniJiV1SuKmeVuwbDJFebN+aqORklKREvpnJUuWoA65PNq3LV/C9KciKeZ/EHlKMGcOGaLd5FxDC2ucjaKvhaNg5tXZHK9CD3tnBVKveUg8pFA7gc1sr0hlT58ShJjEPRjyv3DGCWJ4mj4nekys/ESGbsr35GucYTQNgz69XWNbk09/JrIs5b5ZRySzlmAPNkXzlyfSrNE1GSHTtum0vKKQNYJKnyX7eeCJH02EH9hHLIAJbF7+97/tu59tty5a/HKAKMrnJFOaPcMYBVoDflR7XfnqrmVJTCwHCeUo6wqwKEYf/k4e+lenonmwWilMoF5YRywwAisjHZujIX/2suzWshigaXruZeOaBcMIAuoPU0qfiB1mNRCgkXq+Zac85aKug0a+XwTbnyRzlSv4/6tuZWc2wAfSKN/bpcmv+0vh2j2HBWNYeaS82pAfQZPS3K9fQWLRzkU1eX9G3NmeaOJ34wSNYm0x/k0vybZRGhPaU50lwZAJhtbG198/MzFO9jaUQAi7+ludCcaG4MAL5mv/nx5kg7TebK3wlRwANQsVbMFXue9AHM+ArQ2ni6LxW/J5fm5SjF3RcVU8VWMeaVGYAFHFGW6ukfU/FHcmnORSn8rqiYKXaKIUdlASwRPalaGzcp1/6PXJrHOSB2p4qJYqMYKVY83QMIgm4Oa3vdUWn+lCo/OsSdJDRmjV0xUCy4YQ7QIbSTZdbTx9r/rKPMWp9Plb8fpcHMqsagsWhMGpvGyK6dAD1Enzr2jac/HlXTX2of8c9u6PtDrS+G+rWy+Fldk65N16hr1TXr2vnkBAAm9k+OXD36++Gf5LHfnGv/rRpF67+093jrg1rtnUvzQi7+ks7O069hrW+m0ryrTz7ap1zqz/o7/Zv+j/6vvkZfq++h76Xvqe+tn6GfpZ+pn61rMIAL+ASRe6KwcF17DQAAAABJRU5ErkJggg==;" parent="1" vertex="1">
          <mxGeometry x="-510" y="1686" width="28" height="28" as="geometry" />
        </mxCell>
        <mxCell id="_-kJSPt_qq9w9nPcTiiO-340" value="MySQL" style="text;html=1;align=center;verticalAlign=middle;whiteSpace=wrap;rounded=0;" parent="1" vertex="1">
          <mxGeometry x="-488" y="1686" width="60" height="30" as="geometry" />
        </mxCell>
        <mxCell id="_-kJSPt_qq9w9nPcTiiO-341" style="edgeStyle=orthogonalEdgeStyle;rounded=0;orthogonalLoop=1;jettySize=auto;html=1;exitX=0;exitY=0.5;exitDx=0;exitDy=0;entryX=1;entryY=0.5;entryDx=0;entryDy=0;entryPerimeter=0;startArrow=classic;startFill=1;" parent="1" source="_-kJSPt_qq9w9nPcTiiO-316" target="_-kJSPt_qq9w9nPcTiiO-336" edge="1">
          <mxGeometry relative="1" as="geometry" />
        </mxCell>
      </root>
    </mxGraphModel>
  </diagram>
</mxfile>
